G04*
G04 #@! TF.GenerationSoftware,Altium Limited,Altium Designer,22.10.1 (41)*
G04*
G04 Layer_Color=128*
%FSLAX44Y44*%
%MOMM*%
G71*
G04*
G04 #@! TF.SameCoordinates,86A63571-8FB3-4636-807C-F47AD7162A4A*
G04*
G04*
G04 #@! TF.FilePolarity,Positive*
G04*
G01*
G75*
%ADD81C,0.0508*%
D81*
X920765Y1265390D02*
X928355D01*
X924560Y1261595D02*
Y1269185D01*
X895365Y1265390D02*
X902955D01*
X899160Y1261595D02*
Y1269185D01*
X869965Y1265390D02*
X877555D01*
X873760Y1261595D02*
Y1269185D01*
X844565Y1265390D02*
X852155D01*
X848360Y1261595D02*
Y1269185D01*
X844565Y1343490D02*
X852155D01*
X848360Y1339695D02*
Y1347285D01*
X869965Y1343490D02*
X877555D01*
X873760Y1339695D02*
Y1347285D01*
X895365Y1343490D02*
X902955D01*
X899160Y1339695D02*
Y1347285D01*
X920765Y1343490D02*
X928355D01*
X924560Y1339695D02*
Y1347285D01*
X927990Y1396800D02*
X935610D01*
X931800Y1392990D02*
Y1400610D01*
X935990Y1447800D02*
X943610D01*
X939800Y1443990D02*
Y1451610D01*
X957160Y1638300D02*
X968160D01*
X962660Y1632800D02*
Y1643800D01*
X957160Y1612900D02*
X968160D01*
X962660Y1607400D02*
Y1618400D01*
X957160Y1587500D02*
X968160D01*
X962660Y1582000D02*
Y1593000D01*
X926680Y1638300D02*
X937680D01*
X932180Y1632800D02*
Y1643800D01*
X926680Y1612900D02*
X937680D01*
X932180Y1607400D02*
Y1618400D01*
X926680Y1587500D02*
X937680D01*
X932180Y1582000D02*
Y1593000D01*
X1518500Y1397000D02*
X1529500D01*
X1524000Y1391500D02*
Y1402500D01*
X1543900Y1397000D02*
X1554900D01*
X1549400Y1391500D02*
Y1402500D01*
X1569300Y1397000D02*
X1580300D01*
X1574800Y1391500D02*
Y1402500D01*
X929220Y1750060D02*
X940220D01*
X934720Y1744560D02*
Y1755560D01*
X903820Y1750060D02*
X914820D01*
X909320Y1744560D02*
Y1755560D01*
X878420Y1750060D02*
X889420D01*
X883920Y1744560D02*
Y1755560D01*
X853020Y1750060D02*
X864020D01*
X858520Y1744560D02*
Y1755560D01*
X827620Y1750060D02*
X838620D01*
X833120Y1744560D02*
Y1755560D01*
X929220Y1724660D02*
X940220D01*
X934720Y1719160D02*
Y1730160D01*
X903820Y1724660D02*
X914820D01*
X909320Y1719160D02*
Y1730160D01*
X878420Y1724660D02*
X889420D01*
X883920Y1719160D02*
Y1730160D01*
X853020Y1724660D02*
X864020D01*
X858520Y1719160D02*
Y1730160D01*
X827620Y1724660D02*
X838620D01*
X833120Y1719160D02*
Y1730160D01*
X857160Y1628140D02*
X864960D01*
X861060Y1624240D02*
Y1632040D01*
X831760Y1628140D02*
X839560D01*
X835660Y1624240D02*
Y1632040D01*
X806360Y1628140D02*
X814160D01*
X810260Y1624240D02*
Y1632040D01*
X857160Y1539240D02*
X864960D01*
X861060Y1535340D02*
Y1543140D01*
X831760Y1539240D02*
X839560D01*
X835660Y1535340D02*
Y1543140D01*
X806360Y1539240D02*
X814160D01*
X810260Y1535340D02*
Y1543140D01*
X778060Y1317140D02*
X791660D01*
X784860Y1310340D02*
Y1323940D01*
X778060Y1291740D02*
X791660D01*
X784860Y1284940D02*
Y1298540D01*
X778060Y1266340D02*
X791660D01*
X784860Y1259540D02*
Y1273140D01*
X851020Y1454180D02*
X866020D01*
X858520Y1446680D02*
Y1461680D01*
X851020Y1416080D02*
X866020D01*
X858520Y1408580D02*
Y1423580D01*
X1320380Y1508760D02*
X1331380D01*
X1325880Y1503260D02*
Y1514260D01*
X1294980Y1508760D02*
X1305980D01*
X1300480Y1503260D02*
Y1514260D01*
X1554060Y1508760D02*
X1565060D01*
X1559560Y1503260D02*
Y1514260D01*
X1579460Y1508760D02*
X1590460D01*
X1584960Y1503260D02*
Y1514260D01*
X1604860Y1508760D02*
X1615860D01*
X1610360Y1503260D02*
Y1514260D01*
X1630260Y1508760D02*
X1641260D01*
X1635760Y1503260D02*
Y1514260D01*
X1731860Y1508760D02*
X1742860D01*
X1737360Y1503260D02*
Y1514260D01*
X1706460Y1508760D02*
X1717460D01*
X1711960Y1503260D02*
Y1514260D01*
X1681060Y1508760D02*
X1692060D01*
X1686560Y1503260D02*
Y1514260D01*
X1655660Y1508760D02*
X1666660D01*
X1661160Y1503260D02*
Y1514260D01*
X1048600Y1747520D02*
X1059600D01*
X1054100Y1742020D02*
Y1753020D01*
X1048600Y1722120D02*
X1059600D01*
X1054100Y1716620D02*
Y1727620D01*
X1048600Y1696720D02*
X1059600D01*
X1054100Y1691220D02*
Y1702220D01*
X1048600Y1671320D02*
X1059600D01*
X1054100Y1665820D02*
Y1676820D01*
X1048600Y1645920D02*
X1059600D01*
X1054100Y1640420D02*
Y1651420D01*
X1048600Y1620520D02*
X1059600D01*
X1054100Y1615020D02*
Y1626020D01*
X1048600Y1595120D02*
X1059600D01*
X1054100Y1589620D02*
Y1600620D01*
X1048600Y1569720D02*
X1059600D01*
X1054100Y1564220D02*
Y1575220D01*
X1642960Y1569720D02*
X1653960D01*
X1648460Y1564220D02*
Y1575220D01*
X1642960Y1595120D02*
X1653960D01*
X1648460Y1589620D02*
Y1600620D01*
X1642960Y1620520D02*
X1653960D01*
X1648460Y1615020D02*
Y1626020D01*
X1642960Y1645920D02*
X1653960D01*
X1648460Y1640420D02*
Y1651420D01*
X1642960Y1671320D02*
X1653960D01*
X1648460Y1665820D02*
Y1676820D01*
X1642960Y1696720D02*
X1653960D01*
X1648460Y1691220D02*
Y1702220D01*
X1642960Y1722120D02*
X1653960D01*
X1648460Y1716620D02*
Y1727620D01*
X1642960Y1747520D02*
X1653960D01*
X1648460Y1742020D02*
Y1753020D01*
X1566760Y1671320D02*
X1577760D01*
X1572260Y1665820D02*
Y1676820D01*
X1566760Y1696720D02*
X1577760D01*
X1572260Y1691220D02*
Y1702220D01*
X1566760Y1722120D02*
X1577760D01*
X1572260Y1716620D02*
Y1727620D01*
X1566760Y1747520D02*
X1577760D01*
X1572260Y1742020D02*
Y1753020D01*
X1371180Y1821180D02*
X1382180D01*
X1376680Y1815680D02*
Y1826680D01*
X1345780Y1821180D02*
X1356780D01*
X1351280Y1815680D02*
Y1826680D01*
X1320380Y1821180D02*
X1331380D01*
X1325880Y1815680D02*
Y1826680D01*
X1294980Y1821180D02*
X1305980D01*
X1300480Y1815680D02*
Y1826680D01*
X1472780Y1821180D02*
X1483780D01*
X1478280Y1815680D02*
Y1826680D01*
X1447380Y1821180D02*
X1458380D01*
X1452880Y1815680D02*
Y1826680D01*
X1421980Y1821180D02*
X1432980D01*
X1427480Y1815680D02*
Y1826680D01*
X1396580Y1821180D02*
X1407580D01*
X1402080Y1815680D02*
Y1826680D01*
X1124800Y1671320D02*
X1135800D01*
X1130300Y1665820D02*
Y1676820D01*
X1124800Y1696720D02*
X1135800D01*
X1130300Y1691220D02*
Y1702220D01*
X1124800Y1722120D02*
X1135800D01*
X1130300Y1716620D02*
Y1727620D01*
X1124800Y1747520D02*
X1135800D01*
X1130300Y1742020D02*
Y1753020D01*
X1201000Y1747520D02*
X1212000D01*
X1206500Y1742020D02*
Y1753020D01*
X1201000Y1722120D02*
X1212000D01*
X1206500Y1716620D02*
Y1727620D01*
X1201000Y1696720D02*
X1212000D01*
X1206500Y1691220D02*
Y1702220D01*
X1201000Y1671320D02*
X1212000D01*
X1206500Y1665820D02*
Y1676820D01*
X1371180Y1874520D02*
X1382180D01*
X1376680Y1869020D02*
Y1880020D01*
X1345780Y1874520D02*
X1356780D01*
X1351280Y1869020D02*
Y1880020D01*
X1320380Y1874520D02*
X1331380D01*
X1325880Y1869020D02*
Y1880020D01*
X1294980Y1874520D02*
X1305980D01*
X1300480Y1869020D02*
Y1880020D01*
X1124800Y1569720D02*
X1135800D01*
X1130300Y1564220D02*
Y1575220D01*
X1124800Y1595120D02*
X1135800D01*
X1130300Y1589620D02*
Y1600620D01*
X1124800Y1620520D02*
X1135800D01*
X1130300Y1615020D02*
Y1626020D01*
X1124800Y1645920D02*
X1135800D01*
X1130300Y1640420D02*
Y1651420D01*
X1137500Y1508760D02*
X1148500D01*
X1143000Y1503260D02*
Y1514260D01*
X1162900Y1508760D02*
X1173900D01*
X1168400Y1503260D02*
Y1514260D01*
X1188300Y1508760D02*
X1199300D01*
X1193800Y1503260D02*
Y1514260D01*
X1213700Y1508760D02*
X1224700D01*
X1219200Y1503260D02*
Y1514260D01*
X1201000Y1645920D02*
X1212000D01*
X1206500Y1640420D02*
Y1651420D01*
X1201000Y1620520D02*
X1212000D01*
X1206500Y1615020D02*
Y1626020D01*
X1201000Y1595120D02*
X1212000D01*
X1206500Y1589620D02*
Y1600620D01*
X1201000Y1569720D02*
X1212000D01*
X1206500Y1564220D02*
Y1575220D01*
X1035900Y1508760D02*
X1046900D01*
X1041400Y1503260D02*
Y1514260D01*
X1061300Y1508760D02*
X1072300D01*
X1066800Y1503260D02*
Y1514260D01*
X1086700Y1508760D02*
X1097700D01*
X1092200Y1503260D02*
Y1514260D01*
X1112100Y1508760D02*
X1123100D01*
X1117600Y1503260D02*
Y1514260D01*
X1472780Y1874520D02*
X1483780D01*
X1478280Y1869020D02*
Y1880020D01*
X1447380Y1874520D02*
X1458380D01*
X1452880Y1869020D02*
Y1880020D01*
X1421980Y1874520D02*
X1432980D01*
X1427480Y1869020D02*
Y1880020D01*
X1396580Y1874520D02*
X1407580D01*
X1402080Y1869020D02*
Y1880020D01*
X1566760Y1569720D02*
X1577760D01*
X1572260Y1564220D02*
Y1575220D01*
X1566760Y1595120D02*
X1577760D01*
X1572260Y1589620D02*
Y1600620D01*
X1566760Y1620520D02*
X1577760D01*
X1572260Y1615020D02*
Y1626020D01*
X1566760Y1645920D02*
X1577760D01*
X1572260Y1640420D02*
Y1651420D01*
X1664000Y1324500D02*
X1676000D01*
X1670000Y1318500D02*
Y1330500D01*
X1664000Y1124500D02*
X1676000D01*
X1670000Y1118500D02*
Y1130500D01*
X1108328Y1357500D02*
X1117472D01*
X1112900Y1352928D02*
Y1362072D01*
X1082928Y1357500D02*
X1092072D01*
X1087500Y1352928D02*
Y1362072D01*
X1057528Y1357500D02*
X1066672D01*
X1062100Y1352928D02*
Y1362072D01*
X1032128Y1357500D02*
X1041272D01*
X1036700Y1352928D02*
Y1362072D01*
X1006728Y1357500D02*
X1015872D01*
X1011300Y1352928D02*
Y1362072D01*
X1343328Y1362500D02*
X1352472D01*
X1347900Y1357928D02*
Y1367072D01*
X1317928Y1362500D02*
X1327072D01*
X1322500Y1357928D02*
Y1367072D01*
X1292528Y1362500D02*
X1301672D01*
X1297100Y1357928D02*
Y1367072D01*
X1267128Y1362500D02*
X1276272D01*
X1271700Y1357928D02*
Y1367072D01*
X1241728Y1362500D02*
X1250872D01*
X1246300Y1357928D02*
Y1367072D01*
X1216328Y1362500D02*
X1225472D01*
X1220900Y1357928D02*
Y1367072D01*
X1190928Y1362500D02*
X1200072D01*
X1195500Y1357928D02*
Y1367072D01*
X1165528Y1362500D02*
X1174672D01*
X1170100Y1357928D02*
Y1367072D01*
X1279740Y985520D02*
X1290740D01*
X1285240Y980020D02*
Y991020D01*
X1305140Y985520D02*
X1316140D01*
X1310640Y980020D02*
Y991020D01*
X1330540Y985520D02*
X1341540D01*
X1336040Y980020D02*
Y991020D01*
X1355940Y985520D02*
X1366940D01*
X1361440Y980020D02*
Y991020D01*
X1467480Y1290320D02*
X1477880D01*
X1472680Y1285120D02*
Y1295520D01*
X1442080Y1290320D02*
X1452480D01*
X1447280Y1285120D02*
Y1295520D01*
X1010280Y1290320D02*
X1020680D01*
X1015480Y1285120D02*
Y1295520D01*
X1416680Y1290320D02*
X1427080D01*
X1421880Y1285120D02*
Y1295520D01*
X1391280Y1290320D02*
X1401680D01*
X1396480Y1285120D02*
Y1295520D01*
X1365880Y1290320D02*
X1376280D01*
X1371080Y1285120D02*
Y1295520D01*
X1340480Y1290320D02*
X1350880D01*
X1345680Y1285120D02*
Y1295520D01*
X1315080Y1290320D02*
X1325480D01*
X1320280Y1285120D02*
Y1295520D01*
X1289680Y1290320D02*
X1300080D01*
X1294880Y1285120D02*
Y1295520D01*
X1264280Y1290320D02*
X1274680D01*
X1269480Y1285120D02*
Y1295520D01*
X1238880Y1290320D02*
X1249280D01*
X1244080Y1285120D02*
Y1295520D01*
X1213480Y1290320D02*
X1223880D01*
X1218680Y1285120D02*
Y1295520D01*
X1188080Y1290320D02*
X1198480D01*
X1193280Y1285120D02*
Y1295520D01*
X1162680Y1290320D02*
X1173080D01*
X1167880Y1285120D02*
Y1295520D01*
X1137280Y1290320D02*
X1147680D01*
X1142480Y1285120D02*
Y1295520D01*
X1111880Y1290320D02*
X1122280D01*
X1117080Y1285120D02*
Y1295520D01*
X1086480Y1290320D02*
X1096880D01*
X1091680Y1285120D02*
Y1295520D01*
X1061080Y1290320D02*
X1071480D01*
X1066280Y1285120D02*
Y1295520D01*
X1035680Y1290320D02*
X1046080D01*
X1040880Y1285120D02*
Y1295520D01*
X1467480Y1036320D02*
X1477880D01*
X1472680Y1031120D02*
Y1041520D01*
X1442080Y1036320D02*
X1452480D01*
X1447280Y1031120D02*
Y1041520D01*
X1416680Y1036320D02*
X1427080D01*
X1421880Y1031120D02*
Y1041520D01*
X1391280Y1036320D02*
X1401680D01*
X1396480Y1031120D02*
Y1041520D01*
X1365880Y1036320D02*
X1376280D01*
X1371080Y1031120D02*
Y1041520D01*
X1340480Y1036320D02*
X1350880D01*
X1345680Y1031120D02*
Y1041520D01*
X1315080Y1036320D02*
X1325480D01*
X1320280Y1031120D02*
Y1041520D01*
X1289680Y1036320D02*
X1300080D01*
X1294880Y1031120D02*
Y1041520D01*
X1264280Y1036320D02*
X1274680D01*
X1269480Y1031120D02*
Y1041520D01*
X1238880Y1036320D02*
X1249280D01*
X1244080Y1031120D02*
Y1041520D01*
X1213480Y1036320D02*
X1223880D01*
X1218680Y1031120D02*
Y1041520D01*
X1188080Y1036320D02*
X1198480D01*
X1193280Y1031120D02*
Y1041520D01*
X1162680Y1036320D02*
X1173080D01*
X1167880Y1031120D02*
Y1041520D01*
X1137280Y1036320D02*
X1147680D01*
X1142480Y1031120D02*
Y1041520D01*
X1111880Y1036320D02*
X1122280D01*
X1117080Y1031120D02*
Y1041520D01*
X1086480Y1036320D02*
X1096880D01*
X1091680Y1031120D02*
Y1041520D01*
X1061080Y1036320D02*
X1071480D01*
X1066280Y1031120D02*
Y1041520D01*
X1035680Y1036320D02*
X1046080D01*
X1040880Y1031120D02*
Y1041520D01*
X1010280Y1036320D02*
X1020680D01*
X1015480Y1031120D02*
Y1041520D01*
X1320380Y1920240D02*
X1331380D01*
X1325880Y1914740D02*
Y1925740D01*
X1345780Y1920240D02*
X1356780D01*
X1351280Y1914740D02*
Y1925740D01*
X1371180Y1920240D02*
X1382180D01*
X1376680Y1914740D02*
Y1925740D01*
X1396580Y1920240D02*
X1407580D01*
X1402080Y1914740D02*
Y1925740D01*
X1421980Y1920240D02*
X1432980D01*
X1427480Y1914740D02*
Y1925740D01*
X1447380Y1920240D02*
X1458380D01*
X1452880Y1914740D02*
Y1925740D01*
X977841Y985159D02*
X988841D01*
X983341Y979659D02*
Y990659D01*
X959880Y1003120D02*
X970880D01*
X965380Y997620D02*
Y1008620D01*
X941920Y1021080D02*
X952920D01*
X947420Y1015580D02*
Y1026580D01*
X939380Y1854200D02*
X950380D01*
X944880Y1848700D02*
Y1859700D01*
X957340Y1872160D02*
X968340D01*
X962840Y1866660D02*
Y1877660D01*
X975301Y1890121D02*
X986301D01*
X980801Y1884621D02*
Y1895621D01*
X1010500Y1920240D02*
X1021500D01*
X1016000Y1914740D02*
Y1925740D01*
X1035900Y1920240D02*
X1046900D01*
X1041400Y1914740D02*
Y1925740D01*
X1061300Y1920240D02*
X1072300D01*
X1066800Y1914740D02*
Y1925740D01*
X1086700Y1920240D02*
X1097700D01*
X1092200Y1914740D02*
Y1925740D01*
X1112100Y1920240D02*
X1123100D01*
X1117600Y1914740D02*
Y1925740D01*
X1213700Y1920240D02*
X1224700D01*
X1219200Y1914740D02*
Y1925740D01*
X1188300Y1920240D02*
X1199300D01*
X1193800Y1914740D02*
Y1925740D01*
X1162900Y1920240D02*
X1173900D01*
X1168400Y1914740D02*
Y1925740D01*
X1137500Y1920240D02*
X1148500D01*
X1143000Y1914740D02*
Y1925740D01*
X1162900Y1821180D02*
X1173900D01*
X1168400Y1815680D02*
Y1826680D01*
X1137500Y1821180D02*
X1148500D01*
X1143000Y1815680D02*
Y1826680D01*
X1112100Y1821180D02*
X1123100D01*
X1117600Y1815680D02*
Y1826680D01*
X1086700Y1821180D02*
X1097700D01*
X1092200Y1815680D02*
Y1826680D01*
X1719160Y1645920D02*
X1730160D01*
X1724660Y1640420D02*
Y1651420D01*
X1719160Y1620520D02*
X1730160D01*
X1724660Y1615020D02*
Y1626020D01*
X1719160Y1595120D02*
X1730160D01*
X1724660Y1589620D02*
Y1600620D01*
X1719160Y1569720D02*
X1730160D01*
X1724660Y1564220D02*
Y1575220D01*
X1719160Y1747520D02*
X1730160D01*
X1724660Y1742020D02*
Y1753020D01*
X1719160Y1722120D02*
X1730160D01*
X1724660Y1716620D02*
Y1727620D01*
X1719160Y1696720D02*
X1730160D01*
X1724660Y1691220D02*
Y1702220D01*
X1719160Y1671320D02*
X1730160D01*
X1724660Y1665820D02*
Y1676820D01*
X1254340Y985520D02*
X1265340D01*
X1259840Y980020D02*
Y991020D01*
X1228940Y985520D02*
X1239940D01*
X1234440Y980020D02*
Y991020D01*
X1203540Y985520D02*
X1214540D01*
X1209040Y980020D02*
Y991020D01*
X1178140Y985520D02*
X1189140D01*
X1183640Y980020D02*
Y991020D01*
X1406740Y939800D02*
X1417740D01*
X1412240Y934300D02*
Y945300D01*
X1432140Y939800D02*
X1443140D01*
X1437640Y934300D02*
Y945300D01*
X1457540Y985520D02*
X1468540D01*
X1463040Y980020D02*
Y991020D01*
X1432140Y985520D02*
X1443140D01*
X1437640Y980020D02*
Y991020D01*
X1406740Y985520D02*
X1417740D01*
X1412240Y980020D02*
Y991020D01*
X1381340Y985520D02*
X1392340D01*
X1386840Y980020D02*
Y991020D01*
X1381340Y939800D02*
X1392340D01*
X1386840Y934300D02*
Y945300D01*
X1355940Y939800D02*
X1366940D01*
X1361440Y934300D02*
Y945300D01*
X1330540Y939800D02*
X1341540D01*
X1336040Y934300D02*
Y945300D01*
X1305140Y939800D02*
X1316140D01*
X1310640Y934300D02*
Y945300D01*
X1178140Y939800D02*
X1189140D01*
X1183640Y934300D02*
Y945300D01*
X1152740Y939800D02*
X1163740D01*
X1158240Y934300D02*
Y945300D01*
X1127340Y939800D02*
X1138340D01*
X1132840Y934300D02*
Y945300D01*
X1101940Y939800D02*
X1112940D01*
X1107440Y934300D02*
Y945300D01*
X1279740Y939800D02*
X1290740D01*
X1285240Y934300D02*
Y945300D01*
X1254340Y939800D02*
X1265340D01*
X1259840Y934300D02*
Y945300D01*
X1228940Y939800D02*
X1239940D01*
X1234440Y934300D02*
Y945300D01*
X1203540Y939800D02*
X1214540D01*
X1209040Y934300D02*
Y945300D01*
X1152740Y985520D02*
X1163740D01*
X1158240Y980020D02*
Y991020D01*
X1127340Y985520D02*
X1138340D01*
X1132840Y980020D02*
Y991020D01*
X1101940Y985520D02*
X1112940D01*
X1107440Y980020D02*
Y991020D01*
X1076540Y985520D02*
X1087540D01*
X1082040Y980020D02*
Y991020D01*
X1592160Y1854200D02*
X1603160D01*
X1597660Y1848700D02*
Y1859700D01*
X1574200Y1872160D02*
X1585200D01*
X1579700Y1866660D02*
Y1877660D01*
X1556239Y1890121D02*
X1567239D01*
X1561739Y1884621D02*
Y1895621D01*
X1553699Y982619D02*
X1564699D01*
X1559199Y977119D02*
Y988119D01*
X1571660Y1000580D02*
X1582660D01*
X1577160Y995080D02*
Y1006080D01*
X1589620Y1018540D02*
X1600620D01*
X1595120Y1013040D02*
Y1024040D01*
X787440Y1437640D02*
X792440D01*
X789940Y1435140D02*
Y1440140D01*
X909360Y1521460D02*
X914360D01*
X911860Y1518960D02*
Y1523960D01*
X960160Y1330960D02*
X965160D01*
X962660Y1328460D02*
Y1333460D01*
X843320Y1691640D02*
X848320D01*
X845820Y1689140D02*
Y1694140D01*
X995720Y1757680D02*
X1000720D01*
X998220Y1755180D02*
Y1760180D01*
X1394500Y1478280D02*
X1399500D01*
X1397000Y1475780D02*
Y1480780D01*
X1035090Y1850390D02*
X1040090D01*
X1037590Y1847890D02*
Y1852890D01*
X998260Y1838960D02*
X1003260D01*
X1000760Y1836460D02*
Y1841460D01*
X800140Y1656080D02*
X805140D01*
X802640Y1653580D02*
Y1658580D01*
X1348790Y1523486D02*
X1353790D01*
X1351290Y1520986D02*
Y1525986D01*
X1338620Y1531620D02*
X1343620D01*
X1341120Y1529120D02*
Y1534120D01*
X1356400Y1463040D02*
X1361400D01*
X1358900Y1460540D02*
Y1465540D01*
X1343663Y1506070D02*
X1348663D01*
X1346163Y1503570D02*
Y1508570D01*
X1509310Y1347500D02*
X1514310D01*
X1511810Y1345000D02*
Y1350000D01*
X1696760Y1457960D02*
X1701760D01*
X1699260Y1455460D02*
Y1460460D01*
X1671360Y1582420D02*
X1676360D01*
X1673860Y1579920D02*
Y1584920D01*
X1689140Y1579880D02*
X1694140D01*
X1691640Y1577380D02*
Y1582380D01*
X1696760Y1534160D02*
X1701760D01*
X1699260Y1531660D02*
Y1536660D01*
X1160820Y1734820D02*
X1165820D01*
X1163320Y1732320D02*
Y1737320D01*
X1140500Y1734820D02*
X1145500D01*
X1143000Y1732320D02*
Y1737320D01*
X1181140Y1744980D02*
X1186140D01*
X1183640Y1742480D02*
Y1747480D01*
X1181140Y1607820D02*
X1186140D01*
X1183640Y1605320D02*
Y1610320D01*
X1437680Y1640840D02*
X1442680D01*
X1440180Y1638340D02*
Y1643340D01*
X1206540Y1818640D02*
X1211540D01*
X1209040Y1816140D02*
Y1821140D01*
X857034Y1795764D02*
X862034D01*
X859534Y1793264D02*
Y1798264D01*
X835700Y1569720D02*
X840700D01*
X838200Y1567220D02*
Y1572220D01*
X782360Y1717040D02*
X787360D01*
X784860Y1714540D02*
Y1719540D01*
X975400Y1701800D02*
X980400D01*
X977900Y1699300D02*
Y1704300D01*
X955080Y1747520D02*
X960080D01*
X957580Y1745020D02*
Y1750020D01*
X977940Y1524000D02*
X982940D01*
X980440Y1521500D02*
Y1526500D01*
X1102400Y1534160D02*
X1107400D01*
X1104900Y1531660D02*
Y1536660D01*
X1148120Y1485900D02*
X1153120D01*
X1150620Y1483400D02*
Y1488400D01*
X1224028Y1475641D02*
X1229028D01*
X1226528Y1473141D02*
Y1478141D01*
X1397040Y1452880D02*
X1402040D01*
X1399540Y1450380D02*
Y1455380D01*
X1397040Y1427480D02*
X1402040D01*
X1399540Y1424980D02*
Y1429980D01*
X1376720Y1511300D02*
X1381720D01*
X1379220Y1508800D02*
Y1513800D01*
X1282740Y1529080D02*
X1287740D01*
X1285240Y1526580D02*
Y1531580D01*
X1546900Y1762760D02*
X1551900D01*
X1549400Y1760260D02*
Y1765260D01*
X1231940Y1892300D02*
X1236940D01*
X1234440Y1889800D02*
Y1894800D01*
X1214160Y1877060D02*
X1219160D01*
X1216660Y1874560D02*
Y1879560D01*
X1590080Y1805940D02*
X1595080D01*
X1592580Y1803440D02*
Y1808440D01*
X1282740Y1849120D02*
X1287740D01*
X1285240Y1846620D02*
Y1851620D01*
X1211620Y1894840D02*
X1216620D01*
X1214120Y1892340D02*
Y1897340D01*
X1427520Y1902460D02*
X1432520D01*
X1430020Y1899960D02*
Y1904960D01*
X1496290Y1762760D02*
X1501290D01*
X1498790Y1760260D02*
Y1765260D01*
X971804Y1838960D02*
X978916D01*
X975360Y1835404D02*
Y1842516D01*
X1005880Y1567180D02*
X1010880D01*
X1008380Y1564680D02*
Y1569680D01*
X995720Y1643380D02*
X1000720D01*
X998220Y1640880D02*
Y1645880D01*
X1032397Y1559750D02*
X1037397D01*
X1034897Y1557250D02*
Y1562250D01*
X1016040Y1592580D02*
X1021040D01*
X1018540Y1590080D02*
Y1595080D01*
X1041250Y1770380D02*
X1046250D01*
X1043750Y1767880D02*
Y1772880D01*
X995720Y1727200D02*
X1000720D01*
X998220Y1724700D02*
Y1729700D01*
X995720Y1617980D02*
X1000720D01*
X998220Y1615480D02*
Y1620480D01*
X965240Y1544320D02*
X970240D01*
X967740Y1541820D02*
Y1546820D01*
X1473765Y1439633D02*
X1478765D01*
X1476265Y1437133D02*
Y1442133D01*
X1353860Y1744980D02*
X1358860D01*
X1356360Y1742480D02*
Y1747480D01*
X1531660Y1805940D02*
X1536660D01*
X1534160Y1803440D02*
Y1808440D01*
X1005880Y1445260D02*
X1010880D01*
X1008380Y1442760D02*
Y1447760D01*
X1267500Y1346200D02*
X1272500D01*
X1270000Y1343700D02*
Y1348700D01*
X960160Y1247140D02*
X965160D01*
X962660Y1244640D02*
Y1249640D01*
X934760Y1559560D02*
X939760D01*
X937260Y1557060D02*
Y1562060D01*
X784900Y1582420D02*
X789900D01*
X787400Y1579920D02*
Y1584920D01*
X1282740Y1432560D02*
X1287740D01*
X1285240Y1430060D02*
Y1435060D01*
X1051600Y998220D02*
X1056600D01*
X1054100Y995720D02*
Y1000720D01*
X1770420Y1531620D02*
X1775420D01*
X1772920Y1529120D02*
Y1534120D01*
X1775500Y1706880D02*
X1780500D01*
X1778000Y1704380D02*
Y1709380D01*
X1221780Y1582420D02*
X1226780D01*
X1224280Y1579920D02*
Y1584920D01*
X1254800Y1612900D02*
X1259800D01*
X1257300Y1610400D02*
Y1615400D01*
X1253545Y1597500D02*
X1258545D01*
X1256045Y1595000D02*
Y1600000D01*
X1254043Y1572323D02*
X1259043D01*
X1256543Y1569823D02*
Y1574823D01*
X1262420Y1559560D02*
X1267420D01*
X1264920Y1557060D02*
Y1562060D01*
X1259880Y1536700D02*
X1264880D01*
X1262380Y1534200D02*
Y1539200D01*
X1277660Y1559560D02*
X1282660D01*
X1280160Y1557060D02*
Y1562060D01*
X1630760Y1060360D02*
X1665760D01*
X1648260Y1042860D02*
Y1077860D01*
X1036270Y1478770D02*
X1041270D01*
X1038770Y1476270D02*
Y1481270D01*
X1052824Y1425173D02*
X1057824D01*
X1055324Y1422673D02*
Y1427673D01*
X1066840Y1424940D02*
X1071840D01*
X1069340Y1422440D02*
Y1427440D01*
X1037824Y1425173D02*
X1042824D01*
X1040324Y1422673D02*
Y1427673D01*
X990640Y1211580D02*
X995640D01*
X993140Y1209080D02*
Y1214080D01*
X1270040Y1524000D02*
X1275040D01*
X1272540Y1521500D02*
Y1526500D01*
X1287820Y1546860D02*
X1292820D01*
X1290320Y1544360D02*
Y1549360D01*
X1318014Y1569082D02*
X1323014D01*
X1320514Y1566582D02*
Y1571582D01*
X1370779Y1576260D02*
X1375779D01*
X1373279Y1573760D02*
Y1578760D01*
X1371640Y1592580D02*
X1376640D01*
X1374140Y1590080D02*
Y1595080D01*
X1328460Y1592580D02*
X1333460D01*
X1330960Y1590080D02*
Y1595080D01*
X1335950Y1436150D02*
X1340950D01*
X1338450Y1433650D02*
Y1438650D01*
X1323380Y1440180D02*
X1328380D01*
X1325880Y1437680D02*
Y1442680D01*
X1310680Y1445260D02*
X1315680D01*
X1313180Y1442760D02*
Y1447760D01*
X1297980Y1450340D02*
X1302980D01*
X1300480Y1447840D02*
Y1452840D01*
X1371640Y1430020D02*
X1376640D01*
X1374140Y1427520D02*
Y1432520D01*
X1331000Y1569720D02*
X1336000D01*
X1333500Y1567220D02*
Y1572220D01*
X1473240Y1610360D02*
X1478240D01*
X1475740Y1607860D02*
Y1612860D01*
X1468160Y1714500D02*
X1473160D01*
X1470660Y1712000D02*
Y1717000D01*
X1266409Y1620520D02*
X1271409D01*
X1268909Y1618020D02*
Y1623020D01*
X1300520Y1651000D02*
X1305520D01*
X1303020Y1648500D02*
Y1653500D01*
X1315913Y1652476D02*
X1320913D01*
X1318413Y1649976D02*
Y1654976D01*
X1300536Y1675386D02*
X1305536D01*
X1303036Y1672886D02*
Y1677886D01*
X1313220Y1671320D02*
X1318220D01*
X1315720Y1668820D02*
Y1673820D01*
X1325920Y1709420D02*
X1330920D01*
X1328420Y1706920D02*
Y1711920D01*
X1340080Y1730601D02*
X1345080D01*
X1342580Y1728101D02*
Y1733101D01*
X1315760Y1747520D02*
X1320760D01*
X1318260Y1745020D02*
Y1750020D01*
X1468160Y1742440D02*
X1473160D01*
X1470660Y1739940D02*
Y1744940D01*
X1452920Y1739900D02*
X1457920D01*
X1455420Y1737400D02*
Y1742400D01*
X1440220Y1744980D02*
X1445220D01*
X1442720Y1742480D02*
Y1747480D01*
X1426230Y1746270D02*
X1431230D01*
X1428730Y1743770D02*
Y1748770D01*
X1463337Y1699517D02*
X1468337D01*
X1465837Y1697017D02*
Y1702017D01*
X1518960Y1694180D02*
X1523960D01*
X1521460Y1691680D02*
Y1696680D01*
X1394500Y1587500D02*
X1399500D01*
X1397000Y1585000D02*
Y1590000D01*
X1483400Y1501140D02*
X1488400D01*
X1485900Y1498640D02*
Y1503640D01*
X1536740Y1501140D02*
X1541740D01*
X1539240Y1498640D02*
Y1503640D01*
X1524040Y1506220D02*
X1529040D01*
X1526540Y1503720D02*
Y1508720D01*
X1511340Y1511300D02*
X1516340D01*
X1513840Y1508800D02*
Y1513800D01*
X1498640Y1455420D02*
X1503640D01*
X1501140Y1452920D02*
Y1457920D01*
X1483400Y1457960D02*
X1488400D01*
X1485900Y1455460D02*
Y1460460D01*
X1498640Y1503680D02*
X1503640D01*
X1501140Y1501180D02*
Y1506180D01*
X1524040Y1452880D02*
X1529040D01*
X1526540Y1450380D02*
Y1455380D01*
X1536740Y1457960D02*
X1541740D01*
X1539240Y1455460D02*
Y1460460D01*
X1272733Y1837896D02*
X1277733D01*
X1275233Y1835396D02*
Y1840396D01*
X985560Y1572260D02*
X990560D01*
X988060Y1569760D02*
Y1574760D01*
X975400Y1562100D02*
X980400D01*
X977900Y1559600D02*
Y1564600D01*
X1407200Y1623060D02*
X1412200D01*
X1409700Y1620560D02*
Y1625560D01*
X1511340Y1447800D02*
X1516340D01*
X1513840Y1445300D02*
Y1450300D01*
X1412296Y1593594D02*
X1417296D01*
X1414796Y1591094D02*
Y1596094D01*
X1551980Y1694180D02*
X1556980D01*
X1554480Y1691680D02*
Y1696680D01*
X1470700Y1645920D02*
X1475700D01*
X1473200Y1643420D02*
Y1648420D01*
X1430060Y1681480D02*
X1435060D01*
X1432560Y1678980D02*
Y1683980D01*
X1447840Y1699260D02*
X1452840D01*
X1450340Y1696760D02*
Y1701760D01*
X1478320Y1724660D02*
X1483320D01*
X1480820Y1722160D02*
Y1727160D01*
X1162500Y1385000D02*
X1167500D01*
X1165000Y1382500D02*
Y1387500D01*
X960160Y1193800D02*
X965160D01*
X962660Y1191300D02*
Y1196300D01*
X992500Y1447500D02*
X997500D01*
X995000Y1445000D02*
Y1450000D01*
X1532500Y1147500D02*
X1537500D01*
X1535000Y1145000D02*
Y1150000D01*
X1532500Y1110000D02*
X1537500D01*
X1535000Y1107500D02*
Y1112500D01*
X1322500Y1125000D02*
X1327500D01*
X1325000Y1122500D02*
Y1127500D01*
X990000Y1105000D02*
X995000D01*
X992500Y1102500D02*
Y1107500D01*
X1267500Y1595000D02*
X1272500D01*
X1270000Y1592500D02*
Y1597500D01*
X1294646Y1689799D02*
X1299646D01*
X1297146Y1687299D02*
Y1692299D01*
X1392500Y1742500D02*
X1397500D01*
X1395000Y1740000D02*
Y1745000D01*
X1532500Y1925000D02*
X1537500D01*
X1535000Y1922500D02*
Y1927500D01*
X1724700Y1412240D02*
X1729700D01*
X1727200Y1409740D02*
Y1414740D01*
X1700000Y1355000D02*
X1705000D01*
X1702500Y1352500D02*
Y1357500D01*
X1770000Y1355000D02*
X1775000D01*
X1772500Y1352500D02*
Y1357500D01*
X1735000Y1290000D02*
X1740000D01*
X1737500Y1287500D02*
Y1292500D01*
X1632500Y1255000D02*
X1637500D01*
X1635000Y1252500D02*
Y1257500D01*
X1687500Y1227500D02*
X1692500D01*
X1690000Y1225000D02*
Y1230000D01*
X1772500Y1215000D02*
X1777500D01*
X1775000Y1212500D02*
Y1217500D01*
X1722500Y1162500D02*
X1727500D01*
X1725000Y1160000D02*
Y1165000D01*
X1650000Y1170000D02*
X1655000D01*
X1652500Y1167500D02*
Y1172500D01*
X1690000Y1090000D02*
X1695000D01*
X1692500Y1087500D02*
Y1092500D01*
X1500000Y927500D02*
X1505000D01*
X1502500Y925000D02*
Y930000D01*
X1005000D02*
X1010000D01*
X1007500Y927500D02*
Y932500D01*
X1630000Y1022500D02*
X1635000D01*
X1632500Y1020000D02*
Y1025000D01*
X1507500Y952500D02*
X1512500D01*
X1510000Y950000D02*
Y955000D01*
X1530000Y1015000D02*
X1535000D01*
X1532500Y1012500D02*
Y1017500D01*
X1577500Y1085000D02*
X1582500D01*
X1580000Y1082500D02*
Y1087500D01*
X1595000Y1200000D02*
X1600000D01*
X1597500Y1197500D02*
Y1202500D01*
X1547500Y1252500D02*
X1552500D01*
X1550000Y1250000D02*
Y1255000D01*
X1560000Y1335000D02*
X1565000D01*
X1562500Y1332500D02*
Y1337500D01*
X1648500Y1455420D02*
X1653500D01*
X1651000Y1452920D02*
Y1457920D01*
X1607860Y1452880D02*
X1612860D01*
X1610360Y1450380D02*
Y1455380D01*
X1562140Y1455420D02*
X1567140D01*
X1564640Y1452920D02*
Y1457920D01*
X1487500Y1375000D02*
X1492500D01*
X1490000Y1372500D02*
Y1377500D01*
X1513880Y1330960D02*
X1518880D01*
X1516380Y1328460D02*
Y1333460D01*
X1432500Y1355000D02*
X1437500D01*
X1435000Y1352500D02*
Y1357500D01*
X1370000Y1352500D02*
X1375000D01*
X1372500Y1350000D02*
Y1355000D01*
X1170233Y1309016D02*
X1175233D01*
X1172733Y1306516D02*
Y1311516D01*
X1390000Y1325000D02*
X1395000D01*
X1392500Y1322500D02*
Y1327500D01*
X1320000Y1325000D02*
X1325000D01*
X1322500Y1322500D02*
Y1327500D01*
X1252500Y1325000D02*
X1257500D01*
X1255000Y1322500D02*
Y1327500D01*
X1335000Y1395000D02*
X1340000D01*
X1337500Y1392500D02*
Y1397500D01*
X1225000Y1387500D02*
X1230000D01*
X1227500Y1385000D02*
Y1390000D01*
X1222500Y1447500D02*
X1227500D01*
X1225000Y1445000D02*
Y1450000D01*
X1172500Y1447500D02*
X1177500D01*
X1175000Y1445000D02*
Y1450000D01*
X1005000Y1420000D02*
X1010000D01*
X1007500Y1417500D02*
Y1422500D01*
X1080000Y1445000D02*
X1085000D01*
X1082500Y1442500D02*
Y1447500D01*
X1742480Y1468120D02*
X1747480D01*
X1744980Y1465620D02*
Y1470620D01*
X1768930Y1613770D02*
X1773930D01*
X1771430Y1611270D02*
Y1616270D01*
X1722160Y1534160D02*
X1727160D01*
X1724660Y1531660D02*
Y1536660D01*
X1645000Y1535000D02*
X1650000D01*
X1647500Y1532500D02*
Y1537500D01*
X1540000Y1625000D02*
X1545000D01*
X1542500Y1622500D02*
Y1627500D01*
X1612940Y1739900D02*
X1617940D01*
X1615440Y1737400D02*
Y1742400D01*
X1671230Y1608730D02*
X1676230D01*
X1673730Y1606230D02*
Y1611230D01*
X1666280Y1709420D02*
X1671280D01*
X1668780Y1706920D02*
Y1711920D01*
X1689140Y1780540D02*
X1694140D01*
X1691640Y1778040D02*
Y1783040D01*
X1610000Y1802500D02*
X1615000D01*
X1612500Y1800000D02*
Y1805000D01*
X1545000Y1822500D02*
X1550000D01*
X1547500Y1820000D02*
Y1825000D01*
X1516420Y1767840D02*
X1521420D01*
X1518920Y1765340D02*
Y1770340D01*
X1577500Y1840000D02*
X1582500D01*
X1580000Y1837500D02*
Y1842500D01*
X1532500Y1882500D02*
X1537500D01*
X1535000Y1880000D02*
Y1885000D01*
X1645000Y1847500D02*
X1650000D01*
X1647500Y1845000D02*
Y1850000D01*
X1506260Y1950720D02*
X1511260D01*
X1508760Y1948220D02*
Y1953220D01*
X1277660Y1950720D02*
X1282660D01*
X1280160Y1948220D02*
Y1953220D01*
X1125260Y1950720D02*
X1130260D01*
X1127760Y1948220D02*
Y1953220D01*
X1018580Y1950720D02*
X1023580D01*
X1021080Y1948220D02*
Y1953220D01*
X1485000Y1920000D02*
X1490000D01*
X1487500Y1917500D02*
Y1922500D01*
X1275120Y1874520D02*
X1280120D01*
X1277620Y1872020D02*
Y1877020D01*
X1170980Y1709420D02*
X1175980D01*
X1173480Y1706920D02*
Y1711920D01*
X1148120Y1684020D02*
X1153120D01*
X1150620Y1681520D02*
Y1686520D01*
X1147500Y1660000D02*
X1152500D01*
X1150000Y1657500D02*
Y1662500D01*
X1145000Y1632500D02*
X1150000D01*
X1147500Y1630000D02*
Y1635000D01*
X1095000Y1620000D02*
X1100000D01*
X1097500Y1617500D02*
Y1622500D01*
X1107500Y1572500D02*
X1112500D01*
X1110000Y1570000D02*
Y1575000D01*
X1026200Y1534160D02*
X1031200D01*
X1028700Y1531660D02*
Y1536660D01*
X1061760Y1811020D02*
X1066760D01*
X1064260Y1808520D02*
Y1813520D01*
X1048730Y1786230D02*
X1053730D01*
X1051230Y1783730D02*
Y1788730D01*
X1084620Y1841500D02*
X1089620D01*
X1087120Y1839000D02*
Y1844000D01*
X1170980Y1874520D02*
X1175980D01*
X1173480Y1872020D02*
Y1877020D01*
X1060000Y1892500D02*
X1065000D01*
X1062500Y1890000D02*
Y1895000D01*
X992500Y1912500D02*
X997500D01*
X995000Y1910000D02*
Y1915000D01*
X927140Y1836420D02*
X932140D01*
X929640Y1833920D02*
Y1838920D01*
X1125000Y1207500D02*
X1130000D01*
X1127500Y1205000D02*
Y1210000D01*
X1122500Y1152500D02*
X1127500D01*
X1125000Y1150000D02*
Y1155000D01*
X1072500Y1060000D02*
X1077500D01*
X1075000Y1057500D02*
Y1062500D01*
X1102500Y1060000D02*
X1107500D01*
X1105000Y1057500D02*
Y1062500D01*
X1137500Y1062500D02*
X1142500D01*
X1140000Y1060000D02*
Y1065000D01*
X1167500Y1207500D02*
X1172500D01*
X1170000Y1205000D02*
Y1210000D01*
X1167500Y1150000D02*
X1172500D01*
X1170000Y1147500D02*
Y1152500D01*
X1165000Y1060000D02*
X1170000D01*
X1167500Y1057500D02*
Y1062500D01*
X1200000Y1055000D02*
X1205000D01*
X1202500Y1052500D02*
Y1057500D01*
X1222500Y1077500D02*
X1227500D01*
X1225000Y1075000D02*
Y1080000D01*
X1295000D02*
X1300000D01*
X1297500Y1077500D02*
Y1082500D01*
X1232500Y1142500D02*
X1237500D01*
X1235000Y1140000D02*
Y1145000D01*
X1150000Y1225000D02*
X1155000D01*
X1152500Y1222500D02*
Y1227500D01*
X1112500Y1265000D02*
X1117500D01*
X1115000Y1262500D02*
Y1267500D01*
X1170000Y1242500D02*
X1175000D01*
X1172500Y1240000D02*
Y1245000D01*
X1150000Y1267500D02*
X1155000D01*
X1152500Y1265000D02*
Y1270000D01*
X1272500Y1062500D02*
X1277500D01*
X1275000Y1060000D02*
Y1065000D01*
X1367500Y1110000D02*
X1372500D01*
X1370000Y1107500D02*
Y1112500D01*
X1415000Y1060000D02*
X1420000D01*
X1417500Y1057500D02*
Y1062500D01*
X1510000Y1100000D02*
X1515000D01*
X1512500Y1097500D02*
Y1102500D01*
X1455460Y1145540D02*
X1460460D01*
X1457960Y1143040D02*
Y1148040D01*
X1498640Y1198880D02*
X1503640D01*
X1501140Y1196380D02*
Y1201380D01*
X1462500Y1247500D02*
X1467500D01*
X1465000Y1245000D02*
Y1250000D01*
X1297500Y1230000D02*
X1302500D01*
X1300000Y1227500D02*
Y1232500D01*
X1300000Y1275000D02*
X1305000D01*
X1302500Y1272500D02*
Y1277500D01*
X1402500Y1157500D02*
X1407500D01*
X1405000Y1155000D02*
Y1160000D01*
X1402500Y1270000D02*
X1407500D01*
X1405000Y1267500D02*
Y1272500D01*
X1352500D02*
X1357500D01*
X1355000Y1270000D02*
Y1275000D01*
Y1190000D02*
X1360000D01*
X1357500Y1187500D02*
Y1192500D01*
X1300000Y1177500D02*
X1305000D01*
X1302500Y1175000D02*
Y1180000D01*
X1247500Y1245000D02*
X1252500D01*
X1250000Y1242500D02*
Y1247500D01*
X1012500Y1235000D02*
X1017500D01*
X1015000Y1232500D02*
Y1237500D01*
X1060000Y1182500D02*
X1065000D01*
X1062500Y1180000D02*
Y1185000D01*
X952500Y1055000D02*
X957500D01*
X955000Y1052500D02*
Y1057500D01*
X941270Y1108770D02*
X946270D01*
X943770Y1106270D02*
Y1111270D01*
X846924Y1107287D02*
X851924D01*
X849424Y1104787D02*
Y1109787D01*
X787500Y1167500D02*
X792500D01*
X790000Y1165000D02*
Y1170000D01*
X858560Y1193800D02*
X863560D01*
X861060Y1191300D02*
Y1196300D01*
X901740Y1153160D02*
X906740D01*
X904240Y1150660D02*
Y1155660D01*
X1010000Y1155000D02*
X1015000D01*
X1012500Y1152500D02*
Y1157500D01*
X1065000Y1255000D02*
X1070000D01*
X1067500Y1252500D02*
Y1257500D01*
X1361480Y1645920D02*
X1366480D01*
X1363980Y1643420D02*
Y1648420D01*
X1302500Y1610000D02*
X1307500D01*
X1305000Y1607500D02*
Y1612500D01*
X1390000Y1687500D02*
X1395000D01*
X1392500Y1685000D02*
Y1690000D01*
X1407500Y1657500D02*
X1412500D01*
X1410000Y1655000D02*
Y1660000D01*
X1348730Y1676230D02*
X1353730D01*
X1351230Y1673730D02*
Y1678730D01*
X1387500Y1710000D02*
X1392500D01*
X1390000Y1707500D02*
Y1712500D01*
X1487500Y1540000D02*
X1492500D01*
X1490000Y1537500D02*
Y1542500D01*
X1207476Y1201406D02*
X1212476D01*
X1209976Y1198906D02*
Y1203906D01*
X995000Y1372500D02*
X1000000D01*
X997500Y1370000D02*
Y1375000D01*
X1231940Y1493520D02*
X1236940D01*
X1234440Y1491020D02*
Y1496020D01*
X1460540Y1430020D02*
X1465540D01*
X1463040Y1427520D02*
Y1432520D01*
X1303060Y1724660D02*
X1308060D01*
X1305560Y1722160D02*
Y1727160D01*
X1315760Y1719580D02*
X1320760D01*
X1318260Y1717080D02*
Y1722080D01*
X1295440Y1709420D02*
X1300440D01*
X1297940Y1706920D02*
Y1711920D01*
X1191300Y1125220D02*
X1196300D01*
X1193800Y1122720D02*
Y1127720D01*
X1612940Y1313180D02*
X1617940D01*
X1615440Y1310680D02*
Y1315680D01*
X1508800Y1684020D02*
X1513800D01*
X1511300Y1681520D02*
Y1686520D01*
X1518960Y1267460D02*
X1523960D01*
X1521460Y1264960D02*
Y1269960D01*
X1671360Y1534160D02*
X1676360D01*
X1673860Y1531660D02*
Y1536660D01*
X1442760Y1407160D02*
X1447760D01*
X1445260Y1404660D02*
Y1409660D01*
X1331000Y1623060D02*
X1336000D01*
X1333500Y1620560D02*
Y1625560D01*
X1344200Y1566680D02*
X1349200D01*
X1346700Y1564180D02*
Y1569180D01*
X1366560Y1625600D02*
X1371560D01*
X1369060Y1623100D02*
Y1628100D01*
X1399580Y1610360D02*
X1404580D01*
X1402080Y1607860D02*
Y1612860D01*
X1455460Y1602930D02*
X1460460D01*
X1457960Y1600430D02*
Y1605430D01*
X1483400Y1562100D02*
X1488400D01*
X1485900Y1559600D02*
Y1564600D01*
X1440220Y1567180D02*
X1445220D01*
X1442720Y1564680D02*
Y1569680D01*
X1384340Y1374140D02*
X1389340D01*
X1386840Y1371640D02*
Y1376640D01*
X1168440Y1574800D02*
X1173440D01*
X1170940Y1572300D02*
Y1577300D01*
X1257340Y1584960D02*
X1262340D01*
X1259840Y1582460D02*
Y1587460D01*
X1160820Y1557020D02*
X1165820D01*
X1163320Y1554520D02*
Y1559520D01*
X1545405Y1929355D02*
X1550405D01*
X1547905Y1926855D02*
Y1931855D01*
X1473240Y1689100D02*
X1478240D01*
X1475740Y1686600D02*
Y1691600D01*
X1625640Y1841500D02*
X1630640D01*
X1628140Y1839000D02*
Y1844000D01*
X1323380Y1689100D02*
X1328380D01*
X1325880Y1686600D02*
Y1691600D01*
X1331000Y1646110D02*
X1336000D01*
X1333500Y1643610D02*
Y1648610D01*
X1325920Y1737360D02*
X1330920D01*
X1328420Y1734860D02*
Y1739860D01*
X1259880Y1831340D02*
X1264880D01*
X1262380Y1828840D02*
Y1833840D01*
X1088644Y1871980D02*
X1095756D01*
X1092200Y1868424D02*
Y1875536D01*
X1385402Y1657020D02*
X1392514D01*
X1388958Y1653464D02*
Y1660576D01*
X1198944Y1107500D02*
X1206056D01*
X1202500Y1103944D02*
Y1111056D01*
X1221444Y1095000D02*
X1228556D01*
X1225000Y1091444D02*
Y1098556D01*
X1043944Y1075000D02*
X1051056D01*
X1047500Y1071444D02*
Y1078556D01*
X1016444Y1065000D02*
X1023556D01*
X1020000Y1061444D02*
Y1068556D01*
X1071444Y1085000D02*
X1078556D01*
X1075000Y1081444D02*
Y1088556D01*
X877760Y1060360D02*
X912760D01*
X895260Y1042860D02*
Y1077860D01*
X1630760Y1813360D02*
X1665760D01*
X1648260Y1795860D02*
Y1830860D01*
X877760Y1813360D02*
X912760D01*
X895260Y1795860D02*
Y1830860D01*
M02*
