M48
;Layer_Color=9474304
;FILE_FORMAT=4:4
METRIC,TZ
;TYPE=PLATED
T1F00S00C0.5000
T2F00S00C0.7112
T3F00S00C0.7590
T4F00S00C0.7620
T5F00S00C0.7800
T6F00S00C0.9144
T7F00S00C1.0400
T8F00S00C1.1000
T9F00S00C1.2000
T10F00S00C1.3600
T11F00S00C1.5000
T12F00S00C3.5000
%
T01
X790000Y1167500
X849424Y1107287
X943770Y1108770
X992500Y1105000
X1012500Y1155000
X1062500Y1182500
X1125000Y1152500
X1170000Y1150000
X1167500Y1060000
X1140000Y1062500
X1105000Y1060000
X1075000
X1054100Y998220
X1007500Y930000
X955000Y1055000
X904240Y1153160
X1193800Y1125220
X1235000Y1142500
X1225000Y1077500
X1202500Y1055000
X1275000Y1062500
X1297500Y1080000
X1325000Y1125000
X1370000Y1110000
X1405000Y1157500
X1457960Y1145540
X1535000Y1147500
Y1110000
X1512500Y1100000
X1580000Y1085000
X1532500Y1015000
X1510000Y952500
X1502500Y927500
X1417500Y1060000
X1357500Y1190000
X1302500Y1177500
X1652500Y1170000
X1725000Y1162500
X1692500Y1090000
X1632500Y1022500
X1597500Y1200000
X1635000Y1255000
X1615440Y1313180
X1702500Y1355000
X1772500
X1737500Y1290000
X1690000Y1227500
X1775000Y1215000
X1727200Y1412240
X1699260Y1457960
X1651000Y1455420
X1610360Y1452880
X1647500Y1535000
X1673860Y1534160
X1699260
X1724660
X1772920Y1531620
X1744980Y1468120
X1691640Y1579880
X1673860Y1582420
X1485900Y1562100
X1490000Y1540000
X1485900Y1501140
X1501140Y1503680
X1513840Y1511300
X1526540Y1506220
X1539240Y1501140
Y1457960
X1526540Y1452880
X1513840Y1447800
X1501140Y1455420
X1485900Y1457960
X1476265Y1439633
X1463040Y1430020
X1445260Y1407160
X1435000Y1355000
X1372500Y1352500
X1386840Y1374140
X1392500Y1325000
X1405000Y1270000
X1355000Y1272500
X1302500Y1275000
X1300000Y1230000
X1250000Y1245000
X1209976Y1201406
X1255000Y1325000
X1270000Y1346200
X1322500Y1325000
X1337500Y1395000
X1338450Y1436150
X1325880Y1440180
X1313180Y1445260
X1300480Y1450340
X1285240Y1432560
X1225000Y1447500
X1226528Y1475641
X1234440Y1493520
X1272540Y1524000
X1285240Y1529080
X1290320Y1546860
X1280160Y1559560
X1264920
X1256543Y1572323
X1259840Y1584960
X1224280Y1582420
X1262380Y1536700
X1341120Y1531620
X1351290Y1523486
X1346163Y1506070
X1379220Y1511300
X1397000Y1478280
X1399540Y1452880
Y1427480
X1374140Y1430020
X1358900Y1463040
X1346700Y1566680
X1333500Y1569720
X1320514Y1569082
X1373279Y1576260
X1442720Y1567180
X1564640Y1455420
X1562500Y1335000
X1516380Y1330960
X1511810Y1347500
X1490000Y1375000
X1521460Y1267460
X1550000Y1252500
X1465000Y1247500
X1501140Y1198880
X1227500Y1387500
X1165000Y1385000
X1175000Y1447500
X1150620Y1485900
X1163320Y1557020
X1170940Y1574800
X1110000Y1572500
X1104900Y1534160
X1028700
X1034897Y1559750
X1008380Y1567180
X988060Y1572260
X977900Y1562100
X967740Y1544320
X980440Y1524000
X911860Y1521460
X937260Y1559560
X838200Y1569720
X995000Y1447500
X1008380Y1445260
X1007500Y1420000
X1040324Y1425173
X1055324
X1069340Y1424940
X1082500Y1445000
X1038770Y1478770
X997500Y1372500
X962660Y1330960
Y1247140
Y1193800
X993140Y1211580
X1015000Y1235000
X1067500Y1255000
X1115000Y1265000
X1152500Y1267500
Y1225000
X1170000Y1207500
X1172500Y1242500
X1172733Y1309016
X1127500Y1207500
X861060Y1193800
X789940Y1437640
X787400Y1582420
X784860Y1717040
X802640Y1656080
X845820Y1691640
X859534Y1795764
X929640Y1836420
X1000760Y1838960
X1037590Y1850390
X1087120Y1841500
X1064260Y1811020
X1051230Y1786230
X1043750Y1770380
X998220Y1757680
Y1727200
X977900Y1701800
X957580Y1747520
X998220Y1643380
Y1617980
X1018540Y1592580
X1097500Y1620000
X1147500Y1632500
X1150000Y1660000
X1150620Y1684020
X1173480Y1709420
X1163320Y1734820
X1143000
X1183640Y1744980
Y1607820
X1173480Y1874520
X1127760Y1950720
X1021080
X995000Y1912500
X1062500Y1892500
X1214120Y1894840
X1216660Y1877060
X1234440Y1892300
X1277620Y1874520
X1285240Y1849120
X1275233Y1837896
X1262380Y1831340
X1209040Y1818640
X1318260Y1747520
X1328420Y1737360
X1342580Y1730601
X1356360Y1744980
X1395000Y1742500
X1428730Y1746270
X1442720Y1744980
X1455420Y1739900
X1470660Y1742440
Y1714500
X1465837Y1699517
X1450340Y1699260
X1432560Y1681480
X1392500Y1687500
X1390000Y1710000
X1328420Y1709420
X1318260Y1719580
X1305560Y1724660
X1297940Y1709420
X1297146Y1689799
X1303036Y1675386
X1315720Y1671320
X1318413Y1652476
X1303020Y1651000
X1333500Y1646110
Y1623060
X1330960Y1592580
X1374140
X1397000Y1587500
X1414796Y1593594
X1402080Y1610360
X1409700Y1623060
X1410000Y1657500
X1440180Y1640840
X1473200Y1645920
X1475740Y1610360
X1457960Y1602930
X1475740Y1689100
X1480820Y1724660
X1498790Y1762760
X1518920Y1767840
X1549400Y1762760
X1534160Y1805940
X1547500Y1822500
X1580000Y1840000
X1535000Y1882500
Y1925000
X1547905Y1929355
X1508760Y1950720
X1487500Y1920000
X1430020Y1902460
X1280160Y1950720
X1325880Y1689100
X1351230Y1676230
X1363980Y1645920
X1369060Y1625600
X1305000Y1610000
X1268909Y1620520
X1257300Y1612900
X1256045Y1597500
X1270000Y1595000
X1542500Y1625000
X1554480Y1694180
X1521460
X1511300Y1684020
X1615440Y1739900
X1612500Y1802500
X1592580Y1805940
X1628140Y1841500
X1647500Y1847500
X1691640Y1780540
X1668780Y1709420
X1673730Y1608730
X1771430Y1613770
X1778000Y1706880
T02
X1020000Y1065000
X1047500Y1075000
X1075000Y1085000
X1202500Y1107500
X1225000Y1095000
X1092200Y1871980
X975360Y1838960
X1388958Y1657020
T03
X848360Y1265390
X873760
X899160
X924560
Y1343490
X899160
X873760
X848360
T04
X931800Y1396800
X939800Y1447800
T05
X810260Y1539240
X835660
X861060
Y1628140
X835660
X810260
T06
X1195500Y1362500
X1220900
X1246300
X1271700
X1297100
X1322500
X1347900
X1170100
X1112900Y1357500
X1087500
X1062100
X1036700
X1011300
T07
X1015480Y1036320
X1040880
X1066280
X1091680
X1117080
X1142480
X1167880
X1193280
X1218680
X1244080
X1269480
X1294880
X1320280
X1345680
X1371080
X1396480
X1421880
X1447280
X1472680
Y1290320
X1447280
X1421880
X1396480
X1371080
X1345680
X1320280
X1294880
X1269480
X1244080
X1218680
X1193280
X1167880
X1142480
X1117080
X1091680
X1066280
X1040880
X1015480
T08
X983341Y985159
X965380Y1003120
X947420Y1021080
X1082040Y985520
X1107440
X1132840
X1158240
X1183640
Y939800
X1158240
X1132840
X1107440
X1209040
X1234440
X1259840
X1285240
X1310640
X1336040
X1361440
X1386840
X1412240
X1437640
Y985520
X1463040
X1412240
X1386840
X1361440
X1336040
X1310640
X1285240
X1259840
X1234440
X1209040
X1559199Y982619
X1577160Y1000580
X1595120Y1018540
X1610360Y1508760
X1635760
X1661160
X1686560
X1711960
X1737360
X1724660Y1569720
X1648460
X1572260
X1559560Y1508760
X1584960
X1574800Y1397000
X1549400
X1524000
X1325880Y1508760
X1300480
X1219200
X1193800
X1206500Y1569720
X1130300
X1143000Y1508760
X1168400
X1117600
X1092200
X1066800
X1041400
X1054100Y1569720
Y1595120
Y1620520
Y1645920
Y1671320
Y1696720
Y1722120
Y1747520
X1130300
Y1722120
Y1696720
Y1671320
Y1645920
Y1620520
Y1595120
X962660Y1587500
Y1612900
Y1638300
X932180
Y1612900
Y1587500
X934720Y1724660
Y1750060
X909320
X883920
X858520
X833120
Y1724660
X858520
X883920
X909320
X944880Y1854200
X962840Y1872160
X980801Y1890121
X1016000Y1920240
X1041400
X1066800
X1092200
X1117600
X1143000
X1168400
Y1821180
X1143000
X1117600
X1092200
X1206500Y1747520
Y1722120
Y1696720
Y1671320
Y1645920
Y1620520
Y1595120
X1300480Y1821180
X1325880
X1351280
X1376680
X1402080
X1427480
X1452880
X1478280
Y1874520
X1452880
X1427480
X1402080
X1376680
X1351280
X1325880
X1300480
X1325880Y1920240
X1351280
X1376680
X1402080
X1427480
X1452880
X1561739Y1890121
X1579700Y1872160
X1572260Y1747520
Y1722120
Y1696720
Y1671320
Y1645920
Y1620520
Y1595120
X1219200Y1920240
X1193800
X1597660Y1854200
X1648460Y1747520
Y1722120
Y1696720
Y1671320
Y1645920
Y1620520
Y1595120
X1724660
Y1620520
Y1645920
Y1671320
Y1696720
Y1722120
Y1747520
T09
X1670000Y1124500
Y1324500
T10
X784860Y1266340
Y1291740
Y1317140
T11
X858520Y1416080
Y1454180
T12
X895260Y1060360
X1648260
X895260Y1813360
X1648260
M30
