G04*
G04 #@! TF.GenerationSoftware,Altium Limited,Altium Designer,23.8.1 (32)*
G04*
G04 Layer_Color=32896*
%FSLAX44Y44*%
%MOMM*%
G71*
G04*
G04 #@! TF.SameCoordinates,0CA1B05D-E12B-4C76-85DA-CFDCD28D9C68*
G04*
G04*
G04 #@! TF.FilePolarity,Positive*
G04*
G01*
G75*
%ADD10C,0.2540*%
%ADD11C,0.2000*%
%ADD67C,1.2700*%
D10*
X204896Y67312D02*
X211667D01*
X204896Y74083D01*
Y75776D01*
X206589Y77468D01*
X209974D01*
X211667Y75776D01*
X215053D02*
X216746Y77468D01*
X220131D01*
X221824Y75776D01*
Y69004D01*
X220131Y67312D01*
X216746D01*
X215053Y69004D01*
X278977D02*
Y67312D01*
Y69004D02*
X272206Y75776D01*
Y77468D01*
X278977D01*
X282363Y75776D02*
X284056Y77468D01*
X287441D01*
X289134Y75776D01*
Y69004D01*
X287441Y67312D01*
X284056D01*
X282363Y69004D01*
X309036Y215054D02*
X310729Y213362D01*
X314114D01*
X315807Y215054D01*
X319193D02*
X320886Y213362D01*
X324271D01*
X325964Y215054D01*
Y221826D01*
X324271Y223518D01*
X320886D01*
X319193Y221826D01*
X315807D02*
X314114Y223518D01*
X310729D01*
X309036Y221826D01*
Y220133D01*
X310729Y218440D01*
X312422D01*
X310729D01*
X309036Y216747D01*
Y215054D01*
Y274744D02*
X310729Y273052D01*
X314114D01*
X315807Y274744D01*
Y276437D01*
X314114Y278130D01*
X315807Y279823D01*
Y281516D01*
X314114Y283208D01*
X310729D01*
X309036Y281516D01*
Y279823D01*
X310729Y278130D01*
X309036Y276437D01*
Y274744D01*
X310729Y278130D02*
X314114D01*
X319193Y274744D02*
X320886Y273052D01*
X324271D01*
X325964Y274744D01*
Y281516D01*
X324271Y283208D01*
X320886D01*
X319193Y281516D01*
X169754Y317924D02*
X168061Y316232D01*
X164676D01*
X162983Y317924D01*
X159597D02*
X157904Y316232D01*
X154519D01*
X152826Y317924D01*
Y324696D01*
X154519Y326388D01*
X157904D01*
X159597Y324696D01*
Y323003D01*
X157904Y321310D01*
X152826D01*
X162983Y324696D02*
X164676Y326388D01*
X168061D01*
X169754Y324696D01*
Y317924D01*
X104563Y211666D02*
X106256Y213358D01*
X109641D01*
X111334Y211666D01*
Y204894D01*
X109641Y203202D01*
X106256D01*
X104563Y204894D01*
X101177D02*
X99484Y203202D01*
X96099D01*
X94406Y204894D01*
Y208280D01*
X96099Y209973D01*
X97792D01*
X101177Y208280D01*
Y213358D01*
X94406D01*
X96100Y185418D02*
X97792Y183726D01*
X96100Y185418D02*
Y175262D01*
X94407D01*
X97792D01*
X102871D02*
X104564D01*
Y185418D01*
X106256Y183726D01*
X109642D02*
X111335Y185418D01*
X114720D01*
X116413Y183726D01*
Y176954D01*
X114720Y175262D01*
X111335D01*
X109642Y176954D01*
X106256Y175262D02*
X102871D01*
X83393Y143508D02*
X85086Y141816D01*
Y135044D01*
X83393Y133352D01*
X80007D01*
X78315Y135044D01*
X74929Y133352D02*
X71544D01*
X73236D01*
Y143508D01*
X74929Y141816D01*
X78315D02*
X80007Y143508D01*
X83393D01*
X66465Y141816D02*
X64772Y143508D01*
X61387D01*
X59694Y141816D01*
Y135044D01*
X61387Y133352D01*
X64772D01*
X66465Y135044D01*
Y141816D01*
X105836Y76198D02*
X109222Y74506D01*
X112607Y71120D01*
Y67734D01*
X110914Y66042D01*
X107529D01*
X105836Y67734D01*
Y69427D01*
X107529Y71120D01*
X112607D01*
X115993Y67734D02*
X117686Y66042D01*
X121071D01*
X122764Y67734D01*
Y74506D01*
X121071Y76198D01*
X117686D01*
X115993Y74506D01*
D11*
X146660Y55660D02*
Y91660D01*
X127660D01*
Y55660D01*
X146660D01*
X226720Y54550D02*
Y90550D01*
X245720D01*
Y54550D01*
X226720D01*
X248310Y54390D02*
X267310D01*
Y90390D01*
X248310D01*
Y54390D01*
X90390Y189840D02*
X54390D01*
Y170840D01*
X90390D01*
Y189840D01*
Y198780D02*
Y217780D01*
X54390D01*
Y198780D01*
X90390D01*
Y166980D02*
X54390D01*
Y147980D01*
X90390D01*
Y166980D01*
X147930Y303310D02*
Y339310D01*
X128930D01*
Y303310D01*
X147930D01*
X299500Y249580D02*
X335500D01*
Y268580D01*
X299500D01*
Y249580D01*
Y246990D02*
X335500D01*
Y227990D01*
X299500D01*
Y246990D01*
D67*
X-482257Y-194593D02*
X-466076Y-210774D01*
X-482257Y-194593D02*
Y-143622D01*
X-449580Y-110945D01*
Y-61180D01*
X-459960Y-50800D01*
X-461520D01*
X-421640Y-15240D02*
Y-135570D01*
X-424975Y-138905D01*
X-421640Y-15240D02*
X-446730Y9850D01*
Y29210D01*
X-481330Y10706D02*
Y95250D01*
X-473351Y103229D01*
M02*
