G04*
G04 #@! TF.GenerationSoftware,Altium Limited,Altium Designer,22.10.1 (41)*
G04*
G04 Layer_Color=32896*
%FSLAX44Y44*%
%MOMM*%
G71*
G04*
G04 #@! TF.SameCoordinates,86A63571-8FB3-4636-807C-F47AD7162A4A*
G04*
G04*
G04 #@! TF.FilePolarity,Positive*
G04*
G01*
G75*
%ADD12C,0.2540*%
%ADD13C,0.2000*%
D12*
X1223431Y1325882D02*
Y1336038D01*
X1218353D01*
X1216660Y1334346D01*
Y1330960D01*
X1218353Y1329267D01*
X1223431D01*
X1220046D02*
X1216660Y1325882D01*
X1213274D02*
X1209889D01*
X1211582D01*
Y1336038D01*
X1213274Y1334346D01*
X1464733Y1369906D02*
X1466426Y1371598D01*
X1469811D01*
X1471504Y1369906D01*
Y1363134D01*
X1469811Y1361442D01*
X1466426D01*
X1464733Y1363134D01*
X1461347Y1369906D02*
X1459654Y1371598D01*
X1456269D01*
X1454576Y1369906D01*
Y1368213D01*
X1456269Y1366520D01*
X1454576Y1364827D01*
Y1363134D01*
X1456269Y1361442D01*
X1459654D01*
X1461347Y1363134D01*
Y1364827D01*
X1459654Y1366520D01*
X1461347Y1368213D01*
Y1369906D01*
X1459654Y1366520D02*
X1456269D01*
X1431712Y1453726D02*
X1433405Y1455418D01*
X1436790D01*
X1438483Y1453726D01*
Y1446954D01*
X1436790Y1445262D01*
X1433405D01*
X1431712Y1446954D01*
X1428326Y1445262D02*
X1424941D01*
X1426634D01*
Y1455418D01*
X1428326Y1453726D01*
X1419862Y1445262D02*
X1416477D01*
X1418170D01*
Y1455418D01*
X1419862Y1453726D01*
X1166706Y1425787D02*
X1168398Y1424094D01*
Y1420709D01*
X1166706Y1419016D01*
X1159934D01*
X1158242Y1420709D01*
Y1424094D01*
X1159934Y1425787D01*
X1158242Y1435944D02*
Y1429173D01*
X1165013Y1435944D01*
X1166706D01*
X1168398Y1434251D01*
Y1430866D01*
X1166706Y1429173D01*
D13*
X1176470Y1338710D02*
X1200970D01*
X1176470Y1323210D02*
X1200970D01*
X1172720Y1338710D02*
X1176470D01*
X1172720Y1323210D02*
Y1338710D01*
Y1323210D02*
X1176470D01*
X1200970Y1338710D02*
X1204720D01*
Y1323210D02*
Y1338710D01*
X1200970Y1323210D02*
X1204720D01*
X1409480Y1480160D02*
X1445480D01*
X1409480Y1461160D02*
Y1480160D01*
X1445480Y1461160D02*
Y1480160D01*
X1409480Y1461160D02*
X1445480D01*
X1444500Y1357000D02*
X1480500D01*
X1444500Y1338000D02*
Y1357000D01*
X1480500Y1338000D02*
Y1357000D01*
X1444500Y1338000D02*
X1480500D01*
X1133000Y1409500D02*
Y1445500D01*
Y1409500D02*
X1152000D01*
X1133000Y1445500D02*
X1152000D01*
Y1409500D02*
Y1445500D01*
M02*
