M48
;Layer_Color=9474304
;FILE_FORMAT=4:4
METRIC,TZ
;TYPE=PLATED
T01F00S00C0.4000
T02F00S00C0.5000
T05F00S00C0.7112
T06F00S00C0.7590
T07F00S00C0.7620
T08F00S00C0.9400
T09F00S00C1.0400
T10F00S00C1.1000
T11F00S00C1.2000
T12F00S00C1.3600
T13F00S00C2.7000
T14F00S00C3.5000
%
T01
X806660Y1638920
Y1646920
Y1654920
X813660Y1650920
Y1658920
Y1666920
Y1674920
X806660Y1678920
Y1670920
Y1686920
X813660Y1690920
Y1634920
T02
X913620Y1022840
X941560Y1055860
X952990Y1095230
X912350Y1099040
X928860Y1129520
Y1163810
X979660Y1152380
X1015220Y1161270
X1059670Y1168890
X1082530Y1143490
X1041890Y1134600
Y1095230
X1072370Y1069830
X1093960Y1086340
X1106660Y1105390
X1113522Y1116442
X1119360Y1128058
X1146030Y1143490
X1180320Y1126980
Y1111740
Y1096500
Y1074910
X1144760Y1081260
X1115550Y1064750
X1016490Y1062210
X986010Y1071100
X988550Y1033000
X1017760Y1008870
X1036810Y970770
X1043160Y933940
X1002520Y955530
X861550Y1083800
X883140Y1121900
X823450Y1119360
X855200Y1160000
X803130Y1176510
X1106660Y1175240
X1176510Y1176510
X1191750Y1143490
X1222230
X1259060
X1297160
X1322560
X1347960
X1372090Y1144760
X1398760
X1424160
X1466070Y1139680
X1464800Y1105390
X1479528Y1104753
X1501630Y1107930
X1535920Y1102850
X1543540Y1060940
X1575290Y1083800
X1574020Y1132060
X1571480Y1181590
X1537190Y1153650
X1496550Y1154920
X1459720Y1177780
X1466373Y1089183
X1457180Y1079990
X1424160Y1085070
X1398760
X1373360
X1347960Y1082530
X1322560Y1079990
X1295890
X1257790
X1219690Y1081260
X1251440Y1025380
X1220960Y1184130
X1462260Y1021570
X1480099Y1015996
X1492740Y1019030
X1505352Y1022183
X1515600Y1007600
X1491470Y970770
X1515600Y932670
X1552430Y952990
X1563860Y1025380
X1617200Y1034270
X1614660Y1081260
X1627360Y1116820
X1612120Y1167620
X1690860Y1170160
X1694670Y1100310
X1744200Y1148570
X1734040Y1200640
X1749280Y1250170
X1761980Y1306050
X1751820Y1364470
X1748010Y1410190
X1740390Y1453370
X1703560Y1430510
X1709910Y1388600
X1671810Y1398760
X1659110Y1407650
X1675620Y1359390
X1637520Y1333990
X1652760Y1274300
X1607040Y1288270
X1614660Y1213340
X1654030Y1203180
X1697210Y1231120
X1711180Y1287000
X1720070Y1340340
X1714990Y1490200
X1728960Y1520680
X1689590Y1513060
X1643870Y1510520
X1600880Y1492740
X1676890Y1472420
X1772140Y1528300
X1774680Y1581640
X1744200Y1557510
X1537190Y1538460
X1519674Y1539994
X1491500Y1524490
X1471150Y1494010
X1457180Y1435590
X1444480Y1447020
X1419080
X1422890Y1408920
Y1375710
X1425430Y1347960
X1374630Y1341610
X1355580Y1313670
X1322560Y1294620
X1321290Y1331450
X1320020Y1387330
X1309867Y1414645
X1322560Y1447020
X1333990Y1458450
X1352850Y1462260
X1351770Y1441940
X1336530Y1480040
X1289288Y1479598
X1279380Y1471150
X1290810Y1458450
X1266680Y1459720
X1236200Y1447020
X1234930Y1415270
X1251440Y1426700
X1259060Y1379710
X1279380Y1370820
X1276840Y1313670
X1245090
X1209530Y1307320
X1210415Y1323830
X1220960Y1333990
X1193020Y1312400
X1218420Y1255250
X1222230Y1231120
X1246360Y1248900
X1257790Y1206990
X1294620Y1195560
X1322560
X1347960Y1196830
X1374630Y1203180
X1400030Y1217150
X1398760Y1251440
X1373360Y1243820
X1349230
X1323830
X1295890Y1245090
X1424160Y1242550
X1457180Y1226040
X1495280Y1201910
X1543540Y1203180
X1525760Y1232390
X1527030Y1274300
X1565130Y1271760
X1574020Y1231120
X1570210Y1331005
X1568940Y1360660
X1586720Y1435590
X1566210Y1492740
X1506643Y1573533
X1506931Y1586530
X1478770Y1586720
X1449863Y1583878
X1425430Y1575290
X1408920Y1541000
X1394950
X1386060Y1552430
X1365740Y1548620
X1373360Y1523989
X1386999Y1523410
X1325100Y1533380
X1318750Y1515600
X1308590Y1524490
X1303907Y1506313
X1289540Y1515600
X1280650Y1533380
X1269220Y1524490
X1261790Y1558590
X1279380Y1584180
X1332720Y1558780
X1198100Y1563860
X1195560Y1533380
X1191750Y1476230
X1232390Y1477500
X1383520Y1411460
X1397490Y1299700
X1474960Y1333990
X1472420Y1365740
X1196830Y1204450
X1186670Y1246360
X1146030Y1243820
X1153650Y1222230
X1148570Y1199370
X1081260Y1205720
Y1250170
X1106660Y1237470
X1044430
X1031730Y1195560
X984740Y1196830
X932670Y1226040
X900920Y1214610
X894570Y1266680
X930130Y1281920
X947910Y1340340
X928860Y1382250
X890760Y1391140
X897110Y1354310
X866630Y1342880
X864090Y1416540
X898380Y1441940
X980930Y1467340
X968230Y1501630
X1012680Y1500360
X1040620Y1527030
X1066020Y1546080
X1049510Y1584180
X1022840Y1560050
X987280Y1576560
X961880Y1557510
X991090Y1533380
X904730Y1553700
X824720Y1529570
X794240Y1330180
X812020Y1241280
X1013950Y1271760
X1031730Y1326370
X1076180Y1316210
X1116820Y1311130
X1158730Y1322560
X1147300Y1391140
Y1424160
X1182860Y1419080
X1157460Y1454640
X1132060Y1463530
X1106660
X1093960Y1455910
X1081260Y1463956
X1062210Y1464800
X1034270Y1435590
X1015220Y1397490
X1012680Y1367010
X1093960Y1375900
X1119360Y1407650
Y1444480
X1123170Y1509250
X1140950Y1507980
X1158730Y1509250
X1179050
X1187940Y1520680
X1172700Y1552430
X1177780Y1577830
X1096500Y1509250
X1064750Y1406380
X772650Y1485120
X762490Y1529570
X782810Y1570210
X767570Y1274300
Y1218420
X765030Y1637520
X759950Y1665460
X786620Y1670540
X785077Y1651555
X776460Y1692130
X789160Y1737850
X837420Y1734040
X845040Y1707370
X832340Y1702290
X865360Y1709910
Y1689504
X862652Y1670350
X869096Y1659059
X845805Y1659015
X852660Y1679430
X855010Y1633710
X846310Y1623550
X875520Y1621010
X905081Y1620091
X904730Y1640060
X903460Y1664710
X899650Y1677139
X950450Y1673080
Y1632440
Y1713720
Y1754360
X904730Y1746930
X911151Y1781101
X946640Y1816590
X993630Y1819130
X988550Y1784840
X1025380Y1793730
X1026650Y1735310
X1059670Y1725150
X1098200Y1718510
X1106660Y1708640
X1109200Y1694670
X1113010Y1669270
X1088880Y1640060
X1053320Y1626090
X1021570Y1643870
X1017760Y1608310
X1115550Y1614660
X1147300Y1589260
X1177780Y1610850
Y1641330
X1148570Y1640060
X1151110Y1685780
X1148570Y1713720
X1166518Y1711771
X1180320Y1712450
X1161270Y1727690
X1151110Y1736580
X1146030Y1750550
X1147300Y1783570
X1146030Y1812780
X1153650Y1841990
X1114280Y1849610
X1090150Y1873740
Y1825480
X1110470Y1798810
X1106660Y1773410
X1118090Y1767060
X1092690Y1769600
X1077450Y1767060
X1086340Y1704830
X1186670Y1676890
Y1928350
X1113010Y1904220
X1044430Y1900410
X1008870Y1924540
X988550Y1854690
X911080Y1852150
X860280Y1810240
X825990Y1774680
X794240Y1632440
X900920Y1590530
X1198100Y1594340
X1195560Y1642600
X1194290Y1688320
X1273030Y1685780
X1266680Y1660380
X1280650Y1634980
X1264140Y1609580
X1325100Y1660380
X1338885Y1660865
X1363230Y1667170
X1372087Y1657654
X1408478Y1655140
X1417810Y1664190
Y1680700
X1410190Y1694670
Y1727500
X1393680
X1383520Y1716260
X1363271Y1703490
X1361599Y1727500
X1344150Y1712450
X1335260Y1736390
X1337800Y1778680
X1304780Y1782300
X1294620Y1793730
X1281920Y1779950
X1252738Y1783125
X1232390Y1786110
X1234930Y1811510
X1252710Y1808970
X1253980Y1830560
X1284460Y1833100
X1280650Y1855960
X1260330Y1885170
X1234930Y1867390
X1199370Y1821670
X1320020Y1828210
X1328910Y1839450
X1354310Y1800080
X1331450Y1927080
X1491470Y1902950
X1532110Y1918190
X1574020Y1911840
X1529570Y1857230
X1544810Y1813860
X1551160Y1759440
X1535766Y1739090
X1504782
X1494010Y1764520
X1519909Y1768497
X1519227Y1698664
X1505450Y1696930
X1497820Y1685780
X1474960Y1690860
X1480040Y1671810
X1462260Y1675620
X1450830Y1698480
X1445750Y1652760
X1463530Y1636250
X1412730Y1638790
X1408920Y1621010
X1370689Y1602130
X1369347Y1589262
X1440670Y1593070
X1494010Y1587990
X1514330Y1650220
X1515600Y1664190
X1533380Y1660380
X1529570Y1679430
X1563874Y1684048
X1564176Y1699833
X1573567Y1712440
X1576551Y1726468
X1562590Y1725150
X1570210Y1645140
X1595647Y1626093
X1607040Y1727690
X1628188Y1746298
X1621010Y1779760
X1596880Y1787380
X1599420Y1800130
X1587990Y1777220
X1610850Y1824210
X1632440Y1855960
X1671810Y1765790
X1670540Y1739120
X1736580Y1736580
X1708640Y1770870
X1770870Y1693400
X1772140Y1636250
X1741660Y1661650
X1735310Y1610850
T05
X1217150Y1401300
X1444480Y1297160
X1038080Y1311130
T06
X872030Y1204450
Y1229850
Y1255250
Y1280650
X950130
Y1255250
Y1229850
Y1204450
T07
X879230Y1557700
X930230Y1549700
T08
X876790Y1355580
Y1380980
Y1406380
Y1431780
T09
X1043160Y1043160
X1068560
X1093960
X1119360
X1144760
X1170160
X1195560
X1220960
X1246360
X1271760
X1297160
X1322560
X1347960
X1373360
X1398760
X1424160
X1449560
X1474960
X1500360
Y1271760
X1474960
X1449560
X1424160
X1398760
X1373360
X1347960
X1322560
X1297160
X1271760
X1246360
X1220960
X1195560
X1170160
X1144760
X1119360
X1093960
X1068560
X1043160
T10
X983341Y985159
X965380Y1003120
X947420Y1021080
X1081260Y988550
X1106660
X1132060
X1157460
X1182860
Y937750
X1157460
X1132060
X1106660
X1208260
X1233660
X1259060
X1284460
X1309860
X1335260
X1360660
X1386060
X1411460
X1436860
Y988550
X1411460
X1386060
X1360660
X1335260
X1309860
X1284460
X1259060
X1233660
X1208260
X1462260
X1559199Y982619
X1577159Y1000580
X1595120Y1018540
X1599420Y1391140
X1624820
X1634980Y1546080
Y1571480
X1698480Y1571480
Y1546080
X1558780Y1469880
X1533380
X1507980
X1482580
X1457180
X1431780
X1406380
X1380980
X1347960Y1351770
X1322560
X1297160
X1271760
X1246360
X1220960
X1195560
X1241280Y1546080
Y1571480
X1304780
Y1546080
X1487660Y1391140
X1513060
X1538460
X1574020
X1170160Y1351770
X1132060
X1106660
X1081260
X1055860
X1030460
X1021570Y1679430
Y1704830
X1053320Y1746740
Y1772140
Y1797540
Y1822940
Y1848340
Y1873740
X1019030Y1873740
Y1848340
X944880Y1854200
X962840Y1872160
X980801Y1890121
X1050780Y1927080
X1076180
X1101580
X1126980
X1152380
X1180320Y1873740
Y1848340
Y1822940
Y1797540
Y1772140
Y1746740
X1241280Y1723880
Y1698480
Y1673080
Y1647680
Y1622280
Y1596880
X1304780
Y1622280
Y1647680
Y1673080
Y1698480
Y1723880
X1380980Y1800080
X1406380
X1431780
X1457180
X1482580
X1507980
X1533380
X1558780
X1561739Y1890121
X1579700Y1872160
X1507980Y1863580
X1482580
X1457180
X1431780
X1406380
X1380980
X1391140Y1927080
X1365740
X1416540
X1441940
X1467340
X1492740
X1297160
X1271760
X1246360
X1220960
X1214610Y1873740
Y1848340
X1597660Y1854200
X1634980Y1723880
Y1698480
Y1673080
Y1647680
Y1622280
Y1596880
X1698480
Y1622280
Y1647680
Y1673080
Y1698480
Y1723880
T11
X1673080Y1121900
Y1321900
T12
X777730Y1360660
Y1386060
Y1411460
T13
X826300Y1205470
Y1277470
X825030Y1494650
Y1566650
T14
X895260Y1060360
X1648260
X895260Y1813360
X1648260
M30
