G04*
G04 #@! TF.GenerationSoftware,Altium Limited,Altium Designer,23.8.1 (32)*
G04*
G04 Layer_Color=8388736*
%FSLAX44Y44*%
%MOMM*%
G71*
G04*
G04 #@! TF.SameCoordinates,0CA1B05D-E12B-4C76-85DA-CFDCD28D9C68*
G04*
G04*
G04 #@! TF.FilePolarity,Negative*
G04*
G01*
G75*
%ADD19R,1.1938X0.3048*%
%ADD20R,0.3048X1.1938*%
%ADD29R,1.2032X1.5032*%
%ADD30R,2.3032X1.6032*%
%ADD31R,1.5032X1.2032*%
%ADD32R,0.9532X1.8532*%
%ADD33R,1.1032X0.5032*%
%ADD34R,1.1532X1.9532*%
%ADD35R,3.4032X1.9532*%
G04:AMPARAMS|DCode=36|XSize=1.4032mm|YSize=1.4032mm|CornerRadius=0.4016mm|HoleSize=0mm|Usage=FLASHONLY|Rotation=90.000|XOffset=0mm|YOffset=0mm|HoleType=Round|Shape=RoundedRectangle|*
%AMROUNDEDRECTD36*
21,1,1.4032,0.6000,0,0,90.0*
21,1,0.6000,1.4032,0,0,90.0*
1,1,0.8032,0.3000,0.3000*
1,1,0.8032,0.3000,-0.3000*
1,1,0.8032,-0.3000,-0.3000*
1,1,0.8032,-0.3000,0.3000*
%
%ADD36ROUNDEDRECTD36*%
%ADD37R,1.4032X1.4032*%
%ADD38R,1.4032X1.4032*%
G04:AMPARAMS|DCode=39|XSize=1.4032mm|YSize=1.4032mm|CornerRadius=0.4016mm|HoleSize=0mm|Usage=FLASHONLY|Rotation=180.000|XOffset=0mm|YOffset=0mm|HoleType=Round|Shape=RoundedRectangle|*
%AMROUNDEDRECTD39*
21,1,1.4032,0.6000,0,0,180.0*
21,1,0.6000,1.4032,0,0,180.0*
1,1,0.8032,-0.3000,0.3000*
1,1,0.8032,0.3000,0.3000*
1,1,0.8032,0.3000,-0.3000*
1,1,0.8032,-0.3000,-0.3000*
%
%ADD39ROUNDEDRECTD39*%
%ADD40R,2.7032X2.5032*%
%ADD41R,2.7032X1.9032*%
%ADD42R,2.2432X2.2432*%
%ADD43C,2.2432*%
%ADD44C,1.7032*%
%ADD45R,1.7032X1.7032*%
%ADD46R,1.7032X1.7032*%
%ADD47R,1.7632X1.7632*%
%ADD48C,1.7632*%
%ADD49O,2.8032X1.5032*%
%ADD50C,3.9192*%
%ADD51O,2.6032X1.4032*%
%ADD52R,3.9192X3.9192*%
%ADD53C,1.6652*%
%ADD54R,1.6652X1.6652*%
%ADD55O,1.6032X1.0032*%
%ADD56C,0.8532*%
%ADD57C,0.8032*%
%ADD58C,1.3622*%
%ADD59R,1.3622X1.3622*%
%ADD60C,1.4732*%
%ADD61P,2.4087X4X180.0*%
%ADD62P,2.4087X4X270.0*%
%ADD63C,1.9032*%
%ADD64C,1.0032*%
%ADD65C,5.2032*%
D19*
X275620Y138120D02*
D03*
Y143120D02*
D03*
Y148120D02*
D03*
Y153120D02*
D03*
Y158120D02*
D03*
Y163120D02*
D03*
Y168120D02*
D03*
Y173120D02*
D03*
Y178120D02*
D03*
Y183120D02*
D03*
Y188120D02*
D03*
Y193120D02*
D03*
Y198120D02*
D03*
Y203120D02*
D03*
Y208120D02*
D03*
Y213120D02*
D03*
Y218120D02*
D03*
Y223120D02*
D03*
Y228120D02*
D03*
Y233120D02*
D03*
Y238120D02*
D03*
Y243120D02*
D03*
Y248120D02*
D03*
Y253120D02*
D03*
Y258120D02*
D03*
X120620D02*
D03*
Y253120D02*
D03*
Y248120D02*
D03*
Y243120D02*
D03*
Y238120D02*
D03*
Y233120D02*
D03*
Y228120D02*
D03*
Y223120D02*
D03*
Y218120D02*
D03*
Y213120D02*
D03*
Y208120D02*
D03*
Y203120D02*
D03*
Y198120D02*
D03*
Y193120D02*
D03*
Y188120D02*
D03*
Y183120D02*
D03*
Y178120D02*
D03*
Y173120D02*
D03*
Y168120D02*
D03*
Y163120D02*
D03*
Y158120D02*
D03*
Y153120D02*
D03*
Y148120D02*
D03*
Y143120D02*
D03*
Y138120D02*
D03*
D20*
X223120Y120620D02*
D03*
X228120D02*
D03*
X233120D02*
D03*
X238120D02*
D03*
X243120D02*
D03*
X248120D02*
D03*
X253120D02*
D03*
X258120D02*
D03*
X218120D02*
D03*
X213120D02*
D03*
X208120D02*
D03*
X203120D02*
D03*
X198120D02*
D03*
X193120D02*
D03*
X188120D02*
D03*
X183120D02*
D03*
X178120D02*
D03*
X173120D02*
D03*
X168120D02*
D03*
X163120D02*
D03*
X158120D02*
D03*
X153120D02*
D03*
X148120D02*
D03*
X143120D02*
D03*
X138120D02*
D03*
X223120Y275620D02*
D03*
X228120D02*
D03*
X233120D02*
D03*
X238120D02*
D03*
X243120D02*
D03*
X248120D02*
D03*
X253120D02*
D03*
X258120D02*
D03*
X218120D02*
D03*
X213120D02*
D03*
X208120D02*
D03*
X203120D02*
D03*
X198120D02*
D03*
X193120D02*
D03*
X188120D02*
D03*
X183120D02*
D03*
X178120D02*
D03*
X173120D02*
D03*
X168120D02*
D03*
X163120D02*
D03*
X158120D02*
D03*
X153120D02*
D03*
X148120D02*
D03*
X143120D02*
D03*
X138120D02*
D03*
D29*
X-356550Y-257810D02*
D03*
X-376550D02*
D03*
X-280510Y-186690D02*
D03*
X-260510D02*
D03*
X-210660Y-139700D02*
D03*
X-190660D02*
D03*
X-221140Y-59690D02*
D03*
X-241140D02*
D03*
X-338140Y30480D02*
D03*
X-358140D02*
D03*
X-378620Y53340D02*
D03*
X-398620D02*
D03*
X-318610Y162560D02*
D03*
X-298610D02*
D03*
X-325280Y349250D02*
D03*
X-345280D02*
D03*
X-139540Y464820D02*
D03*
X-119540D02*
D03*
X362110Y12700D02*
D03*
X382110D02*
D03*
Y34290D02*
D03*
Y55880D02*
D03*
X362110D02*
D03*
Y34290D02*
D03*
X248760Y-139700D02*
D03*
X228760D02*
D03*
X-341950Y-114300D02*
D03*
X-361950D02*
D03*
X-434660Y-104140D02*
D03*
X-454660D02*
D03*
D30*
X405350Y11790D02*
D03*
Y56790D02*
D03*
X496350Y11790D02*
D03*
Y56790D02*
D03*
D31*
X-261620Y-344010D02*
D03*
Y-324010D02*
D03*
X-325120Y-281780D02*
D03*
Y-261780D02*
D03*
X-280670Y-145890D02*
D03*
X-259080Y-145730D02*
D03*
Y-125730D02*
D03*
X-280670Y-125890D02*
D03*
X-320040Y-17620D02*
D03*
Y2380D02*
D03*
X-434340Y-47150D02*
D03*
Y-67150D02*
D03*
X-455930Y-46830D02*
D03*
Y-26830D02*
D03*
X-383540Y285910D02*
D03*
Y305910D02*
D03*
X-101600Y-40800D02*
D03*
Y-60800D02*
D03*
X-76200D02*
D03*
Y-40800D02*
D03*
X278130Y62390D02*
D03*
Y82390D02*
D03*
X25400Y445930D02*
D03*
Y465930D02*
D03*
D32*
X-287020Y-304290D02*
D03*
X-261620D02*
D03*
Y-208790D02*
D03*
X-287020D02*
D03*
D33*
X-446000Y198560D02*
D03*
Y203560D02*
D03*
Y208560D02*
D03*
Y213560D02*
D03*
Y218560D02*
D03*
Y223560D02*
D03*
Y228560D02*
D03*
Y233560D02*
D03*
Y238560D02*
D03*
Y243560D02*
D03*
Y248560D02*
D03*
Y253560D02*
D03*
D34*
X-274180Y-40890D02*
D03*
X-297180D02*
D03*
X-320180D02*
D03*
D35*
X-297180Y-103890D02*
D03*
D36*
X-302260Y-146390D02*
D03*
D37*
X-302260Y-125390D02*
D03*
D38*
X-403090Y-114300D02*
D03*
X-399120Y30480D02*
D03*
D39*
X-382090Y-114300D02*
D03*
X-378120Y30480D02*
D03*
D40*
X-349340Y153670D02*
D03*
X-299810Y195580D02*
D03*
Y236220D02*
D03*
Y276860D02*
D03*
Y317500D02*
D03*
X-342810D02*
D03*
Y276860D02*
D03*
Y236220D02*
D03*
Y195580D02*
D03*
X-392340Y153670D02*
D03*
X-412840Y297180D02*
D03*
X-455840D02*
D03*
D41*
X-348300Y82549D02*
D03*
X-388300D02*
D03*
X-383860Y332741D02*
D03*
X-423860D02*
D03*
D42*
X-494030Y-76200D02*
D03*
D43*
X-494030Y-50800D02*
D03*
Y-25400D02*
D03*
D44*
X-288419Y-451701D02*
D03*
X-306380Y-433741D02*
D03*
X-139700Y-499110D02*
D03*
X-114300D02*
D03*
X-88900D02*
D03*
X-38100D02*
D03*
X-12700D02*
D03*
X12700D02*
D03*
X63500D02*
D03*
X88900D02*
D03*
X114300D02*
D03*
X165100D02*
D03*
X190500Y-448310D02*
D03*
X165100D02*
D03*
X139700D02*
D03*
X88900D02*
D03*
X63500D02*
D03*
X38100D02*
D03*
X-12700D02*
D03*
X-38100D02*
D03*
X-63500D02*
D03*
X-114300D02*
D03*
X-139700D02*
D03*
X-165100D02*
D03*
X76200Y-85090D02*
D03*
X50800D02*
D03*
X25400D02*
D03*
X0D02*
D03*
X-25400D02*
D03*
X-50800D02*
D03*
X-76200D02*
D03*
X-139700D02*
D03*
X-165100D02*
D03*
X-190500D02*
D03*
X-215900D02*
D03*
X-30480Y109220D02*
D03*
Y134620D02*
D03*
Y160020D02*
D03*
Y210820D02*
D03*
Y236220D02*
D03*
Y261620D02*
D03*
X33020Y210820D02*
D03*
Y160020D02*
D03*
Y134620D02*
D03*
Y109220D02*
D03*
X134620Y33020D02*
D03*
X160020D02*
D03*
X185420D02*
D03*
X236220D02*
D03*
X261620D02*
D03*
X287020D02*
D03*
X241300Y-45720D02*
D03*
X215900D02*
D03*
X302260D02*
D03*
X327660D02*
D03*
X426720Y134620D02*
D03*
Y160020D02*
D03*
Y185420D02*
D03*
Y236220D02*
D03*
Y261620D02*
D03*
Y287020D02*
D03*
X363220D02*
D03*
Y261620D02*
D03*
Y236220D02*
D03*
Y185420D02*
D03*
Y160020D02*
D03*
Y134620D02*
D03*
X261620Y363220D02*
D03*
X236220D02*
D03*
X210820D02*
D03*
X160020D02*
D03*
X134620D02*
D03*
X109220D02*
D03*
X185420Y426720D02*
D03*
X210820D02*
D03*
X220980Y490220D02*
D03*
X195580D02*
D03*
X144780D02*
D03*
X160020Y426720D02*
D03*
X119380Y490220D02*
D03*
X109220Y426720D02*
D03*
X0Y490220D02*
D03*
X-25400D02*
D03*
X-50800D02*
D03*
X-57150Y436880D02*
D03*
X-91440Y436880D02*
D03*
Y411480D02*
D03*
Y386080D02*
D03*
Y360680D02*
D03*
Y335280D02*
D03*
X33020Y236220D02*
D03*
Y261620D02*
D03*
X-144780Y490220D02*
D03*
X-170180D02*
D03*
X-195580D02*
D03*
X-220980D02*
D03*
X-218440Y436880D02*
D03*
Y411480D02*
D03*
Y386080D02*
D03*
Y360680D02*
D03*
Y335280D02*
D03*
X-252730Y436880D02*
D03*
X-308920Y435300D02*
D03*
X-326880Y417340D02*
D03*
X-250190Y242570D02*
D03*
X289979Y453261D02*
D03*
X307939Y435300D02*
D03*
X323360Y-418320D02*
D03*
X305399Y-436281D02*
D03*
D45*
X-190500Y-448310D02*
D03*
X-165100Y-499110D02*
D03*
X-63500D02*
D03*
X12700Y-448310D02*
D03*
X38100Y-499110D02*
D03*
X139700D02*
D03*
X114300Y-448310D02*
D03*
X-88900D02*
D03*
X-101600Y-85090D02*
D03*
X-241300D02*
D03*
X109220Y33020D02*
D03*
X210820D02*
D03*
X266700Y-45720D02*
D03*
X353060D02*
D03*
X287020Y363220D02*
D03*
X236220Y426720D02*
D03*
X185420Y363220D02*
D03*
X134620Y426720D02*
D03*
X170180Y490220D02*
D03*
X93980D02*
D03*
X25400D02*
D03*
X-119380D02*
D03*
D46*
X363220Y109220D02*
D03*
X426720Y109220D02*
D03*
Y210820D02*
D03*
X363220D02*
D03*
X33020Y287020D02*
D03*
Y185420D02*
D03*
X-30480Y287020D02*
D03*
X-91440Y309880D02*
D03*
X-57150Y411480D02*
D03*
X-218440Y309880D02*
D03*
X-250190Y267970D02*
D03*
X-252730Y411480D02*
D03*
X-30480Y185420D02*
D03*
D47*
X228600Y-165100D02*
D03*
D48*
X-228600Y-393700D02*
D03*
X-203200D02*
D03*
X-177800D02*
D03*
X-152400D02*
D03*
X-127000D02*
D03*
X-101600D02*
D03*
X-76200D02*
D03*
X-50800D02*
D03*
X-25400D02*
D03*
X0D02*
D03*
X25400D02*
D03*
X50800D02*
D03*
X76200D02*
D03*
X101600D02*
D03*
X127000D02*
D03*
X152400D02*
D03*
X177800D02*
D03*
X203200D02*
D03*
X228600D02*
D03*
X203200Y-165100D02*
D03*
X177800D02*
D03*
X152400D02*
D03*
X127000D02*
D03*
X101600D02*
D03*
X76200D02*
D03*
X50800D02*
D03*
X25400D02*
D03*
X0D02*
D03*
X-25400D02*
D03*
X-50800D02*
D03*
X-76200D02*
D03*
X-101600D02*
D03*
X-127000D02*
D03*
X-152400D02*
D03*
X-177800D02*
D03*
X-203200D02*
D03*
X-228600D02*
D03*
D49*
X-505460Y-262890D02*
D03*
Y-127890D02*
D03*
D50*
X-445460Y-231390D02*
D03*
Y-159390D02*
D03*
X-446730Y57790D02*
D03*
D51*
X-506730Y26290D02*
D03*
Y161290D02*
D03*
D52*
X-446730Y129790D02*
D03*
D53*
X-394970Y-81280D02*
D03*
Y-55880D02*
D03*
Y-30480D02*
D03*
D54*
X-394970Y-5080D02*
D03*
D55*
X-464000Y184760D02*
D03*
X-508000Y181160D02*
D03*
X-464000Y267360D02*
D03*
X-508000Y270960D02*
D03*
D56*
X-451600Y190060D02*
D03*
Y262060D02*
D03*
D57*
X-465100Y202060D02*
D03*
Y210060D02*
D03*
X-458100Y214060D02*
D03*
Y198060D02*
D03*
Y222060D02*
D03*
Y230060D02*
D03*
Y238060D02*
D03*
X-465100Y242060D02*
D03*
Y234060D02*
D03*
Y250060D02*
D03*
X-458100Y254060D02*
D03*
X-465100Y218060D02*
D03*
D58*
X-399730Y-232410D02*
D03*
Y-207010D02*
D03*
Y-181610D02*
D03*
Y-156210D02*
D03*
X-321630Y-181610D02*
D03*
Y-207010D02*
D03*
Y-156210D02*
D03*
D59*
X-321630Y-232410D02*
D03*
D60*
X-233680Y-125730D02*
D03*
X-54610Y-35560D02*
D03*
X172720Y-139700D02*
D03*
X-341530Y112840D02*
D03*
X-392530Y120840D02*
D03*
D61*
X287439Y-454241D02*
D03*
X-290959Y453261D02*
D03*
D62*
X-324340Y-415780D02*
D03*
X325900Y417340D02*
D03*
D63*
X401320Y-314960D02*
D03*
Y-114960D02*
D03*
D64*
X-269240Y-481330D02*
D03*
X-228600Y-502920D02*
D03*
X-234950Y-466090D02*
D03*
X-254000Y-427990D02*
D03*
X-283210Y-403860D02*
D03*
X-229870Y-341630D02*
D03*
X-199390Y-367030D02*
D03*
X-177800Y-350520D02*
D03*
X-156210Y-372110D02*
D03*
X-127000Y-355600D02*
D03*
X-91440Y-361950D02*
D03*
Y-340360D02*
D03*
X-20320Y-411480D02*
D03*
X24130Y-356870D02*
D03*
X50800D02*
D03*
X76200Y-354330D02*
D03*
X101600Y-351790D02*
D03*
X127000D02*
D03*
X152400D02*
D03*
X185420Y-356870D02*
D03*
X194612Y-347678D02*
D03*
X229870Y-328930D02*
D03*
X264160Y-334010D02*
D03*
X303530Y-353060D02*
D03*
X345440Y-402590D02*
D03*
X342900Y-355600D02*
D03*
X355600Y-320040D02*
D03*
X419100Y-266700D02*
D03*
X382270Y-233680D02*
D03*
X425450Y-205740D02*
D03*
X462280Y-236220D02*
D03*
X472440Y-288290D02*
D03*
X422910Y-336550D02*
D03*
X342900Y-223520D02*
D03*
X302260Y-205740D02*
D03*
X335280Y-148590D02*
D03*
X365760Y-102870D02*
D03*
X381000Y-162560D02*
D03*
X439420Y-149860D02*
D03*
X477520Y-186690D02*
D03*
X490220Y-130810D02*
D03*
X480060Y-72390D02*
D03*
X476250Y-26670D02*
D03*
X468630Y16510D02*
D03*
X443230Y53340D02*
D03*
X431800Y-6350D02*
D03*
X438150Y-48260D02*
D03*
X448310Y-96520D02*
D03*
X400050Y-38100D02*
D03*
X387350Y-29210D02*
D03*
X403860Y-77470D02*
D03*
X314960Y-1270D02*
D03*
X329120Y55880D02*
D03*
X372110Y73660D02*
D03*
X405130Y35560D02*
D03*
X457200Y83820D02*
D03*
X472440Y120650D02*
D03*
X500380Y91440D02*
D03*
X502920Y144780D02*
D03*
X500380Y199390D02*
D03*
X469900Y224790D02*
D03*
X499110Y256540D02*
D03*
X464820Y299720D02*
D03*
X436880Y334010D02*
D03*
X400050Y328930D02*
D03*
X398780Y302260D02*
D03*
X349250Y342900D02*
D03*
X356427Y309438D02*
D03*
X316230Y340360D02*
D03*
X325120Y350520D02*
D03*
X327660Y363269D02*
D03*
X339090Y387350D02*
D03*
X360680Y419100D02*
D03*
X302260Y474980D02*
D03*
X273050Y377000D02*
D03*
X257810Y420370D02*
D03*
X260350Y481330D02*
D03*
X219710Y466090D02*
D03*
X82550Y363220D02*
D03*
X66040Y341820D02*
D03*
X48260Y391350D02*
D03*
X57150Y402590D02*
D03*
X33020Y345440D02*
D03*
X63500Y299530D02*
D03*
X72390Y275590D02*
D03*
X91510Y266630D02*
D03*
X89839Y290640D02*
D03*
X91470Y230310D02*
D03*
X100327Y220794D02*
D03*
X67125Y224005D02*
D03*
X140970Y201930D02*
D03*
X137160Y184150D02*
D03*
X168910Y156210D02*
D03*
X178102Y147018D02*
D03*
X153670Y138430D02*
D03*
X207010Y149860D02*
D03*
X222250Y151130D02*
D03*
X247914Y103134D02*
D03*
X265430Y101600D02*
D03*
X234883Y136673D02*
D03*
X235170Y149670D02*
D03*
X298450Y208280D02*
D03*
X323887Y189233D02*
D03*
X292114Y247188D02*
D03*
X301807Y275579D02*
D03*
X304790Y289608D02*
D03*
X335280Y290830D02*
D03*
X264006Y302230D02*
D03*
X279400Y322580D02*
D03*
X290830Y288290D02*
D03*
X292415Y262972D02*
D03*
X233022Y302230D02*
D03*
X248149Y331636D02*
D03*
X247466Y261804D02*
D03*
X233690Y260070D02*
D03*
X226060Y248920D02*
D03*
X257810Y242570D02*
D03*
X261620Y223520D02*
D03*
X243840Y227330D02*
D03*
X242570Y213360D02*
D03*
X208280Y234950D02*
D03*
X190500Y238760D02*
D03*
X203200Y254000D02*
D03*
X191770Y199390D02*
D03*
X173990Y215900D02*
D03*
X146050Y227330D02*
D03*
Y243840D02*
D03*
X179070Y261620D02*
D03*
X222250Y327660D02*
D03*
X138430Y290640D02*
D03*
X121920D02*
D03*
X111760Y279400D02*
D03*
X138430Y257810D02*
D03*
X136717Y218280D02*
D03*
X98929Y165269D02*
D03*
X97587Y152402D02*
D03*
X93980Y111760D02*
D03*
X101600Y87129D02*
D03*
X81090Y25400D02*
D03*
X80010Y5080D02*
D03*
X111760Y-25400D02*
D03*
X151130Y-61150D02*
D03*
X153670Y-88900D02*
D03*
X203200Y-102870D02*
D03*
X255270Y-162560D02*
D03*
X254000Y-204470D02*
D03*
X223520Y-234950D02*
D03*
X224790Y-281940D02*
D03*
X265430Y-283210D02*
D03*
X302260Y-304800D02*
D03*
X340360Y-269240D02*
D03*
X299720Y-255270D02*
D03*
X271780Y-233680D02*
D03*
X293370Y-165100D02*
D03*
X298450Y-105855D02*
D03*
X297180Y-76200D02*
D03*
X185420Y-1270D02*
D03*
X199390Y57150D02*
D03*
X219740Y87630D02*
D03*
X172720Y10160D02*
D03*
X147320D02*
D03*
X151130Y-27940D02*
D03*
X200660Y-71120D02*
D03*
X125730Y-137160D02*
D03*
X102870Y-95250D02*
D03*
X83820Y-123190D02*
D03*
X49530Y-105410D02*
D03*
X50800Y-142240D02*
D03*
X52070Y-193040D02*
D03*
X50800Y-241300D02*
D03*
Y-293370D02*
D03*
X76200D02*
D03*
X100330Y-292100D02*
D03*
X127000D02*
D03*
X152400D02*
D03*
X194310Y-297180D02*
D03*
X193040Y-331470D02*
D03*
X207768Y-332107D02*
D03*
X187960Y-259080D02*
D03*
X185420Y-210820D02*
D03*
X152400Y-194310D02*
D03*
X127000Y-185420D02*
D03*
X128270Y-219710D02*
D03*
X101600Y-193040D02*
D03*
X77470D02*
D03*
X76200Y-240030D02*
D03*
X102870Y-233680D02*
D03*
X24130Y-191770D02*
D03*
X22860Y-241300D02*
D03*
X25400Y-293370D02*
D03*
X-12700D02*
D03*
X-13970Y-229870D02*
D03*
X-50800Y-252730D02*
D03*
X-49530Y-293370D02*
D03*
X-74930Y-232410D02*
D03*
X-80010Y-293370D02*
D03*
X-91440Y-309880D02*
D03*
Y-325120D02*
D03*
X-52070Y-355600D02*
D03*
X-13970Y-356870D02*
D03*
X-125730Y-293370D02*
D03*
X-95250Y-260350D02*
D03*
X-123190Y-237490D02*
D03*
X-85090Y-190500D02*
D03*
X-53340Y-181610D02*
D03*
X-49530Y-205740D02*
D03*
X-25400Y-187960D02*
D03*
X5080Y-123190D02*
D03*
X7620Y-66040D02*
D03*
X48260Y-49530D02*
D03*
X38107Y-22215D02*
D03*
X50800Y10160D02*
D03*
X62230Y21590D02*
D03*
X64770Y43180D02*
D03*
X46990Y78740D02*
D03*
X36830Y87630D02*
D03*
X32147Y69453D02*
D03*
X53340Y96520D02*
D03*
X60960Y121920D02*
D03*
X7620Y147320D02*
D03*
X-7620Y172720D02*
D03*
X-9970Y121730D02*
D03*
X-2540Y87630D02*
D03*
X8890Y96520D02*
D03*
X17780Y78740D02*
D03*
X17528Y42737D02*
D03*
X7620Y34290D02*
D03*
X19050Y21590D02*
D03*
X-5080Y22860D02*
D03*
X-39370Y40640D02*
D03*
X-35560Y10160D02*
D03*
X-20320Y-10160D02*
D03*
X-36830Y-21590D02*
D03*
X-12700Y-57150D02*
D03*
X-26670Y-123190D02*
D03*
X-50800Y-102870D02*
D03*
X-61345Y-113030D02*
D03*
X-62230Y-129540D02*
D03*
X-78740Y-124460D02*
D03*
X-113030Y-114300D02*
D03*
X-154940Y-125730D02*
D03*
X-177800Y-60960D02*
D03*
X-195580Y-120650D02*
D03*
X-240030Y-110490D02*
D03*
X-259080Y-69850D02*
D03*
X-256540Y-39370D02*
D03*
X-237490Y-1270D02*
D03*
X-207010Y-30480D02*
D03*
X-152400Y-29210D02*
D03*
X-124460Y-45720D02*
D03*
X-88900Y-17780D02*
D03*
X-80010Y39370D02*
D03*
X-83820Y83820D02*
D03*
X-76200Y96520D02*
D03*
X-73660Y127000D02*
D03*
Y157480D02*
D03*
X-76200Y205740D02*
D03*
X-85090Y240030D02*
D03*
X-77470Y251460D02*
D03*
X-91440Y275590D02*
D03*
X-120650Y299720D02*
D03*
X-125730Y313690D02*
D03*
X-110490Y290830D02*
D03*
X-105242Y274911D02*
D03*
X-123190Y276860D02*
D03*
X-120650Y248920D02*
D03*
X-123190Y203200D02*
D03*
X-93980Y204470D02*
D03*
Y173990D02*
D03*
Y140970D02*
D03*
X-124460Y152400D02*
D03*
X-99060Y115570D02*
D03*
X-92710Y72390D02*
D03*
X-113030D02*
D03*
X-130810Y71120D02*
D03*
X-148590Y72390D02*
D03*
X-139700Y26670D02*
D03*
X-165100D02*
D03*
X-152400Y7620D02*
D03*
X-124460Y-12700D02*
D03*
X-114300Y17780D02*
D03*
X-175260Y72390D02*
D03*
X-177800Y19050D02*
D03*
X-190500Y27096D02*
D03*
X-209550Y27940D02*
D03*
X-231140Y90170D02*
D03*
X-205740Y109220D02*
D03*
X-222250Y147320D02*
D03*
X-248920Y123190D02*
D03*
X-284480Y139700D02*
D03*
X-254000Y171450D02*
D03*
X-218440Y189230D02*
D03*
X-182880Y203200D02*
D03*
X-156210Y177800D02*
D03*
X-158750Y232410D02*
D03*
X-162560Y257810D02*
D03*
X-165100Y271780D02*
D03*
X-153670Y330200D02*
D03*
X-124460Y346710D02*
D03*
X-72390Y384810D02*
D03*
X-19050Y372110D02*
D03*
X-19022Y346265D02*
D03*
X-39370Y349250D02*
D03*
X10160Y343090D02*
D03*
X22860Y356870D02*
D03*
X12700Y396240D02*
D03*
X8890Y419100D02*
D03*
X-11430Y448310D02*
D03*
X59690Y490220D02*
D03*
X-36830Y430530D02*
D03*
X-17780Y393700D02*
D03*
X-36830Y374650D02*
D03*
X-125730Y375920D02*
D03*
X-118110Y405130D02*
D03*
X-157480Y412750D02*
D03*
X-158750Y467360D02*
D03*
X-181610Y436880D02*
D03*
Y388620D02*
D03*
X-161290Y361950D02*
D03*
X-165100Y336550D02*
D03*
X-179070Y332740D02*
D03*
X-194310Y330200D02*
D03*
X-173560Y281650D02*
D03*
X-185420Y267970D02*
D03*
X-245110Y298450D02*
D03*
X-212090Y288290D02*
D03*
X-250190Y207010D02*
D03*
X-321310Y236220D02*
D03*
Y195580D02*
D03*
X-366679Y183230D02*
D03*
X-368300Y227850D02*
D03*
X-372110Y240279D02*
D03*
X-402664Y222199D02*
D03*
X-396240Y184150D02*
D03*
X-367030Y203200D02*
D03*
X-370840Y153670D02*
D03*
X-367030Y116840D02*
D03*
X-290830Y30480D02*
D03*
X-259080Y63500D02*
D03*
X-280670Y96520D02*
D03*
X-309880Y120650D02*
D03*
X-303530Y64770D02*
D03*
X-373380Y5080D02*
D03*
X-381000Y-45720D02*
D03*
X-374650Y-82550D02*
D03*
X-405130Y-93980D02*
D03*
X-342900Y-54610D02*
D03*
X-323850Y-96520D02*
D03*
X-341630Y-154940D02*
D03*
X-339090Y-210820D02*
D03*
X-377190Y-170180D02*
D03*
X-370840Y-222250D02*
D03*
X-342900Y-273050D02*
D03*
Y-307340D02*
D03*
X-359410Y-337820D02*
D03*
X-330200Y-381000D02*
D03*
X-358140Y-414020D02*
D03*
X-318770Y-341630D02*
D03*
X-285750Y-365760D02*
D03*
X-255270Y-374650D02*
D03*
X-229870Y-302260D02*
D03*
X-189230Y-293370D02*
D03*
X-152400Y-308803D02*
D03*
X-158238Y-320418D02*
D03*
X-165100Y-331470D02*
D03*
Y-261620D02*
D03*
X-190500Y-231140D02*
D03*
X-165100Y-199390D02*
D03*
X-125730Y-193040D02*
D03*
X-118110Y-214630D02*
D03*
X-190500Y-186690D02*
D03*
X-227330Y-199390D02*
D03*
X-240030Y-241300D02*
D03*
X-212090Y-267970D02*
D03*
X-287020Y-240030D02*
D03*
X-256540Y-275590D02*
D03*
X-292100Y-284480D02*
D03*
X-388620Y-314960D02*
D03*
X-416560Y-276860D02*
D03*
X-468630Y-260350D02*
D03*
X-448310Y-317500D02*
D03*
X-410210Y-353060D02*
D03*
X-504190Y-218440D02*
D03*
X-459740Y-195580D02*
D03*
X-504190Y-162560D02*
D03*
X-477520Y-106680D02*
D03*
X-407670Y-20320D02*
D03*
X-447040Y92710D02*
D03*
X-488950Y133350D02*
D03*
X-509270Y92710D02*
D03*
X-499110Y48260D02*
D03*
X-425450Y186690D02*
D03*
X-416750Y196850D02*
D03*
X-425955Y222155D02*
D03*
X-419100Y242570D02*
D03*
X-409108Y233490D02*
D03*
X-406400Y252644D02*
D03*
Y273050D02*
D03*
X-426720Y270510D02*
D03*
X-439420Y265430D02*
D03*
X-367030Y310070D02*
D03*
X-360610Y344240D02*
D03*
X-321310Y317500D02*
D03*
Y276860D02*
D03*
X-246380Y356870D02*
D03*
X-278130Y382270D02*
D03*
X-283210Y347980D02*
D03*
X-325120Y379730D02*
D03*
X-283210Y417830D02*
D03*
X-227330Y463550D02*
D03*
X-262890Y487680D02*
D03*
X-360680Y415290D02*
D03*
X-411480Y373380D02*
D03*
X-445770Y337820D02*
D03*
X-482600Y300990D02*
D03*
X-434340Y297180D02*
D03*
X-495300Y255270D02*
D03*
X-485140Y233680D02*
D03*
X-511810Y228600D02*
D03*
X-506730Y200660D02*
D03*
X-486683Y214694D02*
D03*
X-477520Y195580D02*
D03*
X-257810Y-165100D02*
D03*
X8890Y198120D02*
D03*
X53340Y223520D02*
D03*
X-5080D02*
D03*
X1270Y248920D02*
D03*
X114300Y115570D02*
D03*
X123190Y104140D02*
D03*
X137160D02*
D03*
X115239Y86550D02*
D03*
X294450Y55880D02*
D03*
X417830Y76200D02*
D03*
X463550Y173990D02*
D03*
X271780Y-375920D02*
D03*
X292100Y-411480D02*
D03*
X233592Y-414677D02*
D03*
X243840Y-429260D02*
D03*
X280670Y-483870D02*
D03*
X243840Y-504190D02*
D03*
X219710Y-466090D02*
D03*
X220980Y-417830D02*
D03*
X208339Y-420864D02*
D03*
X190500Y-415290D02*
D03*
X-85090Y491490D02*
D03*
D65*
X-376500Y-376500D02*
D03*
X376500D02*
D03*
Y376500D02*
D03*
X-376500D02*
D03*
M02*
