G04*
G04 #@! TF.GenerationSoftware,Altium Limited,Altium Designer,22.10.1 (41)*
G04*
G04 Layer_Color=8421504*
%FSLAX44Y44*%
%MOMM*%
G71*
G04*
G04 #@! TF.SameCoordinates,86A63571-8FB3-4636-807C-F47AD7162A4A*
G04*
G04*
G04 #@! TF.FilePolarity,Positive*
G04*
G01*
G75*
%ADD15R,1.0000X1.3000*%
%ADD16R,2.5000X1.7000*%
%ADD17R,2.3000X2.5000*%
%ADD18R,0.3556X1.3462*%
%ADD19R,1.3462X0.3556*%
%ADD20R,0.9500X0.8000*%
%ADD21R,1.3000X1.0000*%
%ADD22R,0.8000X0.9500*%
%ADD23R,0.8000X0.9000*%
G04:AMPARAMS|DCode=24|XSize=0.8mm|YSize=0.9mm|CornerRadius=0.2mm|HoleSize=0mm|Usage=FLASHONLY|Rotation=180.000|XOffset=0mm|YOffset=0mm|HoleType=Round|Shape=RoundedRectangle|*
%AMROUNDEDRECTD24*
21,1,0.8000,0.5000,0,0,180.0*
21,1,0.4000,0.9000,0,0,180.0*
1,1,0.4000,-0.2000,0.2500*
1,1,0.4000,0.2000,0.2500*
1,1,0.4000,0.2000,-0.2500*
1,1,0.4000,-0.2000,-0.2500*
%
%ADD24ROUNDEDRECTD24*%
%ADD25R,2.1000X1.4000*%
D15*
X790100Y1496060D02*
D03*
X810100D02*
D03*
X1650840Y1437640D02*
D03*
X1630840D02*
D03*
X845980Y1246020D02*
D03*
X865980D02*
D03*
X924720Y1361440D02*
D03*
X944720D02*
D03*
X1537500Y1735000D02*
D03*
X1517500D02*
D03*
X1492500Y1522500D02*
D03*
X1472500D02*
D03*
X1143160Y1894840D02*
D03*
X1163160D02*
D03*
X1097440D02*
D03*
X1117440D02*
D03*
X1651540Y1387740D02*
D03*
X1631540D02*
D03*
X1631380Y1413140D02*
D03*
X1651380D02*
D03*
X1010000Y1332500D02*
D03*
X1030000D02*
D03*
D16*
X934400Y1478279D02*
D03*
X894400D02*
D03*
D17*
X896620Y1441360D02*
D03*
Y1398360D02*
D03*
D18*
X1302200Y1763270D02*
D03*
X1307200D02*
D03*
X1312200D02*
D03*
X1317200D02*
D03*
X1322200D02*
D03*
X1327200D02*
D03*
X1332200D02*
D03*
X1337200D02*
D03*
X1342200D02*
D03*
X1347200D02*
D03*
X1352200D02*
D03*
X1357200D02*
D03*
X1362200D02*
D03*
X1367200D02*
D03*
X1372200D02*
D03*
X1377200D02*
D03*
X1382200D02*
D03*
X1387200D02*
D03*
X1392200D02*
D03*
X1397200D02*
D03*
X1402200D02*
D03*
X1407200D02*
D03*
X1412200D02*
D03*
X1417200D02*
D03*
X1422200D02*
D03*
X1427200D02*
D03*
X1432200D02*
D03*
X1437200D02*
D03*
X1442200D02*
D03*
X1447200D02*
D03*
X1452200D02*
D03*
X1457200D02*
D03*
X1462200D02*
D03*
X1467200D02*
D03*
X1472200D02*
D03*
X1477200D02*
D03*
Y1550770D02*
D03*
X1472200D02*
D03*
X1467200D02*
D03*
X1462200D02*
D03*
X1457200D02*
D03*
X1452200D02*
D03*
X1447200D02*
D03*
X1442200D02*
D03*
X1437200D02*
D03*
X1432200D02*
D03*
X1427200D02*
D03*
X1422200D02*
D03*
X1417200D02*
D03*
X1412200D02*
D03*
X1407200D02*
D03*
X1402200D02*
D03*
X1397200D02*
D03*
X1392200D02*
D03*
X1387200D02*
D03*
X1382200D02*
D03*
X1377200D02*
D03*
X1372200D02*
D03*
X1367200D02*
D03*
X1362200D02*
D03*
X1357200D02*
D03*
X1352200D02*
D03*
X1347200D02*
D03*
X1342200D02*
D03*
X1337200D02*
D03*
X1332200D02*
D03*
X1327200D02*
D03*
X1322200D02*
D03*
X1317200D02*
D03*
X1312200D02*
D03*
X1307200D02*
D03*
X1302200D02*
D03*
D19*
X1495950Y1744520D02*
D03*
Y1739520D02*
D03*
Y1734520D02*
D03*
Y1729520D02*
D03*
Y1724520D02*
D03*
Y1719520D02*
D03*
Y1714520D02*
D03*
Y1709520D02*
D03*
Y1704520D02*
D03*
Y1699520D02*
D03*
Y1694520D02*
D03*
Y1689520D02*
D03*
Y1684520D02*
D03*
Y1679520D02*
D03*
Y1674520D02*
D03*
Y1669520D02*
D03*
Y1664520D02*
D03*
Y1659520D02*
D03*
Y1654520D02*
D03*
Y1649520D02*
D03*
Y1644520D02*
D03*
Y1639520D02*
D03*
Y1634520D02*
D03*
Y1629520D02*
D03*
Y1624520D02*
D03*
Y1619520D02*
D03*
Y1614520D02*
D03*
Y1609520D02*
D03*
Y1604520D02*
D03*
Y1599520D02*
D03*
Y1594520D02*
D03*
Y1589520D02*
D03*
Y1584520D02*
D03*
Y1579520D02*
D03*
Y1574520D02*
D03*
Y1569520D02*
D03*
X1283450D02*
D03*
Y1574520D02*
D03*
Y1579520D02*
D03*
Y1584520D02*
D03*
Y1589520D02*
D03*
Y1594520D02*
D03*
Y1599520D02*
D03*
Y1604520D02*
D03*
Y1609520D02*
D03*
Y1614520D02*
D03*
Y1619520D02*
D03*
Y1624520D02*
D03*
Y1629520D02*
D03*
Y1634520D02*
D03*
Y1639520D02*
D03*
Y1644520D02*
D03*
Y1649520D02*
D03*
Y1654520D02*
D03*
Y1659520D02*
D03*
Y1664520D02*
D03*
Y1669520D02*
D03*
Y1674520D02*
D03*
Y1679520D02*
D03*
Y1684520D02*
D03*
Y1689520D02*
D03*
Y1694520D02*
D03*
Y1699520D02*
D03*
Y1704520D02*
D03*
Y1709520D02*
D03*
Y1714520D02*
D03*
Y1719520D02*
D03*
Y1724520D02*
D03*
Y1729520D02*
D03*
Y1734520D02*
D03*
Y1739520D02*
D03*
Y1744520D02*
D03*
D20*
X998218Y1710800D02*
D03*
X998220Y1692800D02*
D03*
X998222Y1657240D02*
D03*
X998220Y1675240D02*
D03*
D21*
X886460Y1245860D02*
D03*
Y1225860D02*
D03*
X825500Y1245860D02*
D03*
Y1225860D02*
D03*
X980000Y1272500D02*
D03*
Y1292500D02*
D03*
X1142500Y1342500D02*
D03*
Y1362500D02*
D03*
D22*
X844660Y1374142D02*
D03*
X826660Y1374140D02*
D03*
D23*
X784230D02*
D03*
D24*
X800730D02*
D03*
D25*
X1772700Y1389740D02*
D03*
X1681700D02*
D03*
Y1434740D02*
D03*
X1772700D02*
D03*
M02*
