G04*
G04 #@! TF.GenerationSoftware,Altium Limited,Altium Designer,23.8.1 (32)*
G04*
G04 Layer_Color=32768*
%FSLAX44Y44*%
%MOMM*%
G71*
G04*
G04 #@! TF.SameCoordinates,0CA1B05D-E12B-4C76-85DA-CFDCD28D9C68*
G04*
G04*
G04 #@! TF.FilePolarity,Positive*
G04*
G01*
G75*
%ADD12C,0.1524*%
%ADD94C,0.1000*%
%ADD96C,0.0500*%
G36*
X133040Y124587D02*
X124587D01*
Y133040D01*
X112111D01*
Y263200D01*
X124587D01*
Y271653D01*
X133040D01*
Y284129D01*
X263200D01*
Y271653D01*
X271653D01*
Y263200D01*
X284129D01*
Y133040D01*
X271653D01*
Y124587D01*
X263200D01*
Y112111D01*
X133040D01*
Y124587D01*
D02*
G37*
D12*
X263200Y112111D02*
Y124587D01*
X271653D01*
Y133040D01*
X284129D01*
Y263200D01*
X271653D01*
Y271653D01*
X263200D01*
Y284129D01*
X133040D01*
Y271653D01*
X124587D01*
Y263200D01*
X112111D01*
Y133040D01*
X124587D01*
Y124587D01*
X133040D01*
Y112111D01*
X263200D01*
D94*
X-249000Y-407400D02*
X243000Y-407400D01*
Y-151400D01*
X-249000Y-151400D01*
Y-407400D01*
X-251420Y-289040D02*
Y-224040D01*
X-297220D01*
Y-289040D01*
X-251420D01*
Y-249440D02*
X-276820Y-224040D01*
X-325120Y-232410D02*
X-337820Y-245110D01*
X-325120D02*
Y-143510D01*
X-396240D01*
Y-245110D01*
X-325120D01*
X-333720Y-101080D02*
Y13920D01*
X-419720D01*
Y-101080D01*
X-333720D01*
X-329680Y-89890D02*
X-264680D01*
Y-54890D01*
X-329680D01*
Y-89890D01*
X-264680Y-77890D02*
X-287680Y-54890D01*
X-470830Y2500D02*
X-519130D01*
Y-104100D01*
X-470830D01*
Y2500D01*
X-519130Y-91400D02*
X-506430Y-104100D01*
D96*
X-424460Y-275390D02*
Y-115390D01*
X-601460D01*
Y-275390D01*
X-424460D01*
X-425630Y13790D02*
Y173790D01*
X-612730D01*
Y13790D01*
X-425630D01*
X-432100Y174310D02*
Y277810D01*
X-535800D01*
Y174310D01*
X-432100D01*
M02*
