G04*
G04 #@! TF.GenerationSoftware,Altium Limited,Altium Designer,23.8.1 (32)*
G04*
G04 Layer_Color=8421504*
%FSLAX44Y44*%
%MOMM*%
G71*
G04*
G04 #@! TF.SameCoordinates,0CA1B05D-E12B-4C76-85DA-CFDCD28D9C68*
G04*
G04*
G04 #@! TF.FilePolarity,Positive*
G04*
G01*
G75*
%ADD14R,1.0000X1.3000*%
%ADD15R,2.1000X1.4000*%
%ADD16R,1.3000X1.0000*%
%ADD17R,0.7500X1.6500*%
%ADD18R,0.9000X0.3000*%
%ADD19R,1.1938X0.3048*%
%ADD20R,0.3048X1.1938*%
%ADD21R,0.9500X1.7500*%
%ADD22R,3.2000X1.7500*%
G04:AMPARAMS|DCode=23|XSize=1.2mm|YSize=1.2mm|CornerRadius=0.3mm|HoleSize=0mm|Usage=FLASHONLY|Rotation=90.000|XOffset=0mm|YOffset=0mm|HoleType=Round|Shape=RoundedRectangle|*
%AMROUNDEDRECTD23*
21,1,1.2000,0.6000,0,0,90.0*
21,1,0.6000,1.2000,0,0,90.0*
1,1,0.6000,0.3000,0.3000*
1,1,0.6000,0.3000,-0.3000*
1,1,0.6000,-0.3000,-0.3000*
1,1,0.6000,-0.3000,0.3000*
%
%ADD23ROUNDEDRECTD23*%
%ADD24R,1.2000X1.2000*%
%ADD25R,1.2000X1.2000*%
G04:AMPARAMS|DCode=26|XSize=1.2mm|YSize=1.2mm|CornerRadius=0.3mm|HoleSize=0mm|Usage=FLASHONLY|Rotation=180.000|XOffset=0mm|YOffset=0mm|HoleType=Round|Shape=RoundedRectangle|*
%AMROUNDEDRECTD26*
21,1,1.2000,0.6000,0,0,180.0*
21,1,0.6000,1.2000,0,0,180.0*
1,1,0.6000,-0.3000,0.3000*
1,1,0.6000,0.3000,0.3000*
1,1,0.6000,0.3000,-0.3000*
1,1,0.6000,-0.3000,-0.3000*
%
%ADD26ROUNDEDRECTD26*%
%ADD27R,2.5000X2.3000*%
%ADD28R,2.5000X1.7000*%
D14*
X-356550Y-257810D02*
D03*
X-376550D02*
D03*
X-280510Y-186690D02*
D03*
X-260510D02*
D03*
X-210660Y-139700D02*
D03*
X-190660D02*
D03*
X-221140Y-59690D02*
D03*
X-241140D02*
D03*
X-338140Y30480D02*
D03*
X-358140D02*
D03*
X-378620Y53340D02*
D03*
X-398620D02*
D03*
X-318610Y162560D02*
D03*
X-298610D02*
D03*
X-325280Y349250D02*
D03*
X-345280D02*
D03*
X-139540Y464820D02*
D03*
X-119540D02*
D03*
X362110Y12700D02*
D03*
X382110D02*
D03*
Y34290D02*
D03*
Y55880D02*
D03*
X362110D02*
D03*
Y34290D02*
D03*
X248760Y-139700D02*
D03*
X228760D02*
D03*
X-341950Y-114300D02*
D03*
X-361950D02*
D03*
X-434660Y-104140D02*
D03*
X-454660D02*
D03*
D15*
X405350Y11790D02*
D03*
Y56790D02*
D03*
X496350Y11790D02*
D03*
Y56790D02*
D03*
D16*
X-261620Y-344010D02*
D03*
Y-324010D02*
D03*
X-325120Y-281780D02*
D03*
Y-261780D02*
D03*
X-280670Y-145890D02*
D03*
X-259080Y-145730D02*
D03*
Y-125730D02*
D03*
X-280670Y-125890D02*
D03*
X-320040Y-17620D02*
D03*
Y2380D02*
D03*
X-434340Y-47150D02*
D03*
Y-67150D02*
D03*
X-455930Y-46830D02*
D03*
Y-26830D02*
D03*
X-383540Y285910D02*
D03*
Y305910D02*
D03*
X-101600Y-40800D02*
D03*
Y-60800D02*
D03*
X-76200D02*
D03*
Y-40800D02*
D03*
X278130Y62390D02*
D03*
Y82390D02*
D03*
X25400Y445930D02*
D03*
Y465930D02*
D03*
D17*
X-287020Y-304290D02*
D03*
X-261620D02*
D03*
Y-208790D02*
D03*
X-287020D02*
D03*
D18*
X-446000Y198560D02*
D03*
Y203560D02*
D03*
Y208560D02*
D03*
Y213560D02*
D03*
Y218560D02*
D03*
Y223560D02*
D03*
Y228560D02*
D03*
Y233560D02*
D03*
Y238560D02*
D03*
Y243560D02*
D03*
Y248560D02*
D03*
Y253560D02*
D03*
D19*
X275620Y138120D02*
D03*
Y143120D02*
D03*
Y148120D02*
D03*
Y153120D02*
D03*
Y158120D02*
D03*
Y163120D02*
D03*
Y168120D02*
D03*
Y173120D02*
D03*
Y178120D02*
D03*
Y183120D02*
D03*
Y188120D02*
D03*
Y193120D02*
D03*
Y198120D02*
D03*
Y203120D02*
D03*
Y208120D02*
D03*
Y213120D02*
D03*
Y218120D02*
D03*
Y223120D02*
D03*
Y228120D02*
D03*
Y233120D02*
D03*
Y238120D02*
D03*
Y243120D02*
D03*
Y248120D02*
D03*
Y253120D02*
D03*
Y258120D02*
D03*
X120620D02*
D03*
Y253120D02*
D03*
Y248120D02*
D03*
Y243120D02*
D03*
Y238120D02*
D03*
Y233120D02*
D03*
Y228120D02*
D03*
Y223120D02*
D03*
Y218120D02*
D03*
Y213120D02*
D03*
Y208120D02*
D03*
Y203120D02*
D03*
Y198120D02*
D03*
Y193120D02*
D03*
Y188120D02*
D03*
Y183120D02*
D03*
Y178120D02*
D03*
Y173120D02*
D03*
Y168120D02*
D03*
Y163120D02*
D03*
Y158120D02*
D03*
Y153120D02*
D03*
Y148120D02*
D03*
Y143120D02*
D03*
Y138120D02*
D03*
D20*
X223120Y120620D02*
D03*
X228120D02*
D03*
X233120D02*
D03*
X238120D02*
D03*
X243120D02*
D03*
X248120D02*
D03*
X253120D02*
D03*
X258120D02*
D03*
X218120D02*
D03*
X213120D02*
D03*
X208120D02*
D03*
X203120D02*
D03*
X198120D02*
D03*
X193120D02*
D03*
X188120D02*
D03*
X183120D02*
D03*
X178120D02*
D03*
X173120D02*
D03*
X168120D02*
D03*
X163120D02*
D03*
X158120D02*
D03*
X153120D02*
D03*
X148120D02*
D03*
X143120D02*
D03*
X138120D02*
D03*
X223120Y275620D02*
D03*
X228120D02*
D03*
X233120D02*
D03*
X238120D02*
D03*
X243120D02*
D03*
X248120D02*
D03*
X253120D02*
D03*
X258120D02*
D03*
X218120D02*
D03*
X213120D02*
D03*
X208120D02*
D03*
X203120D02*
D03*
X198120D02*
D03*
X193120D02*
D03*
X188120D02*
D03*
X183120D02*
D03*
X178120D02*
D03*
X173120D02*
D03*
X168120D02*
D03*
X163120D02*
D03*
X158120D02*
D03*
X153120D02*
D03*
X148120D02*
D03*
X143120D02*
D03*
X138120D02*
D03*
D21*
X-274180Y-40890D02*
D03*
X-297180D02*
D03*
X-320180D02*
D03*
D22*
X-297180Y-103890D02*
D03*
D23*
X-302260Y-146390D02*
D03*
D24*
X-302260Y-125390D02*
D03*
D25*
X-403090Y-114300D02*
D03*
X-399120Y30480D02*
D03*
D26*
X-382090Y-114300D02*
D03*
X-378120Y30480D02*
D03*
D27*
X-349340Y153670D02*
D03*
X-299810Y195580D02*
D03*
Y236220D02*
D03*
Y276860D02*
D03*
Y317500D02*
D03*
X-342810D02*
D03*
Y276860D02*
D03*
Y236220D02*
D03*
Y195580D02*
D03*
X-392340Y153670D02*
D03*
X-412840Y297180D02*
D03*
X-455840D02*
D03*
D28*
X-348300Y82549D02*
D03*
X-388300D02*
D03*
X-383860Y332741D02*
D03*
X-423860D02*
D03*
M02*
