G04*
G04 #@! TF.GenerationSoftware,Altium Limited,Altium Designer,23.8.1 (32)*
G04*
G04 Layer_Color=65535*
%FSLAX44Y44*%
%MOMM*%
G71*
G04*
G04 #@! TF.SameCoordinates,0CA1B05D-E12B-4C76-85DA-CFDCD28D9C68*
G04*
G04*
G04 #@! TF.FilePolarity,Positive*
G04*
G01*
G75*
%ADD10C,0.2540*%
%ADD11C,0.2000*%
%ADD12C,0.1524*%
%ADD13C,0.1270*%
G36*
X160025Y112111D02*
X156215D01*
Y109571D01*
X160025D01*
Y112111D01*
D02*
G37*
G36*
X112111Y165025D02*
X109571D01*
Y161215D01*
X112111D01*
Y165025D01*
D02*
G37*
G36*
Y215025D02*
X109571D01*
Y211215D01*
X112111D01*
Y215025D01*
D02*
G37*
G36*
X140025Y284129D02*
X136215D01*
Y286669D01*
X140025D01*
Y284129D01*
D02*
G37*
G36*
X190025D02*
X186215D01*
Y286669D01*
X190025D01*
Y284129D01*
D02*
G37*
G36*
X210025Y112111D02*
X206215D01*
Y109571D01*
X210025D01*
Y112111D01*
D02*
G37*
G36*
X260025D02*
X256215D01*
Y109571D01*
X260025D01*
Y112111D01*
D02*
G37*
G36*
X284129Y185025D02*
X286669D01*
Y181215D01*
X284129D01*
Y185025D01*
D02*
G37*
G36*
Y235025D02*
X286669D01*
Y231215D01*
X284129D01*
Y235025D01*
D02*
G37*
G36*
X240025Y284129D02*
X236215D01*
Y286669D01*
X240025D01*
Y284129D01*
D02*
G37*
D10*
X-326317Y-458105D02*
X-323923Y-460499D01*
X-321529D01*
X-319135Y-462893D02*
Y-465287D01*
X-316741Y-467681D01*
X-314347D01*
X-313150Y-466484D01*
Y-464090D01*
X-314347Y-462893D01*
X-313150Y-464090D01*
X-310756D01*
X-309559Y-462893D01*
Y-460499D01*
X-311953Y-458105D01*
X-314347D01*
X-316741Y-455711D02*
Y-453317D01*
X-319135Y-450923D01*
X-321529D01*
X-326317Y-455711D01*
Y-458105D01*
X-288419Y-469662D02*
X-270459Y-451701D01*
X-324340Y-397820D01*
X-342301Y-415780D01*
X-288419Y-469662D01*
X-323923Y-448529D02*
Y-446135D01*
X-326317Y-443741D01*
X-328711D01*
X-329908Y-444938D01*
Y-447332D01*
X-327514Y-449726D01*
Y-452120D01*
X-328711Y-453317D01*
X-331105D01*
X-333499Y-450923D01*
Y-448529D01*
X-337090Y-447332D02*
X-341878Y-442544D01*
X-334696Y-435362D01*
X-329908Y-440150D01*
X-328930Y-434340D02*
X-342900Y-420370D01*
X-338287Y-438953D02*
X-335893Y-441347D01*
X-285748Y-347552D02*
Y-340781D01*
X-278977Y-347552D01*
X-277284D01*
X-275592Y-345859D01*
Y-342474D01*
X-277284Y-340781D01*
Y-337396D02*
X-275592Y-335703D01*
Y-332317D01*
X-277284Y-330624D01*
Y-327239D02*
X-275592Y-325546D01*
Y-322160D01*
X-277284Y-320468D01*
X-284056D01*
X-285748Y-322160D01*
Y-325546D01*
X-284056Y-327239D01*
X-285748Y-330624D02*
X-278977Y-337396D01*
X-277284D01*
X-285748D02*
Y-330624D01*
X-320042Y-294644D02*
Y-299722D01*
X-321734Y-301415D01*
X-325120D01*
X-326813Y-299722D01*
Y-294644D01*
X-320042D02*
X-330198D01*
X-353488Y-280246D02*
X-355181Y-281938D01*
X-358566D01*
X-360259Y-280246D01*
X-363644Y-281938D02*
X-370416D01*
X-363644Y-275167D01*
Y-273474D01*
X-365337Y-271782D01*
X-368723D01*
X-370416Y-273474D01*
X-373801D02*
X-375494Y-271782D01*
X-378880D01*
X-380572Y-273474D01*
Y-280246D01*
X-378880Y-281938D01*
X-375494D01*
X-373801Y-280246D01*
X-330198Y-301415D02*
X-326813Y-298030D01*
X-321734Y-304801D02*
X-320042Y-306494D01*
X-330198D01*
Y-308186D01*
Y-304801D01*
Y-313265D02*
X-323427Y-320036D01*
X-321734D01*
X-320042Y-318343D01*
Y-314958D01*
X-321734Y-313265D01*
X-311148Y-263311D02*
X-309456Y-265004D01*
X-311148Y-263311D02*
Y-259926D01*
X-309456Y-258233D01*
X-302684D01*
X-300992Y-259926D01*
Y-263311D01*
X-302684Y-265004D01*
Y-254847D02*
X-300992Y-253154D01*
Y-249769D01*
X-302684Y-248076D01*
X-309456D01*
X-311148Y-249769D01*
Y-253154D01*
X-309456Y-254847D01*
X-302684D01*
X-301996Y-195154D02*
X-295224D01*
X-293532Y-193461D01*
Y-190076D01*
X-295224Y-188383D01*
X-296917D01*
X-298610Y-190076D01*
Y-195154D01*
X-301996D02*
X-303688Y-193461D01*
Y-190076D01*
X-301996Y-188383D01*
X-303688Y-184997D02*
X-300303Y-181612D01*
Y-183304D02*
Y-178226D01*
X-303688D02*
X-293532D01*
Y-183304D01*
X-295224Y-184997D01*
X-298610D01*
X-300303Y-183304D01*
X-284054Y-169068D02*
Y-158912D01*
X-278976D01*
X-277283Y-160604D01*
Y-163990D01*
X-278976Y-165683D01*
X-284054D01*
X-280668D02*
X-277283Y-169068D01*
X-272204D02*
X-273897Y-167376D01*
Y-165683D01*
X-272204Y-163990D01*
X-273897Y-162297D01*
Y-160604D01*
X-272204Y-158912D01*
X-268819D01*
X-267126Y-160604D01*
Y-162297D01*
X-268819Y-163990D01*
X-267126Y-165683D01*
Y-167376D01*
X-268819Y-169068D01*
X-272204D01*
Y-163990D02*
X-268819D01*
X-245108Y-147739D02*
Y-146047D01*
X-234952D01*
X-236644Y-144354D01*
Y-140968D02*
X-234952Y-139276D01*
Y-135890D01*
X-236644Y-134197D01*
Y-130812D02*
X-234952Y-129119D01*
Y-125733D01*
X-236644Y-124040D01*
X-243416D01*
X-245108Y-125733D01*
Y-129119D01*
X-243416Y-130812D01*
X-245108Y-134197D02*
X-238337Y-140968D01*
X-236644D01*
X-245108D02*
Y-134197D01*
X-241300Y-104140D02*
X-260350D01*
Y-85090D01*
X-254002Y-97790D02*
Y-72390D01*
X-127000D01*
Y-97790D01*
X-254002D01*
X-246376Y-44026D02*
X-244683Y-45718D01*
X-241297D01*
X-239605Y-44026D01*
X-236219Y-45718D02*
X-232834D01*
X-234526D01*
Y-35562D01*
X-236219Y-37254D01*
X-239605D02*
X-241297Y-35562D01*
X-244683D01*
X-246376Y-37254D01*
Y-44026D01*
X-227755D02*
X-226062Y-45718D01*
X-222677D01*
X-220984Y-44026D01*
Y-40640D01*
X-222677Y-38947D01*
X-224370D01*
X-227755Y-40640D01*
Y-35562D01*
X-220984D01*
X-263318Y-19474D02*
X-265011Y-17782D01*
X-268396D01*
X-270089Y-19474D01*
Y-26246D01*
X-268396Y-27938D01*
X-265011D01*
X-263318Y-26246D01*
Y-19474D01*
X-273474D02*
X-275167Y-17782D01*
X-280246D01*
Y-27938D01*
X-275167D01*
X-273474Y-26246D01*
Y-19474D01*
X-283631Y-27938D02*
X-290402D01*
Y-17782D01*
X-296072Y-19310D02*
X-297764Y-21002D01*
X-304536D01*
X-306228Y-19310D01*
Y-15924D01*
X-304536Y-14231D01*
X-297764D01*
X-296072Y-15924D01*
Y-19310D01*
X-297764Y-10846D02*
X-296072Y-9153D01*
Y-5767D01*
X-297764Y-4074D01*
Y-689D02*
X-296072Y1004D01*
Y4390D01*
X-297764Y6082D01*
X-304536D01*
X-306228Y4390D01*
Y1004D01*
X-304536Y-689D01*
X-306228Y-4074D02*
X-299457Y-10846D01*
X-297764D01*
X-306228D02*
Y-4074D01*
X-314962Y22016D02*
X-316654Y25402D01*
X-320040Y28787D01*
X-323426D01*
X-325118Y27094D01*
Y23709D01*
X-323426Y22016D01*
X-321733D01*
X-320040Y23709D01*
Y28787D01*
Y32173D02*
X-321733Y33866D01*
Y38944D01*
X-325118D02*
X-314962D01*
Y33866D01*
X-316654Y32173D01*
X-320040D01*
X-321733Y35558D02*
X-325118Y32173D01*
X-319194Y74086D02*
X-325966Y80857D01*
X-327658D01*
Y85936D02*
X-325966Y84243D01*
X-319194D01*
X-317502Y85936D01*
Y91014D01*
X-327658D01*
Y85936D01*
X-317502Y80857D02*
Y74086D01*
X-319194D01*
X-317502Y98219D02*
Y104991D01*
X-327658D01*
Y98219D01*
X-322580Y101605D02*
Y104991D01*
Y110069D02*
X-324273Y108376D01*
X-325966D01*
X-327658Y110069D01*
Y113454D01*
X-325966Y115147D01*
Y118533D02*
X-317502D01*
Y113454D02*
X-319194Y115147D01*
X-320887D01*
X-322580Y113454D01*
Y110069D01*
X-319194Y108376D02*
X-317502Y110069D01*
Y113454D01*
Y125304D02*
X-325966D01*
X-327658Y123611D01*
Y120226D01*
X-325966Y118533D01*
X-322580Y132075D02*
Y135461D01*
Y132075D01*
Y135461D02*
X-327658D01*
X-322580D02*
X-317502D01*
Y128689D01*
X-284056Y154096D02*
X-285748Y155789D01*
Y159174D01*
X-284056Y160867D01*
X-280670D02*
X-278977Y157482D01*
Y155789D01*
X-280670Y154096D01*
X-284056D01*
X-275592D02*
Y160867D01*
X-280670D01*
Y164253D02*
X-282363Y165946D01*
Y171024D01*
X-285748D02*
X-275592D01*
Y165946D01*
X-277284Y164253D01*
X-280670D01*
X-282363Y167638D02*
X-285748Y164253D01*
X-283464Y177580D02*
X-356060D01*
X-359310Y180830D01*
Y210330D01*
X-356060Y213580D01*
X-283464D01*
X-283310D02*
Y177580D01*
X-278128Y188809D02*
X-276436Y187116D01*
X-274743D01*
X-273050Y188809D01*
Y193887D01*
X-276436D01*
X-278128Y192194D01*
Y188809D01*
X-273050Y193887D02*
X-269664Y190502D01*
X-267972Y187116D01*
X-269664Y197273D02*
X-267972Y198966D01*
Y204044D01*
X-278128D01*
Y198966D01*
X-276436Y197273D01*
X-269664D01*
X-237490Y229870D02*
Y280670D01*
X-262890D01*
Y229870D01*
X-237490D01*
X-232410Y232002D02*
X-222253Y238773D01*
Y243852D02*
X-223946Y242159D01*
X-227332D01*
X-229024Y243852D01*
Y248930D01*
X-232410D02*
X-222253D01*
Y243852D01*
X-229024Y245544D02*
X-232410Y242159D01*
Y238773D02*
X-222253Y232002D01*
X-227332Y252315D02*
Y259087D01*
X-232410Y262472D02*
X-222253Y269243D01*
Y272629D02*
Y276014D01*
X-232410D01*
Y269243D02*
X-222253Y262472D01*
Y272629D02*
Y279400D01*
X-205740Y297178D02*
Y449580D01*
X-231140D01*
Y297178D01*
X-205740D01*
X-163404Y289558D02*
Y279402D01*
X-156633D01*
X-153247Y281094D02*
X-151554Y279402D01*
X-148169D01*
X-146476Y281094D01*
X-153247D02*
Y287866D01*
X-151554Y289558D01*
X-148169D01*
X-146476Y287866D01*
X-104140Y297178D02*
Y449580D01*
X-78740D01*
Y297178D01*
X-104140D01*
X-91440Y290830D02*
X-72390D01*
Y309880D01*
Y322580D02*
Y347980D01*
X-43180Y299720D02*
X-17780D01*
Y198020D01*
Y198120D02*
X-43180D01*
X-17780D01*
Y96420D01*
Y96520D02*
X-43180D01*
Y96420D02*
Y198120D01*
Y198020D02*
Y299720D01*
X-12700Y292098D02*
Y281942D01*
X-5929D01*
X-851D02*
X-2543Y283634D01*
Y290406D01*
X-851Y292098D01*
X2535D01*
X4228Y290406D01*
Y283634D01*
X2535Y281942D01*
X-851D01*
X-9314Y287020D02*
X-12700D01*
Y292098D02*
X-5929D01*
Y266698D02*
X-12700D01*
Y256542D01*
X-5929D01*
X-2543D02*
X842D01*
X-851D01*
Y266698D01*
X-2543Y265006D01*
X-9314Y261620D02*
X-12700D01*
Y241298D02*
Y231142D01*
X-5929D01*
X-2543D02*
X4228Y237913D01*
Y239606D01*
X2535Y241298D01*
X-851D01*
X-2543Y239606D01*
X-5929Y241298D02*
X-12700D01*
Y236220D02*
X-9314D01*
X-2543Y231142D02*
X4228D01*
X2535Y215898D02*
X4228Y214206D01*
Y212513D01*
X2535Y210820D01*
X842D01*
X2535D01*
X4228Y209127D01*
Y207434D01*
X2535Y205742D01*
X-851D01*
X-2543Y207434D01*
X-5929Y205742D02*
X-12700D01*
Y215898D01*
X-5929D01*
X-851D02*
X2535D01*
X-851D02*
X-2543Y214206D01*
X-9314Y210820D02*
X-12700D01*
Y190498D02*
Y180342D01*
X-7622D01*
X-5929Y182034D01*
Y183727D01*
X-7622Y185420D01*
X-12700D01*
X-7622D01*
X-5929Y187113D01*
Y188806D01*
X-7622Y190498D01*
X-12700D01*
X-851D02*
X-2543Y188806D01*
X-851Y190498D02*
Y180342D01*
X842D01*
X-2543D01*
X20320Y198020D02*
Y299720D01*
X45720D01*
Y198020D01*
Y198120D02*
X20320D01*
X45720D01*
Y96420D01*
Y96520D02*
X20320D01*
Y96420D02*
Y198120D01*
X4228Y163406D02*
X2535Y165098D01*
X-851D01*
X-2543Y163406D01*
X-5929D02*
X-7622Y165098D01*
X-12700D01*
Y154942D01*
X-7622D01*
X-5929Y156634D01*
Y158327D01*
X-7622Y160020D01*
X-12700D01*
X-7622D01*
X-5929Y161713D01*
Y163406D01*
X4228D02*
Y161713D01*
X-2543Y154942D01*
X4228D01*
X2535Y139698D02*
X-2543Y134620D01*
X4228D01*
X2535Y129542D02*
Y139698D01*
X-5929Y138006D02*
X-7622Y139698D01*
X-12700D01*
Y129542D01*
X-7622D01*
X-5929Y131234D01*
Y132927D01*
X-7622Y134620D01*
X-12700D01*
X-7622D01*
X-5929Y136313D01*
Y138006D01*
Y112606D02*
X-7622Y114298D01*
X-12700D01*
Y104142D01*
X-7622D01*
X-5929Y105834D01*
Y107527D01*
X-7622Y109220D01*
X-12700D01*
X-7622D01*
X-5929Y110913D01*
Y112606D01*
X-2543Y114298D02*
Y109220D01*
X842Y110913D01*
X2535D01*
X4228Y109220D01*
Y105834D01*
X2535Y104142D01*
X-851D01*
X-2543Y105834D01*
Y114298D02*
X4228D01*
X52493D02*
X50800Y112606D01*
Y105834D01*
X52493Y104142D01*
X55878D01*
X57571Y105834D01*
X60957D02*
X62649Y104142D01*
X66035D01*
X67728Y105834D01*
Y107527D01*
X66035Y109220D01*
X64342D01*
X66035D01*
X67728Y110913D01*
Y112606D01*
X66035Y114298D01*
X62649D01*
X60957Y112606D01*
X57571D02*
X55878Y114298D01*
X52493D01*
Y129542D02*
X55878D01*
X57571Y131234D01*
X60957Y129542D02*
X67728Y136313D01*
Y138006D01*
X66035Y139698D01*
X62649D01*
X60957Y138006D01*
X57571D02*
X55878Y139698D01*
X52493D01*
X50800Y138006D01*
Y131234D01*
X52493Y129542D01*
X60957D02*
X67728D01*
X64342Y154942D02*
X62649D01*
Y165098D01*
X60957Y163406D01*
X57571D02*
X55878Y165098D01*
X52493D01*
X50800Y163406D01*
Y156634D01*
X52493Y154942D01*
X55878D01*
X57571Y156634D01*
X60957Y154942D02*
X64342D01*
X66035Y180342D02*
X62649D01*
X60957Y182034D01*
Y188806D01*
X62649Y190498D01*
X66035D01*
X67728Y188806D01*
Y182034D01*
X66035Y180342D01*
X67728Y214206D02*
X60957Y207434D01*
Y205742D01*
X57571D02*
X50800D01*
Y215898D01*
X57571D01*
X60957D02*
X67728D01*
Y214206D01*
X66035Y231142D02*
X67728Y232834D01*
Y234527D01*
X66035Y236220D01*
X60957D01*
Y232834D01*
X62649Y231142D01*
X66035D01*
X67728Y241298D02*
X64342Y239606D01*
X60957Y236220D01*
X54186D02*
X50800D01*
Y231142D02*
X57571D01*
X50800D02*
Y241298D01*
X57571D01*
X54186Y210820D02*
X50800D01*
X52493Y190498D02*
X50800Y188806D01*
Y182034D01*
X52493Y180342D01*
X55878D01*
X57571Y182034D01*
Y188806D02*
X55878Y190498D01*
X52493D01*
X66035Y256542D02*
X62649D01*
X60957Y258234D01*
Y261620D02*
X64342Y263313D01*
X66035D01*
X67728Y261620D01*
Y258234D01*
X66035Y256542D01*
X67728Y266698D02*
X60957D01*
Y261620D01*
X54186D02*
X50800D01*
Y256542D02*
X57571D01*
X50800D02*
Y266698D01*
X57571D01*
Y281942D02*
X50800D01*
Y292098D01*
X57571D01*
X54186Y287020D02*
X50800D01*
X60957D02*
X67728D01*
X66035Y281942D02*
Y292098D01*
X60957Y287020D01*
X104142Y328512D02*
Y335283D01*
X110913Y328512D01*
X112606D01*
X114298Y330205D01*
Y333591D01*
X112606Y335283D01*
Y338669D02*
X114298Y340362D01*
Y345440D01*
X104142D01*
Y340362D01*
X105834Y338669D01*
X112606D01*
X129542Y340362D02*
X131234Y338669D01*
X138006D01*
X139698Y340362D01*
Y345440D01*
X129542D01*
Y340362D01*
Y335283D02*
Y331898D01*
Y333591D01*
X139698D01*
X138006Y335283D01*
X154942Y330205D02*
Y333591D01*
X156634Y335283D01*
X163406D01*
X165098Y333591D01*
Y330205D01*
X163406Y328512D01*
X156634D01*
X154942Y330205D01*
X180342Y331898D02*
Y333591D01*
X190498D01*
X188806Y335283D01*
Y338669D02*
X190498Y340362D01*
Y343747D01*
X188806Y345440D01*
X182034D01*
X180342Y343747D01*
Y340362D01*
X182034Y338669D01*
X180342Y335283D02*
Y331898D01*
Y325127D02*
X182034Y326819D01*
X180342Y325127D02*
Y321741D01*
X182034Y320048D01*
X185420D01*
X187113Y321741D01*
Y323434D01*
X185420Y326819D01*
X190498D01*
Y320048D01*
X205742Y321741D02*
X215898D01*
X210820Y326819D01*
Y320048D01*
X205742Y331898D02*
Y333591D01*
X215898D01*
X214206Y335283D01*
Y338669D02*
X215898Y340362D01*
Y343747D01*
X214206Y345440D01*
X207434D01*
X205742Y343747D01*
Y340362D01*
X207434Y338669D01*
X205742Y335283D02*
Y331898D01*
X204046Y302258D02*
Y292102D01*
X209124D02*
X207431Y293794D01*
X209124Y292102D02*
X212509D01*
X214202Y293794D01*
Y295487D01*
X212509Y297180D01*
X210817D01*
X212509D01*
X214202Y298873D01*
Y300566D01*
X212509Y302258D01*
X209124D01*
X207431Y300566D01*
X204046Y302258D02*
X200660Y298873D01*
X197274Y302258D01*
Y292102D01*
X190503D02*
Y302258D01*
X193889D01*
X187118D01*
X183732Y300566D02*
X182039Y302258D01*
X178654D01*
X176961Y300566D01*
Y298873D01*
X178654Y297180D01*
X182039D01*
X183732Y295487D01*
Y293794D01*
X182039Y292102D01*
X178654D01*
X176961Y293794D01*
X217588Y292102D02*
X224359Y298873D01*
Y300566D01*
X222666Y302258D01*
X219281D01*
X217588Y300566D01*
Y292102D02*
X224359D01*
X263313Y320048D02*
X265006D01*
X266698Y321741D01*
Y325127D01*
X265006Y326819D01*
X263313Y320048D02*
X256542Y326819D01*
Y320048D01*
Y331898D02*
Y333591D01*
X266698D01*
X265006Y335283D01*
Y338669D02*
X266698Y340362D01*
Y343747D01*
X265006Y345440D01*
X258234D01*
X256542Y343747D01*
Y340362D01*
X258234Y338669D01*
X256542Y335283D02*
Y331898D01*
X239606Y326819D02*
X241298Y325127D01*
Y321741D01*
X239606Y320048D01*
X237913D01*
X236220Y321741D01*
Y323434D01*
Y321741D01*
X234527Y320048D01*
X232834D01*
X231142Y321741D01*
Y325127D01*
X232834Y326819D01*
X231142Y331898D02*
Y333591D01*
X241298D01*
X239606Y335283D01*
Y338669D02*
X241298Y340362D01*
Y343747D01*
X239606Y345440D01*
X232834D01*
X231142Y343747D01*
Y340362D01*
X232834Y338669D01*
X231142Y335283D02*
Y331898D01*
X281942Y330205D02*
X283634Y328512D01*
X290406D01*
X292098Y330205D01*
Y333591D01*
X290406Y335283D01*
X288713D01*
X287020Y333591D01*
Y328512D01*
X281942Y330205D02*
Y333591D01*
X283634Y335283D01*
Y338669D02*
X281942Y340362D01*
Y343747D01*
X283634Y345440D01*
X290406D01*
X292098Y343747D01*
Y340362D01*
X290406Y338669D01*
X299720Y350520D02*
Y375920D01*
X198020D01*
X198120D02*
Y350520D01*
Y375920D01*
X96420D01*
X96520D02*
Y350520D01*
X96420D02*
X198120D01*
X198020D02*
X299720D01*
X325900Y399379D02*
X343860Y417340D01*
X289979Y471221D01*
X272018Y453261D01*
X325900Y399379D01*
X344170Y421640D02*
X330200Y435610D01*
X334769Y437829D02*
X341951Y445011D01*
X337163Y449799D01*
X333572Y450996D02*
Y453390D01*
X331178Y455784D01*
X328784D01*
X327587Y454587D01*
Y452193D01*
X329981Y449799D01*
Y447405D01*
X328784Y446208D01*
X326390D01*
X323996Y448602D01*
Y450996D01*
X329981Y442617D02*
X334769Y437829D01*
X335966Y443814D02*
X338360Y441420D01*
X321602Y453390D02*
X326390Y458178D01*
Y460572D01*
X323996Y462966D01*
X321602D01*
X320405Y466557D02*
X318011Y468951D01*
X319208Y467754D01*
X312026Y460572D01*
X314420D01*
X316814Y458178D02*
Y455784D01*
X319208Y453390D01*
X321602D01*
X233680Y502920D02*
Y477520D01*
X157480D01*
Y502920D01*
X233680D01*
X220128Y508002D02*
X221821Y509694D01*
Y511387D01*
X220128Y513080D01*
X216742D01*
X215049Y514773D01*
Y516466D01*
X216742Y518158D01*
X220128D01*
X221821Y516466D01*
X220128Y508002D02*
X216742D01*
X215049Y509694D01*
X211664Y508002D02*
Y518158D01*
X204893D01*
X201507D02*
Y508002D01*
X196429D01*
X194736Y509694D01*
Y513080D01*
X196429Y514773D01*
X201507D01*
X198122D02*
X194736Y518158D01*
X191350Y514773D02*
X187965Y518158D01*
X184579Y514773D01*
Y508002D01*
X191350D02*
Y514773D01*
X208278Y513080D02*
X211664D01*
Y508002D02*
X204893D01*
X179705Y506730D02*
X160655D01*
X157480Y502920D02*
X81280D01*
Y477520D01*
X157480D01*
Y502920D01*
X141388Y508002D02*
X143081Y509694D01*
Y511387D01*
X141388Y513080D01*
X138002D01*
X136309Y514773D01*
Y516466D01*
X138002Y518158D01*
X141388D01*
X143081Y516466D01*
X141388Y508002D02*
X138002D01*
X136309Y509694D01*
X132924Y508002D02*
Y518158D01*
X126153D01*
X122767D02*
Y508002D01*
X115996Y518158D01*
Y508002D01*
X110918D02*
X112611Y509694D01*
Y511387D01*
X110918Y513080D01*
X107532D01*
X105839Y514773D01*
Y516466D01*
X107532Y518158D01*
X110918D01*
X112611Y516466D01*
X110918Y508002D02*
X107532D01*
X105839Y509694D01*
X126153Y508002D02*
X132924D01*
Y513080D02*
X129538D01*
X102870Y506730D02*
X83820D01*
X38100Y502920D02*
Y477520D01*
X-63600D01*
X-63500D02*
Y502920D01*
X-63600D02*
X38100D01*
X41064Y468626D02*
X39372Y466933D01*
Y463548D01*
X41064Y461855D01*
X39372Y458469D02*
Y455084D01*
Y456776D01*
X49528D01*
X47836Y458469D01*
Y461855D02*
X49528Y463548D01*
Y466933D01*
X47836Y468626D01*
X41064D01*
Y450005D02*
X39372D01*
X41064D02*
X47836Y443234D01*
X49528D01*
Y450005D01*
X104142Y408940D02*
X109220D01*
Y402169D01*
X114298D01*
X104142D01*
Y398783D02*
Y395398D01*
Y397090D01*
X114298D01*
X112606Y398783D01*
X114298Y408940D02*
X104142D01*
X129542D02*
X134620D01*
Y402169D01*
X139698D01*
X129542D01*
Y397090D02*
X131234Y398783D01*
X138006D01*
X139698Y397090D01*
Y393705D01*
X138006Y392012D01*
X131234D01*
X129542Y393705D01*
Y397090D01*
Y408940D02*
X139698D01*
X154942Y345440D02*
Y340362D01*
X156634Y338669D01*
X163406D01*
X165098Y340362D01*
Y345440D01*
X154942D01*
X188806Y392012D02*
X182034Y398783D01*
X180342D01*
Y403862D02*
X182034Y402169D01*
X188806D01*
X190498Y403862D01*
Y408940D01*
X180342D01*
Y403862D01*
X165098D02*
Y408940D01*
X154942D01*
Y403862D01*
X156634Y402169D01*
X163406D01*
X165098Y403862D01*
Y397090D02*
X163406Y398783D01*
X165098Y397090D02*
X154942D01*
Y395398D01*
Y398783D01*
Y388627D02*
X156634Y390319D01*
X163406D01*
X165098Y388627D01*
Y385241D01*
X163406Y383548D01*
X156634D01*
X154942Y385241D01*
Y388627D01*
X188806Y392012D02*
X190498D01*
Y398783D01*
X205742Y393705D02*
X215898D01*
X210820Y398783D01*
Y392012D01*
X207434Y402169D02*
X214206D01*
X215898Y403862D01*
Y408940D01*
X205742D01*
Y403862D01*
X207434Y402169D01*
X231142Y403862D02*
X232834Y402169D01*
X239606D01*
X241298Y403862D01*
Y408940D01*
X231142D01*
Y403862D01*
Y397090D02*
X232834Y398783D01*
X231142Y397090D02*
Y393705D01*
X232834Y392012D01*
X234527D01*
X236220Y393705D01*
Y395398D01*
Y393705D01*
X237913Y392012D01*
X239606D01*
X241298Y393705D01*
Y397090D01*
X239606Y398783D01*
X248920Y414020D02*
Y439420D01*
X147220D01*
X147320D02*
Y414020D01*
Y439420D01*
X96520D01*
Y414020D01*
X147320D01*
X147220D02*
X248920D01*
X350520Y299820D02*
Y198120D01*
X375920D01*
Y299820D01*
Y299720D02*
X350520D01*
X381000Y292098D02*
Y281942D01*
X386078D01*
X387771Y283634D01*
Y285327D01*
X386078Y287020D01*
X381000D01*
X386078D01*
X387771Y288713D01*
Y290406D01*
X386078Y292098D01*
X381000D01*
X391157Y290406D02*
X392850Y292098D01*
X396235D01*
X397928Y290406D01*
Y283634D01*
X396235Y281942D01*
X392850D01*
X391157Y283634D01*
Y290406D01*
X392850Y266698D02*
X391157Y265006D01*
X392850Y266698D02*
Y256542D01*
X394542D01*
X391157D01*
X387771D02*
Y261620D01*
X381000D01*
Y263313D02*
X384386Y266698D01*
X387771Y263313D01*
Y256542D01*
X381000D02*
Y263313D01*
X399621Y261620D02*
X403006Y263313D01*
X404699D01*
X406392Y261620D01*
Y258234D01*
X404699Y256542D01*
X401313D01*
X399621Y258234D01*
Y261620D02*
Y266698D01*
X406392D01*
Y239606D02*
X404699Y241298D01*
X401313D01*
X399621Y239606D01*
X406392D02*
Y237913D01*
X399621Y231142D01*
X406392D01*
X394542D02*
X392850D01*
Y241298D01*
X391157Y239606D01*
X387771Y237913D02*
Y231142D01*
Y236220D01*
X381000D01*
Y237913D02*
X384386Y241298D01*
X387771Y237913D01*
X381000D02*
Y231142D01*
X391157D02*
X394542D01*
X392850Y215898D02*
X391157Y214206D01*
X387771Y212513D02*
Y205742D01*
Y210820D01*
X381000D01*
Y212513D02*
X384386Y215898D01*
X387771Y212513D01*
X381000D02*
Y205742D01*
X391157D02*
X394542D01*
X392850D01*
Y215898D01*
X401313D02*
X399621Y214206D01*
Y205742D02*
X403006D01*
X401313D01*
Y215898D01*
Y190498D02*
X404699D01*
X406392Y188806D01*
Y182034D01*
X404699Y180342D01*
X401313D01*
X399621Y182034D01*
Y188806D01*
X401313Y190498D01*
X392850D02*
X391157Y188806D01*
X392850Y190498D02*
Y180342D01*
X394542D01*
X391157D01*
X387771D02*
Y185420D01*
X381000D01*
Y187113D02*
X384386Y190498D01*
X387771Y187113D01*
Y180342D01*
X381000D02*
Y187113D01*
X414020Y198120D02*
X439420D01*
Y198120D02*
Y299820D01*
Y299720D02*
X414020D01*
Y299820D02*
Y198120D01*
X439420D01*
Y198220D02*
Y96520D01*
X414020D01*
Y198220D01*
X397928Y163406D02*
X396235Y165098D01*
X392850D01*
X391157Y163406D01*
Y161713D01*
X392850Y160020D01*
X397928D01*
Y156634D02*
Y163406D01*
Y156634D02*
X396235Y154942D01*
X392850D01*
X391157Y156634D01*
X387771Y154942D02*
Y160020D01*
X381000D01*
Y161713D02*
X384386Y165098D01*
X387771Y161713D01*
Y154942D01*
X381000D02*
Y161713D01*
X384386Y139698D02*
X387771Y136313D01*
Y129542D01*
Y134620D01*
X381000D01*
Y136313D02*
X384386Y139698D01*
X391157Y138006D02*
X392850Y139698D01*
X396235D01*
X397928Y138006D01*
Y136313D01*
X396235Y134620D01*
X397928Y132927D01*
Y131234D01*
X396235Y129542D01*
X392850D01*
X391157Y131234D01*
Y132927D01*
X392850Y134620D01*
X391157Y136313D01*
Y138006D01*
X392850Y134620D02*
X396235D01*
X381000Y136313D02*
Y129542D01*
X384386Y114298D02*
X387771Y110913D01*
Y104142D01*
Y109220D01*
X381000D01*
Y110913D02*
X384386Y114298D01*
X381000Y110913D02*
Y104142D01*
X392850D02*
X391157Y105834D01*
X392850Y104142D02*
X396235D01*
X397928Y105834D01*
Y107527D01*
X396235Y109220D01*
X394542D01*
X396235D01*
X397928Y110913D01*
Y112606D01*
X396235Y114298D01*
X392850D01*
X391157Y112606D01*
X425450Y60960D02*
X476250D01*
Y7620D01*
X425450D01*
Y60960D01*
X442009Y44493D02*
X440238Y42635D01*
X438851Y40476D01*
X437897Y38094D01*
X437411Y35573D01*
Y33007D01*
X437897Y30487D01*
X438851Y28104D01*
X440238Y25945D01*
X442009Y24087D01*
X444100Y22598D01*
X446435Y21532D01*
X448929Y20927D01*
X451492Y20805D01*
X454033Y21170D01*
X456458Y22010D01*
X458681Y23293D01*
X460621Y24974D01*
X462207Y26991D01*
X463383Y29272D01*
X464106Y31735D01*
X464350Y34290D01*
Y34290D02*
X464106Y36845D01*
X463383Y39307D01*
X462207Y41589D01*
X460621Y43606D01*
X458681Y45287D01*
X456458Y46570D01*
X454033Y47410D01*
X451492Y47775D01*
X448929Y47653D01*
X446435Y47048D01*
X444100Y45982D01*
X442009Y44493D01*
X483028Y39368D02*
X488106D01*
X489799Y37676D01*
Y34290D01*
X488106Y32597D01*
X483028D01*
Y29212D02*
Y39368D01*
X486413Y32597D02*
X489799Y29212D01*
X494877D02*
X493184Y30904D01*
X494877Y29212D02*
X498263D01*
X499956Y30904D01*
Y32597D01*
X498263Y34290D01*
X494877D01*
X493184Y35983D01*
Y37676D01*
X494877Y39368D01*
X498263D01*
X499956Y37676D01*
X503341Y39368D02*
X510112D01*
X506727D01*
Y29212D01*
X466506Y104142D02*
X464813D01*
Y114298D01*
X463121Y112606D01*
Y104142D02*
X466506D01*
X469892Y129542D02*
X463121D01*
X469892Y136313D01*
Y138006D01*
X468199Y139698D01*
X464813D01*
X463121Y138006D01*
X464813Y154942D02*
X463121Y156634D01*
X464813Y154942D02*
X468199D01*
X469892Y156634D01*
Y158327D01*
X468199Y160020D01*
X466506D01*
X468199D01*
X469892Y161713D01*
Y163406D01*
X468199Y165098D01*
X464813D01*
X463121Y163406D01*
X468199Y180342D02*
Y190498D01*
X463121Y185420D01*
X469892D01*
X459735Y205742D02*
Y215898D01*
X454657Y210820D01*
X461428D01*
Y232834D02*
X459735Y231142D01*
X456349D01*
X454657Y232834D01*
Y236220D02*
X458042Y237913D01*
X459735D01*
X461428Y236220D01*
Y232834D01*
Y241298D02*
X454657D01*
Y236220D01*
X451271Y232834D02*
X449578Y231142D01*
X446193D01*
X444500Y232834D01*
Y239606D01*
X446193Y241298D01*
X449578D01*
X451271Y239606D01*
X449578Y215898D02*
X446193D01*
X444500Y214206D01*
Y207434D01*
X446193Y205742D01*
X449578D01*
X451271Y207434D01*
Y214206D02*
X449578Y215898D01*
Y190498D02*
X444500D01*
Y180342D01*
X449578D01*
X451271Y182034D01*
Y188806D01*
X449578Y190498D01*
X456349D02*
X454657Y188806D01*
X456349Y190498D02*
Y180342D01*
X458042D01*
X454657D01*
X456349Y165098D02*
X454657Y163406D01*
X456349Y165098D02*
Y154942D01*
X458042D01*
X454657D01*
X449578D02*
X451271Y156634D01*
Y163406D01*
X449578Y165098D01*
X444500D01*
Y154942D01*
X449578D01*
Y139698D02*
X444500D01*
Y129542D01*
X449578D01*
X451271Y131234D01*
Y138006D01*
X449578Y139698D01*
X456349D02*
X454657Y138006D01*
X456349Y139698D02*
Y129542D01*
X458042D01*
X454657D01*
X456349Y114298D02*
X454657Y112606D01*
X456349Y114298D02*
Y104142D01*
X458042D01*
X454657D01*
X449578D02*
X451271Y105834D01*
Y112606D01*
X449578Y114298D01*
X444500D01*
Y104142D01*
X449578D01*
X375920Y198120D02*
X350520D01*
Y198220D02*
Y96520D01*
X375920D01*
Y198220D01*
X444500Y258234D02*
X446193Y256542D01*
X449578D01*
X451271Y258234D01*
X454657D02*
Y256542D01*
Y258234D02*
X461428Y265006D01*
Y266698D01*
X454657D01*
X451271Y265006D02*
X449578Y266698D01*
X446193D01*
X444500Y265006D01*
Y258234D01*
Y283634D02*
X446193Y281942D01*
X449578D01*
X451271Y283634D01*
X454657D02*
Y285327D01*
X456349Y287020D01*
X454657Y288713D01*
Y290406D01*
X456349Y292098D01*
X459735D01*
X461428Y290406D01*
Y288713D01*
X459735Y287020D01*
X461428Y285327D01*
Y283634D01*
X459735Y281942D01*
X456349D01*
X454657Y283634D01*
X456349Y287020D02*
X459735D01*
X451271Y290406D02*
X449578Y292098D01*
X446193D01*
X444500Y290406D01*
Y283634D01*
X295487Y80854D02*
Y75776D01*
X297180Y74083D01*
X300566D01*
X302258Y75776D01*
Y80854D01*
X292102D01*
X295487Y77468D02*
X292102Y74083D01*
Y69004D02*
X293794Y70697D01*
X292102Y69004D02*
Y65619D01*
X293794Y63926D01*
X295487D01*
X297180Y65619D01*
Y67312D01*
Y65619D01*
X298873Y63926D01*
X300566D01*
X302258Y65619D01*
Y69004D01*
X300566Y70697D01*
X299820Y45720D02*
X198120D01*
Y20320D01*
X299820D01*
X299720D02*
Y45720D01*
X292098Y15240D02*
X281942D01*
Y10162D01*
X283634Y8469D01*
X285327D01*
X287020Y10162D01*
Y15240D01*
Y10162D01*
X288713Y8469D01*
X290406D01*
X292098Y10162D01*
Y15240D01*
Y3390D02*
X290406Y5083D01*
X292098Y3390D02*
X281942D01*
Y1698D01*
Y5083D01*
Y-3381D02*
X288713Y-10152D01*
X290406D01*
X292098Y-8459D01*
Y-5073D01*
X290406Y-3381D01*
X281942D02*
Y-10152D01*
X273463Y-17782D02*
X275156Y-19474D01*
Y-21167D01*
X273463Y-22860D01*
X271770D01*
X273463D01*
X275156Y-24553D01*
Y-26246D01*
X273463Y-27938D01*
X270077D01*
X268385Y-26246D01*
X264999Y-24553D02*
Y-17782D01*
X268385Y-19474D02*
X270077Y-17782D01*
X273463D01*
X266698Y-5073D02*
X265006Y-3381D01*
X266698Y-5073D02*
X256542D01*
Y-6766D01*
Y-3381D01*
Y1698D02*
Y3390D01*
X266698D01*
X265006Y5083D01*
Y8469D02*
X266698Y10162D01*
Y15240D01*
X256542D01*
Y10162D01*
X258234Y8469D01*
X259927D01*
X261620Y10162D01*
Y15240D01*
Y10162D01*
X263313Y8469D01*
X265006D01*
X293804Y-17782D02*
Y-27938D01*
X298883D01*
X300575Y-26246D01*
Y-19474D01*
X298883Y-17782D01*
X293804D01*
X289560Y-33020D02*
X365760D01*
Y-58420D01*
X289560D01*
Y-33020D01*
X279400D02*
Y-58420D01*
X203200D01*
Y-33020D01*
X279400D01*
X264999Y-24553D02*
X261613Y-27938D01*
X258228Y-24553D01*
Y-17782D01*
X253150D02*
X254842Y-19474D01*
Y-21167D01*
X253150Y-22860D01*
X251457D01*
X253150D01*
X254842Y-24553D01*
Y-26246D01*
X253150Y-27938D01*
X249764D01*
X248071Y-26246D01*
X244686Y-22860D02*
X237914D01*
X234529Y-26246D02*
Y-19474D01*
X232836Y-17782D01*
X227758D01*
Y-27938D01*
X232836D01*
X234529Y-26246D01*
X224372Y-27938D02*
Y-17782D01*
X232834Y-10152D02*
X231142Y-8459D01*
Y-5073D01*
X232834Y-3381D01*
X239606D01*
X241298Y-5073D01*
Y-8459D01*
X239606Y-10152D01*
X232834D01*
X231142Y1698D02*
Y3390D01*
X241298D01*
X239606Y5083D01*
Y8469D02*
X241298Y10162D01*
Y15240D01*
X231142D01*
Y10162D01*
X232834Y8469D01*
X234527D01*
X236220Y10162D01*
Y15240D01*
Y10162D01*
X237913Y8469D01*
X239606D01*
X231142Y5083D02*
Y1698D01*
X256542D02*
Y5083D01*
X253150Y-17782D02*
X249764D01*
X248071Y-19474D01*
X224372Y-27938D02*
X217601Y-17782D01*
Y-27938D01*
X212523D02*
X214215Y-26246D01*
Y-22860D01*
X210830D01*
X207444Y-26246D02*
X209137Y-27938D01*
X212523D01*
X207444Y-26246D02*
Y-19474D01*
X209137Y-17782D01*
X212523D01*
X214215Y-19474D01*
X214206Y-1688D02*
X215898Y5D01*
Y3390D01*
X214206Y5083D01*
X212513D01*
X210820Y3390D01*
Y-1688D01*
X207434D02*
X214206D01*
X207434D02*
X205742Y5D01*
Y3390D01*
X207434Y5083D01*
Y8469D02*
X209127D01*
X210820Y10162D01*
Y15240D01*
Y10162D01*
X212513Y8469D01*
X214206D01*
X215898Y10162D01*
Y15240D01*
X205742D01*
Y10162D01*
X207434Y8469D01*
X194945Y16510D02*
X175895D01*
X165098Y15240D02*
X154942D01*
Y8469D01*
Y5083D02*
Y1698D01*
Y3390D01*
X165098D01*
X163406Y5083D01*
X165098Y8469D02*
Y15240D01*
X160020D02*
Y11854D01*
X163406Y-3381D02*
X165098Y-5073D01*
Y-8459D01*
X163406Y-10152D01*
X161713D01*
X154942Y-3381D01*
Y-10152D01*
X198120Y20320D02*
Y45720D01*
X198220D02*
X96520D01*
Y20320D01*
X198220D01*
X139698Y15240D02*
X129542D01*
Y8469D01*
Y5083D02*
Y1698D01*
Y3390D01*
X139698D01*
X138006Y5083D01*
X139698Y8469D02*
Y15240D01*
X134620D02*
Y11854D01*
X131234Y-3381D02*
X138006D01*
X139698Y-5073D01*
Y-8459D01*
X138006Y-10152D01*
X131234D01*
X129542Y-8459D01*
Y-5073D01*
X131234Y-3381D01*
X114298Y5D02*
X112606Y-1688D01*
X110913D01*
X109220Y5D01*
X107527Y-1688D01*
X105834D01*
X104142Y5D01*
Y3390D01*
X105834Y5083D01*
X107527D01*
X109220Y3390D01*
X110913Y5083D01*
X112606D01*
X114298Y3390D01*
Y5D01*
X109220D02*
Y3390D01*
Y11854D02*
Y15240D01*
X114298D02*
X104142D01*
Y8469D01*
X114298D02*
Y15240D01*
X88900Y-72390D02*
Y-97790D01*
X-114302D01*
Y-72390D01*
X88900D01*
X-4Y-102872D02*
Y-111336D01*
X-1697Y-113028D01*
X-5082D01*
X-6775Y-111336D01*
Y-102872D01*
X-10161D02*
Y-113028D01*
Y-102872D02*
X-13546Y-106257D01*
X-16932Y-102872D01*
Y-113028D01*
X-22010D02*
X-25396D01*
X-23703D01*
Y-102872D01*
X-22010D01*
X-25396D01*
X-23699Y-138432D02*
Y-148588D01*
X-16928D01*
X-13542Y-146896D02*
X-11849Y-148588D01*
X-8464D01*
X-6771Y-146896D01*
Y-145203D01*
X-8464Y-143510D01*
X-11849D01*
X-13542Y-141817D01*
Y-140124D01*
X-11849Y-138432D01*
X-8464D01*
X-6771Y-140124D01*
X-3386Y-145203D02*
X1693D01*
X3386Y-143510D01*
Y-140124D01*
X1693Y-138432D01*
X-3386D01*
Y-148588D01*
X8464D02*
X6771Y-146896D01*
X8464Y-148588D02*
X11849D01*
X13542Y-146896D01*
Y-145203D01*
X11849Y-143510D01*
X10157D01*
X11849D01*
X13542Y-141817D01*
Y-140124D01*
X11849Y-138432D01*
X8464D01*
X6771Y-140124D01*
X16928D02*
X18621Y-138432D01*
X22006D01*
X23699Y-140124D01*
Y-141817D01*
X16928Y-148588D01*
X23699D01*
X-16928Y-138432D02*
X-23699D01*
Y-143510D02*
X-20313D01*
X-120650Y-85090D02*
Y-104140D01*
X-101600D01*
X-152404Y-136314D02*
X-154097Y-134622D01*
X-157482D01*
X-159175Y-136314D01*
X-152404D02*
Y-138007D01*
X-159175Y-144778D01*
X-152404D01*
X-164254D02*
X-165946D01*
Y-134622D01*
X-167639Y-136314D01*
Y-144778D02*
X-164254D01*
X-171025Y-136314D02*
X-172717Y-134622D01*
X-176103D01*
X-177796Y-136314D01*
Y-143086D01*
X-176103Y-144778D01*
X-172717D01*
X-171025Y-143086D01*
X-178650Y-113028D02*
X-176958Y-111336D01*
Y-107950D01*
X-180343D01*
X-183729Y-111336D02*
X-182036Y-113028D01*
X-178650D01*
X-183729Y-111336D02*
Y-104564D01*
X-182036Y-102872D01*
X-178650D01*
X-176958Y-104564D01*
X-187114Y-106257D02*
Y-113028D01*
Y-107950D01*
X-193886D01*
Y-106257D02*
X-190500Y-102872D01*
X-187114Y-106257D01*
X-193886D02*
Y-113028D01*
X-197271D02*
Y-102872D01*
X-200657Y-106257D01*
X-204042Y-102872D01*
Y-113028D01*
X-245108Y-144354D02*
Y-147739D01*
X-318772Y-122764D02*
X-320464D01*
X-327236Y-115993D01*
X-328928D01*
Y-112607D02*
X-325543Y-109222D01*
Y-110914D02*
Y-105836D01*
Y-110914D02*
X-323850Y-112607D01*
X-320464D01*
X-318772Y-110914D01*
Y-105836D01*
X-328928D01*
X-333720Y-101080D02*
Y13920D01*
X-419720D01*
Y-101080D01*
X-333720D01*
X-352216Y-131234D02*
X-353909Y-129542D01*
X-358987D01*
Y-139698D01*
X-353909D01*
X-352216Y-138006D01*
Y-131234D01*
X-362373D02*
X-364066Y-129542D01*
X-367451D01*
X-369144Y-131234D01*
Y-138006D01*
X-367451Y-139698D01*
X-364066D01*
X-362373Y-138006D01*
Y-134620D01*
X-365758D01*
X-311993Y-160022D02*
Y-170178D01*
X-306915D01*
X-305222Y-168486D01*
Y-161714D01*
X-306915Y-160022D01*
X-311993D01*
X-300144D02*
X-301836Y-161714D01*
X-300144Y-160022D02*
Y-170178D01*
X-298451D01*
X-301836D01*
X-293372D02*
X-289987D01*
X-291680D01*
Y-160022D01*
X-293372Y-161714D01*
X-318772Y-122764D02*
Y-115993D01*
X-381427Y-128272D02*
X-379734Y-129964D01*
Y-136736D01*
X-381427Y-138428D01*
X-384812D01*
X-386505Y-136736D01*
Y-129964D01*
X-384812Y-128272D01*
X-381427D01*
X-393276D02*
X-394969Y-129964D01*
X-393276Y-128272D02*
Y-138428D01*
X-391584D01*
X-394969D01*
X-400047D02*
X-398355Y-136736D01*
Y-129964D01*
X-400047Y-128272D01*
X-405126D01*
Y-138428D01*
X-400047D01*
X-432650Y-90168D02*
Y-80012D01*
X-437729Y-85090D01*
X-430958D01*
X-441114Y-83397D02*
Y-81704D01*
X-442807Y-80012D01*
X-446193D01*
X-447886Y-81704D01*
X-451271D02*
X-452964Y-80012D01*
X-456349D01*
X-458042Y-81704D01*
Y-88476D01*
X-456349Y-90168D01*
X-452964D01*
X-451271Y-88476D01*
X-447886Y-90168D02*
X-441114Y-83397D01*
Y-90168D02*
X-447886D01*
X-436456Y-34286D02*
X-438148Y-32593D01*
Y-29208D01*
X-436456Y-27515D01*
X-429684D01*
X-427992Y-29208D01*
Y-32593D01*
X-429684Y-34286D01*
X-436456D01*
X-438148Y-22436D02*
Y-20744D01*
X-427992D01*
X-429684Y-19051D01*
Y-15665D02*
X-433070D01*
X-434763Y-13973D01*
Y-8894D01*
X-438148D02*
X-427992D01*
Y-13973D01*
X-429684Y-15665D01*
X-434763Y-12280D02*
X-438148Y-15665D01*
Y-19051D02*
Y-22436D01*
X-442387Y-14128D02*
X-444080D01*
Y-3972D01*
X-445772Y-5664D01*
X-452544Y-3972D02*
X-454236Y-5664D01*
X-452544Y-3972D02*
Y-14128D01*
X-450851D01*
X-454236D01*
X-457622D02*
X-461007Y-10743D01*
X-459315D02*
X-464393D01*
Y-14128D02*
Y-3972D01*
X-459315D01*
X-457622Y-5664D01*
Y-9050D01*
X-459315Y-10743D01*
X-462275Y1272D02*
X-458890Y4657D01*
Y11428D01*
X-455504D02*
X-450426D01*
X-448733Y9736D01*
Y6350D01*
X-450426Y4657D01*
X-455504D01*
Y1272D02*
Y11428D01*
X-465661D02*
Y4657D01*
X-462275Y1272D01*
X-452118Y4657D02*
X-448733Y1272D01*
X-445772Y-14128D02*
X-442387D01*
X-445347Y1272D02*
X-438576D01*
X-435191Y2964D02*
X-433498Y1272D01*
X-430112D01*
X-428419Y2964D01*
Y6350D01*
X-431805D01*
X-435191Y2964D02*
Y9736D01*
X-433498Y11428D01*
X-430112D01*
X-428419Y9736D01*
X-423530Y7570D02*
Y17730D01*
X-413370D01*
X-438576Y11428D02*
X-445347D01*
Y1272D01*
Y6350D02*
X-441962D01*
X-422908Y23709D02*
X-421216Y22016D01*
X-414444D01*
X-412752Y23709D01*
Y27094D01*
X-414444Y28787D01*
X-416137D01*
X-417830Y27094D01*
Y22016D01*
X-422908Y23709D02*
Y27094D01*
X-421216Y28787D01*
Y32173D02*
X-414444D01*
X-412752Y33866D01*
Y38944D01*
X-422908D01*
Y33866D01*
X-421216Y32173D01*
X-401050Y66800D02*
X-332300D01*
Y97300D01*
X-401550D01*
X-404300Y94550D01*
Y70050D01*
X-401050Y66800D01*
X-365756Y56726D02*
Y49954D01*
X-364063Y48262D01*
X-360677D01*
X-358985Y49954D01*
X-355599Y48262D02*
X-352214D01*
X-353906D01*
Y58418D01*
X-355599Y56726D01*
X-358985D02*
X-360677Y58418D01*
X-364063D01*
X-365756Y56726D01*
X-347135D02*
Y55033D01*
X-345442Y53340D01*
X-340364D01*
Y49954D02*
Y56726D01*
X-342057Y58418D01*
X-345442D01*
X-347135Y56726D01*
Y49954D02*
X-345442Y48262D01*
X-342057D01*
X-340364Y49954D01*
X-332994Y135670D02*
X-405590D01*
X-408840Y138920D01*
Y168420D01*
X-405590Y171670D01*
X-332994D01*
X-332840D02*
Y135670D01*
X-414022Y146899D02*
X-415714Y145206D01*
X-417407D01*
X-419100Y146899D01*
X-420793Y145206D01*
X-422486D01*
X-424178Y146899D01*
Y150284D01*
X-422486Y151977D01*
X-420793D01*
X-419100Y150284D01*
X-417407Y151977D01*
X-415714D01*
X-414022Y150284D01*
Y146899D01*
X-419100D02*
Y150284D01*
X-422486Y155363D02*
X-415714D01*
X-414022Y157056D01*
Y162134D01*
X-424178D01*
Y157056D01*
X-422486Y155363D01*
X-422908Y112411D02*
Y107332D01*
X-421216Y105639D01*
X-419523D01*
X-417830Y107332D01*
Y112411D01*
Y107332D01*
X-416137Y105639D01*
X-414444D01*
X-412752Y107332D01*
Y112411D01*
X-422908D01*
Y102254D02*
X-416137D01*
X-412752Y98868D01*
X-416137Y95483D01*
X-422908D01*
X-417830D01*
Y102254D01*
X-412752Y92097D02*
Y85326D01*
Y88712D01*
X-422908D01*
Y78555D02*
X-412752D01*
Y75169D01*
Y81940D01*
X-498266Y-1272D02*
Y-11428D01*
X-505037D02*
Y-1272D01*
X-501652Y-4657D01*
X-498266Y-1272D01*
X-510116D02*
X-508423Y-2964D01*
Y-6350D01*
X-510116Y-8043D01*
X-515194D01*
Y-11428D02*
Y-1272D01*
X-510116D01*
X-421638Y-182038D02*
X-411482D01*
Y-187116D01*
X-413174Y-188809D01*
X-416560D01*
X-418253Y-187116D01*
Y-182038D01*
X-419946Y-192194D02*
X-421638Y-193887D01*
Y-197273D01*
X-419946Y-198966D01*
X-413174D01*
X-411482Y-197273D01*
Y-193887D01*
X-413174Y-192194D01*
X-419946D01*
X-421638Y-202351D02*
X-418253Y-205737D01*
X-421638Y-209122D01*
X-411482D01*
Y-202351D02*
X-421638D01*
X-360259Y-273474D02*
X-358566Y-271782D01*
X-355181D01*
X-353488Y-273474D01*
Y-275167D01*
X-355181Y-276860D01*
X-356873D01*
X-355181D01*
X-353488Y-278553D01*
Y-280246D01*
X-330198Y-313265D02*
Y-320036D01*
X-203200Y-461010D02*
X-101500D01*
X-101600D02*
X100D01*
X0D02*
X101700D01*
X101600D02*
X203300D01*
X203200D02*
Y-435610D01*
X203300D02*
X101600D01*
Y-461010D01*
Y-435610D01*
X101700D02*
X0D01*
Y-461010D01*
Y-435610D01*
X100D02*
X-101600D01*
Y-461010D01*
Y-435610D01*
X-101500D02*
X-203200D01*
Y-461010D01*
X-182876Y-471173D02*
X-177798D01*
X-176105Y-472866D01*
Y-476252D01*
X-177798Y-477944D01*
X-182876D01*
Y-481330D02*
Y-471173D01*
X-171026D02*
X-172719Y-472866D01*
X-171026Y-471173D02*
Y-481330D01*
X-169334D01*
X-172719D01*
X-177800Y-486410D02*
X-76100D01*
Y-468630D01*
X-66877Y-471173D02*
X-61799D01*
X-60106Y-472866D01*
Y-476252D01*
X-61799Y-477944D01*
X-66877D01*
Y-481330D02*
Y-471173D01*
X-55028D02*
X-56721Y-472866D01*
X-55028Y-471173D02*
X-51642D01*
X-49949Y-472866D01*
Y-474559D01*
X-56721Y-481330D01*
X-49949D01*
X-44871D02*
X-46564Y-479637D01*
Y-476252D02*
X-43178Y-474559D01*
X-41486D01*
X-39793Y-476252D01*
Y-479637D01*
X-41486Y-481330D01*
X-44871D01*
X-46564Y-476252D02*
Y-471173D01*
X-39793D01*
X-36407Y-476252D02*
X-29636D01*
X-26251Y-472866D02*
X-24558Y-471173D01*
X-21172D01*
X-19479Y-472866D01*
Y-474559D01*
X-26251Y-481330D01*
X-19479D01*
X-16094D02*
Y-479637D01*
X-9323Y-472866D01*
Y-471173D01*
X-16094D01*
X25400Y-511810D02*
X127100D01*
X127000D02*
Y-486410D01*
X177800D01*
Y-511810D01*
X127000D01*
Y-486410D01*
X127100D02*
X25400D01*
Y-511810D01*
Y-486410D01*
X25500D02*
X-76200D01*
Y-511810D01*
X25500D01*
X27101Y-477944D02*
X22023D01*
Y-481330D02*
Y-471173D01*
X27101D01*
X28794Y-472866D01*
Y-476252D01*
X27101Y-477944D01*
X32179Y-479637D02*
X33872Y-481330D01*
X37258D01*
X38951Y-479637D01*
Y-477944D01*
X37258Y-476252D01*
X35565D01*
X37258D01*
X38951Y-474559D01*
Y-472866D01*
X37258Y-471173D01*
X33872D01*
X32179Y-472866D01*
X42336D02*
X44029Y-471173D01*
X47414D01*
X49107Y-472866D01*
Y-474559D01*
X42336Y-481330D01*
X49107D01*
X52493Y-476252D02*
X59264D01*
X62649Y-479637D02*
X64342Y-481330D01*
X67728D01*
X69421Y-479637D01*
Y-477944D01*
X67728Y-476252D01*
X66035D01*
X67728D01*
X69421Y-474559D01*
Y-472866D01*
X67728Y-471173D01*
X64342D01*
X62649Y-472866D01*
X72806Y-471173D02*
Y-476252D01*
X76192Y-474559D01*
X77885D01*
X79577Y-476252D01*
Y-479637D01*
X77885Y-481330D01*
X74499D01*
X72806Y-479637D01*
Y-471173D02*
X79577D01*
X101600Y-468630D02*
Y-486410D01*
X108800Y-481330D02*
X107108Y-479637D01*
X108800Y-481330D02*
X112186D01*
X113879Y-479637D01*
Y-477944D01*
X112186Y-476252D01*
X108800D01*
X107108Y-474559D01*
Y-472866D01*
X108800Y-471173D01*
X112186D01*
X113879Y-472866D01*
X117264Y-471173D02*
Y-477944D01*
X120650Y-481330D01*
X124036Y-477944D01*
Y-471173D01*
X127421D02*
X132500D01*
X134192Y-472866D01*
Y-476252D01*
X132500Y-477944D01*
X127421D01*
Y-481330D02*
Y-471173D01*
X141820D02*
X140128Y-472866D01*
Y-474559D01*
X141820Y-476252D01*
X145206D01*
X146899Y-477944D01*
Y-479637D01*
X145206Y-481330D01*
X141820D01*
X140128Y-479637D01*
X141820Y-471173D02*
X145206D01*
X146899Y-472866D01*
X150284Y-471173D02*
Y-477944D01*
X153670Y-481330D01*
X157056Y-477944D01*
Y-471173D01*
X160441D02*
X167212Y-481330D01*
Y-471173D01*
X160441D02*
Y-481330D01*
X185843Y-494032D02*
X184150Y-495724D01*
Y-502496D01*
X185843Y-504188D01*
X189228D01*
X190921Y-502496D01*
Y-499110D01*
X187536D01*
X190921Y-495724D02*
X189228Y-494032D01*
X185843D01*
X194307D02*
X201078Y-504188D01*
Y-494032D01*
X204463D02*
Y-504188D01*
X209542D01*
X211235Y-502496D01*
Y-495724D01*
X209542Y-494032D01*
X204463D01*
X194307D02*
Y-504188D01*
X287439Y-472202D02*
X341320Y-418320D01*
X323360Y-400360D01*
X269478Y-454241D01*
X287439Y-472202D01*
X292100Y-472440D02*
X306070Y-458470D01*
X313150Y-459448D02*
X308362Y-464236D01*
X315544Y-471418D01*
X320332Y-466630D01*
X321529Y-463039D02*
X323923D01*
X326317Y-460645D01*
Y-458251D01*
X325120Y-457054D01*
X322726D01*
X320332Y-459448D01*
X317938D01*
X316741Y-458251D01*
Y-455857D01*
X319135Y-453463D01*
X321529D01*
X328711Y-455857D02*
X331105D01*
X333499Y-453463D01*
Y-451069D01*
X337090Y-449872D02*
Y-440296D01*
X335893Y-439099D01*
X333499D01*
X331105Y-441493D01*
Y-443887D01*
X328711Y-446281D02*
X326317D01*
X323923Y-448675D01*
Y-451069D01*
X328711Y-455857D01*
X314347Y-465433D02*
X311953Y-467827D01*
X341878Y-445084D02*
X337090Y-449872D01*
X349676Y-307338D02*
X354754D01*
X356447Y-305646D01*
Y-303953D01*
X354754Y-302260D01*
X349676D01*
X354754D01*
X356447Y-300567D01*
Y-298874D01*
X354754Y-297182D01*
X349676D01*
Y-307338D01*
X359833D02*
Y-302260D01*
X366604D01*
Y-297182D01*
Y-307338D01*
X359833D02*
Y-297182D01*
X381073Y-292664D02*
X383582Y-293084D01*
X386100Y-293449D01*
X388626Y-293757D01*
X391157Y-294010D01*
X393694Y-294207D01*
X396234Y-294347D01*
X398777Y-294432D01*
X401321Y-294460D01*
X403865Y-294432D01*
X406408Y-294347D01*
X408948Y-294207D01*
X411485Y-294010D01*
X414016Y-293757D01*
X416542Y-293448D01*
X419060Y-293084D01*
X421569Y-292663D01*
X424068Y-292188D01*
X426556Y-291657D01*
X429032Y-291071D01*
X431494Y-290431D01*
X433942Y-289736D01*
X436374Y-288987D01*
X438788Y-288185D01*
X441184Y-287330D01*
X443561Y-286421D01*
X445916Y-285461D01*
X448251Y-284448D01*
X450562Y-283384D01*
X452849Y-282270D01*
X455110Y-281105D01*
X457346Y-279890D01*
X459554Y-278626D01*
X461733Y-277313D01*
X463883Y-275953D01*
X466003Y-274545D01*
X468090Y-273091D01*
X470145Y-271591D01*
X472166Y-270046D01*
X474153Y-268456D01*
X476104Y-266823D01*
X478018Y-265148D01*
X479895Y-263430D01*
X481734Y-261671D01*
X483533Y-259872D01*
X485291Y-258034D01*
X487009Y-256157D01*
X488685Y-254242D01*
X490318Y-252291D01*
X491907Y-250305D01*
X493452Y-248283D01*
X494952Y-246228D01*
X496406Y-244141D01*
X497814Y-242021D01*
X499174Y-239871D01*
X500487Y-237692D01*
X501751Y-235484D01*
X502966Y-233248D01*
X504131Y-230987D01*
X505245Y-228700D01*
X506309Y-226388D01*
X507322Y-224055D01*
X508282Y-221699D01*
X509190Y-219322D01*
X510046Y-216926D01*
X510848Y-214512D01*
X511597Y-212080D01*
X512291Y-209632D01*
X512932Y-207170D01*
X513517Y-204694D01*
X514048Y-202206D01*
X514524Y-199707D01*
X514944Y-197197D01*
X515308Y-194679D01*
X515617Y-192154D01*
X515870Y-189622D01*
X516067Y-187086D01*
X516208Y-184546D01*
X516292Y-182003D01*
X516320Y-179460D01*
X516292Y-176916D01*
X516208Y-174373D01*
X516067Y-171833D01*
X515870Y-169296D01*
X515617Y-166765D01*
X515308Y-164239D01*
X514944Y-161721D01*
X514524Y-159212D01*
X514048Y-156713D01*
X513517Y-154225D01*
X512931Y-151749D01*
X512291Y-149286D01*
X511596Y-146839D01*
X510848Y-144407D01*
X510045Y-141993D01*
X509190Y-139597D01*
X508282Y-137220D01*
X507321Y-134865D01*
X506309Y-132530D01*
X505245Y-130219D01*
X504130Y-127932D01*
X502965Y-125671D01*
X501750Y-123435D01*
X500486Y-121227D01*
X499174Y-119048D01*
X497813Y-116898D01*
X496406Y-114778D01*
X494952Y-112691D01*
X493451Y-110636D01*
X491906Y-108614D01*
X490317Y-106628D01*
X488684Y-104677D01*
X487008Y-102762D01*
X485291Y-100886D01*
X483532Y-99047D01*
X481733Y-97248D01*
X479894Y-95490D01*
X478018Y-93772D01*
X476103Y-92096D01*
X474152Y-90463D01*
X472166Y-88874D01*
X470144Y-87329D01*
X468089Y-85829D01*
X466002Y-84374D01*
X463882Y-82967D01*
X461732Y-81606D01*
X459553Y-80294D01*
X457345Y-79030D01*
X455109Y-77815D01*
X452848Y-76650D01*
X450561Y-75535D01*
X448250Y-74472D01*
X445916Y-73459D01*
X443560Y-72498D01*
X441183Y-71590D01*
X438787Y-70735D01*
X436373Y-69932D01*
X433941Y-69184D01*
X431494Y-68489D01*
X429031Y-67849D01*
X426555Y-67263D01*
X424067Y-66732D01*
X421568Y-66257D01*
X419059Y-65836D01*
X416541Y-65472D01*
X414015Y-65163D01*
X411484Y-64910D01*
X408947Y-64713D01*
X406407Y-64573D01*
X403864Y-64488D01*
X401320Y-64460D01*
X398776Y-64488D01*
X396233Y-64573D01*
X393693Y-64713D01*
X391156Y-64910D01*
X388625Y-65163D01*
X386099Y-65472D01*
X383581Y-65836D01*
X381072Y-66257D01*
X378573Y-66732D01*
X376085Y-67263D01*
X373609Y-67849D01*
X371146Y-68489D01*
X368699Y-69184D01*
X366267Y-69932D01*
X363853Y-70735D01*
X361457Y-71590D01*
X359080Y-72498D01*
X356724Y-73459D01*
X354390Y-74472D01*
X352079Y-75535D01*
X349792Y-76650D01*
X347530Y-77815D01*
X345295Y-79030D01*
X343087Y-80294D01*
X340907Y-81607D01*
X338758Y-82967D01*
X336638Y-84375D01*
X334551Y-85829D01*
X332495Y-87329D01*
X330474Y-88874D01*
X328488Y-90463D01*
X326537Y-92096D01*
X324622Y-93772D01*
X322745Y-95490D01*
X320907Y-97248D01*
X319108Y-99047D01*
X317349Y-100886D01*
X315632Y-102763D01*
X313956Y-104677D01*
X312323Y-106628D01*
X310733Y-108615D01*
X309188Y-110636D01*
X307688Y-112691D01*
X306234Y-114779D01*
X304827Y-116898D01*
X303466Y-119048D01*
X302154Y-121227D01*
X300890Y-123435D01*
X299675Y-125671D01*
X298510Y-127933D01*
X297395Y-130220D01*
X296331Y-132531D01*
X295319Y-134865D01*
X294358Y-137221D01*
X293450Y-139597D01*
X292594Y-141993D01*
X291792Y-144408D01*
X291044Y-146839D01*
X290349Y-149287D01*
X289709Y-151749D01*
X289123Y-154225D01*
X288592Y-156713D01*
X288116Y-159213D01*
X287696Y-161722D01*
X287332Y-164240D01*
X287023Y-166765D01*
X286770Y-169297D01*
X286573Y-171833D01*
X286432Y-174374D01*
X286348Y-176917D01*
X286320Y-179461D01*
X286348Y-182005D01*
X286433Y-184547D01*
X286573Y-187088D01*
X286770Y-189624D01*
X287023Y-192156D01*
X287332Y-194681D01*
X287696Y-197199D01*
X288117Y-199708D01*
X288592Y-202208D01*
X289123Y-204696D01*
X289709Y-207172D01*
X290349Y-209634D01*
X291044Y-212082D01*
X291793Y-214513D01*
X292595Y-216928D01*
X293450Y-219324D01*
X294359Y-221700D01*
X295319Y-224056D01*
X296332Y-226390D01*
X297395Y-228701D01*
X298510Y-230988D01*
X299675Y-233250D01*
X300890Y-235485D01*
X302154Y-237694D01*
X303467Y-239873D01*
X304827Y-242023D01*
X306235Y-244142D01*
X307689Y-246230D01*
X309189Y-248285D01*
X310734Y-250306D01*
X312323Y-252293D01*
X313956Y-254244D01*
X315632Y-256158D01*
X317350Y-258035D01*
X319109Y-259873D01*
X320908Y-261672D01*
X322746Y-263431D01*
X324623Y-265149D01*
X326537Y-266824D01*
X328488Y-268458D01*
X330475Y-270047D01*
X332496Y-271592D01*
X334551Y-273092D01*
X336639Y-274546D01*
X338758Y-275954D01*
X340908Y-277314D01*
X343088Y-278627D01*
X345296Y-279891D01*
X347531Y-281105D01*
X349793Y-282270D01*
X352080Y-283385D01*
X354391Y-284449D01*
X356725Y-285462D01*
X359081Y-286422D01*
X361458Y-287330D01*
X363854Y-288186D01*
X366268Y-288988D01*
X368700Y-289737D01*
X371147Y-290431D01*
X373610Y-291072D01*
X376085Y-291657D01*
X378574Y-292188D01*
X381073Y-292664D01*
X420423Y-205753D02*
X422427Y-204173D01*
X424301Y-202441D01*
X426033Y-200567D01*
X427613Y-198563D01*
X429031Y-196441D01*
X430278Y-194215D01*
X431346Y-191897D01*
X432229Y-189503D01*
X432922Y-187047D01*
X433420Y-184544D01*
X433720Y-182010D01*
X433820Y-179460D01*
X433720Y-176910D01*
X433420Y-174376D01*
X432922Y-171873D01*
X432229Y-169417D01*
X431346Y-167023D01*
X430278Y-164705D01*
X429031Y-162479D01*
X427613Y-160357D01*
X426033Y-158353D01*
X424301Y-156479D01*
X422427Y-154747D01*
X420423Y-153167D01*
X418301Y-151749D01*
X416075Y-150502D01*
X413757Y-149434D01*
X411363Y-148551D01*
X408907Y-147858D01*
X406404Y-147360D01*
X403870Y-147060D01*
X401320Y-146960D01*
X398770Y-147060D01*
X396236Y-147360D01*
X393733Y-147858D01*
X391277Y-148551D01*
X388883Y-149434D01*
X386565Y-150502D01*
X384339Y-151749D01*
X382217Y-153167D01*
X380213Y-154747D01*
X378339Y-156479D01*
X376607Y-158353D01*
X375027Y-160357D01*
X373609Y-162479D01*
X372362Y-164705D01*
X371294Y-167023D01*
X370411Y-169417D01*
X369718Y-171873D01*
X369220Y-174376D01*
X368920Y-176910D01*
X368820Y-179460D01*
X368920Y-182010D01*
X369220Y-184544D01*
X369718Y-187047D01*
X370411Y-189503D01*
X371294Y-191897D01*
X372362Y-194215D01*
X373609Y-196441D01*
X375027Y-198563D01*
X376607Y-200567D01*
X378339Y-202441D01*
X380213Y-204173D01*
X382217Y-205753D01*
X384339Y-207171D01*
X386565Y-208418D01*
X388883Y-209486D01*
X391277Y-210369D01*
X393733Y-211062D01*
X396236Y-211560D01*
X398770Y-211860D01*
X401320Y-211960D01*
X403870Y-211860D01*
X406404Y-211560D01*
X408907Y-211062D01*
X411363Y-210369D01*
X413757Y-209486D01*
X416075Y-208418D01*
X418301Y-207171D01*
X420423Y-205753D01*
X342895Y-73658D02*
Y-63502D01*
X346281D01*
X339510D01*
X336124Y-65194D02*
X334431Y-63502D01*
X331046D01*
X329353Y-65194D01*
Y-66887D01*
X331046Y-68580D01*
X334431D01*
X336124Y-70273D01*
Y-71966D01*
X334431Y-73658D01*
X331046D01*
X329353Y-71966D01*
X325967Y-73658D02*
X322582Y-70273D01*
X324274D02*
X319196D01*
Y-73658D02*
Y-63502D01*
X324274D01*
X325967Y-65194D01*
Y-68580D01*
X324274Y-70273D01*
X315811Y-68580D02*
X314118Y-70273D01*
X309039D01*
Y-73658D02*
Y-63502D01*
X314118D01*
X315811Y-65194D01*
Y-68580D01*
X341202Y-26246D02*
Y-24553D01*
X339510Y-22860D01*
X334431D01*
X339510D01*
X341202Y-21167D01*
Y-19474D01*
X339510Y-17782D01*
X334431D01*
Y-27938D01*
X339510D01*
X341202Y-26246D01*
X347973Y-27938D02*
Y-17782D01*
X351359D01*
X344588D01*
X354745D02*
X361516Y-27938D01*
Y-17782D01*
X354745D02*
Y-27938D01*
X349671Y7622D02*
X347978D01*
Y17778D01*
X346286Y16086D01*
X342900D02*
Y12700D01*
X341207Y11007D01*
X336129D01*
Y7622D02*
Y17778D01*
X341207D01*
X342900Y16086D01*
Y7622D02*
X339514Y11007D01*
X320889Y-19474D02*
X319196Y-17782D01*
X314118D01*
Y-27938D01*
X319196D01*
X320889Y-26246D01*
Y-24553D01*
X319196Y-22860D01*
X314118D01*
X319196D01*
X320889Y-21167D01*
Y-19474D01*
X310732Y-17782D02*
X303961D01*
Y-27938D01*
X310732D01*
X307347Y-22860D02*
X303961D01*
X324274D02*
X331046D01*
X346286Y7622D02*
X349671D01*
X350094Y29212D02*
X343323D01*
X350094Y35983D01*
Y37676D01*
X348401Y39368D01*
X345016D01*
X343323Y37676D01*
X341207Y50802D02*
X342900Y52494D01*
X341207Y50802D02*
X337822D01*
X336129Y52494D01*
Y59266D01*
X337822Y60958D01*
X341207D01*
X342900Y59266D01*
X346286D02*
X347978Y60958D01*
Y50802D01*
X349671D01*
X346286D01*
X338244Y39368D02*
X339937Y37676D01*
Y34290D01*
X338244Y32597D01*
X333166D01*
Y29212D02*
Y39368D01*
X338244D01*
X336552Y32597D02*
X339937Y29212D01*
X259921Y-63502D02*
X263306D01*
X264999Y-65194D01*
Y-71966D01*
X263306Y-73658D01*
X259921D01*
X258228Y-71966D01*
Y-65194D01*
X259921Y-63502D01*
X254842D02*
X251457D01*
Y-73658D01*
X242993D02*
X244686Y-71966D01*
Y-65194D01*
X242993Y-63502D01*
X239607D01*
X237914Y-65194D01*
Y-71966D01*
X239607Y-73658D01*
X242993D01*
X232836D02*
X234529Y-71966D01*
Y-65194D01*
X232836Y-63502D01*
X229450D01*
X227758Y-65194D01*
Y-71966D01*
X229450Y-73658D01*
X232836D01*
X224372Y-71966D02*
Y-70273D01*
X222679Y-68580D01*
X217601D01*
X222679D01*
X224372Y-66887D01*
Y-65194D01*
X222679Y-63502D01*
X217601D01*
Y-73658D01*
X222679D01*
X224372Y-71966D01*
X248071Y-63502D02*
X254842D01*
X245531Y-115572D02*
X240453Y-120650D01*
X247224D01*
X245531Y-125728D02*
Y-115572D01*
X237067Y-117264D02*
X235374Y-115572D01*
X231989D01*
X230296Y-117264D01*
Y-124036D01*
X231989Y-125728D01*
X235374D01*
X237067Y-124036D01*
X-14816Y-420373D02*
Y-430530D01*
X-8044D01*
X-4659D02*
Y-427144D01*
X2112Y-420373D01*
X-2966Y-425452D01*
X2112Y-430530D01*
X-4659D02*
Y-420373D01*
X0Y-468630D02*
Y-486410D01*
X28794Y-430530D02*
X27101Y-428837D01*
X28794Y-430530D02*
X32179D01*
X33872Y-428837D01*
Y-427144D01*
X32179Y-425452D01*
X28794D01*
X27101Y-423759D01*
Y-422066D01*
X28794Y-420373D01*
X32179D01*
X33872Y-422066D01*
X37258Y-420373D02*
Y-430530D01*
X42336D01*
X44029Y-428837D01*
Y-422066D01*
X42336Y-420373D01*
X37258D01*
X47414Y-422066D02*
X49107Y-420373D01*
X52493D01*
X54186Y-422066D01*
Y-428837D01*
X52493Y-430530D01*
X49107D01*
X47414Y-428837D01*
Y-422066D01*
X57571Y-425452D02*
X64342D01*
X71113D02*
X72806D01*
X71113D01*
X72806D02*
X74499Y-427144D01*
Y-428837D01*
X72806Y-430530D01*
X69421D01*
X67728Y-428837D01*
Y-422066D02*
X69421Y-420373D01*
X72806D01*
X74499Y-422066D01*
Y-423759D01*
X72806Y-425452D01*
X100758Y-428837D02*
X102451Y-430530D01*
X105836D01*
X107529Y-428837D01*
X110914Y-430530D02*
Y-420373D01*
X114300Y-423759D01*
X117686Y-420373D01*
Y-430530D01*
X121071D02*
X126150D01*
X127842Y-428837D01*
Y-422066D01*
X126150Y-420373D01*
X121071D01*
Y-430530D01*
X138015D02*
Y-420373D01*
X143094D01*
X144787Y-422066D01*
Y-425452D01*
X143094Y-427144D01*
X138015D01*
X107529Y-422066D02*
X105836Y-420373D01*
X102451D01*
X100758Y-422066D01*
Y-428837D01*
X148172Y-430530D02*
X151558D01*
X149865D01*
Y-420373D01*
X148172Y-422066D01*
X160022D02*
X156636Y-425452D01*
Y-428837D01*
X158329Y-430530D01*
X161714D01*
X163407Y-428837D01*
Y-427144D01*
X161714Y-425452D01*
X156636D01*
X160022Y-422066D02*
X163407Y-420373D01*
X166793Y-425452D02*
X173564D01*
X176950Y-422066D02*
X178642Y-420373D01*
Y-430530D01*
X180335D01*
X176950D01*
X187106D02*
X185413Y-428837D01*
Y-427144D01*
X187106Y-425452D01*
X185413Y-423759D01*
Y-422066D01*
X187106Y-420373D01*
X190492D01*
X192185Y-422066D01*
Y-423759D01*
X190492Y-425452D01*
X192185Y-427144D01*
Y-428837D01*
X190492Y-430530D01*
X187106D01*
Y-425452D02*
X190492D01*
X-18201Y-428837D02*
X-19894Y-430530D01*
X-23280D01*
X-24972Y-428837D01*
Y-422066D01*
X-23280Y-420373D01*
X-19894D01*
X-18201Y-422066D01*
X-29636Y-420373D02*
X-36407D01*
Y-425452D01*
X-33022Y-423759D01*
X-31329D01*
X-29636Y-425452D01*
Y-428837D01*
X-31329Y-430530D01*
X-34714D01*
X-36407Y-428837D01*
X-39793Y-425452D02*
X-41486Y-427144D01*
X-46564D01*
Y-430530D02*
Y-420373D01*
X-41486D01*
X-39793Y-422066D01*
Y-425452D01*
X-55036D02*
X-61807D01*
X-56729Y-420373D01*
Y-430530D01*
X-65193Y-425452D02*
X-66886Y-427144D01*
X-71964D01*
Y-430530D02*
Y-420373D01*
X-66886D01*
X-65193Y-422066D01*
Y-425452D01*
X-80436Y-430530D02*
X-87207Y-420373D01*
X-90593Y-422066D02*
Y-425452D01*
X-92286Y-427144D01*
X-97364D01*
Y-430530D02*
Y-420373D01*
X-92286D01*
X-90593Y-422066D01*
Y-430530D02*
X-93978Y-427144D01*
X-105836Y-430530D02*
X-112607D01*
X-105836Y-423759D01*
Y-422066D01*
X-107529Y-420373D01*
X-110914D01*
X-112607Y-422066D01*
X-115993D02*
Y-425452D01*
X-117686Y-427144D01*
X-122764D01*
Y-430530D02*
Y-420373D01*
X-117686D01*
X-115993Y-422066D01*
X-120225Y-471173D02*
X-121917Y-472866D01*
X-120225Y-471173D02*
Y-481330D01*
X-118532D01*
X-121917D01*
X-125303D02*
X-132074D01*
X-125303Y-474559D01*
Y-472866D01*
X-126996Y-471173D01*
X-130381D01*
X-132074Y-472866D01*
X-135460D02*
Y-476252D01*
X-137153Y-477944D01*
X-142231D01*
Y-481330D02*
Y-471173D01*
X-137153D01*
X-135460Y-472866D01*
X-152400Y-468630D02*
Y-486410D01*
X-159177Y-481330D02*
X-157484Y-479637D01*
Y-472866D01*
X-159177Y-471173D01*
X-162562D01*
X-164255Y-472866D01*
Y-474559D01*
X-162562Y-476252D01*
X-157484D01*
X-159177Y-481330D02*
X-162562D01*
X-164255Y-479637D01*
X-113454Y-476252D02*
X-106683D01*
X-103297Y-472866D02*
X-101604Y-471173D01*
X-98218D01*
X-96526Y-472866D01*
Y-474559D01*
X-103297Y-481330D01*
X-96526D01*
X-93140Y-479637D02*
X-91447Y-481330D01*
X-88062D01*
X-86369Y-479637D01*
Y-477944D01*
X-88062Y-476252D01*
X-89755D01*
X-88062D01*
X-86369Y-474559D01*
Y-472866D01*
X-88062Y-471173D01*
X-91447D01*
X-93140Y-472866D01*
X-76200Y-511810D02*
Y-486410D01*
X-76100Y-511810D02*
X-177800D01*
Y-486410D01*
X-168486Y-427144D02*
X-173564D01*
Y-430530D02*
Y-420373D01*
X-168486D01*
X-166793Y-422066D01*
Y-425452D01*
X-168486Y-427144D01*
X-163407Y-428837D02*
Y-422066D01*
X-161714Y-420373D01*
X-158329D01*
X-156636Y-422066D01*
Y-428837D01*
X-158329Y-430530D01*
X-161714D01*
X-163407Y-428837D01*
X-144778Y-430530D02*
Y-420373D01*
X-141393D01*
X-148164D01*
X-138007D02*
X-131236Y-430530D01*
X-138007D02*
X-131236Y-420373D01*
X-182036D02*
Y-430530D01*
X-188807Y-420373D01*
Y-430530D01*
X-192193D02*
X-198964D01*
Y-420373D01*
X-192193D01*
X-195578Y-425452D02*
X-198964D01*
X-87207Y-430530D02*
X-80436Y-420373D01*
X-81278Y-26243D02*
X-71122D01*
X-76200Y-21165D01*
Y-27936D01*
X-81278Y-16086D02*
Y-14394D01*
X-71122D01*
X-72814Y-12701D01*
Y-9315D02*
X-71122Y-7623D01*
Y-4237D01*
X-72814Y-2544D01*
X-79586D01*
X-81278Y-4237D01*
Y-7623D01*
X-79586Y-9315D01*
X-81278Y-12701D02*
Y-16086D01*
X-96522Y-14394D02*
X-98214Y-12701D01*
X-96522Y-14394D02*
X-106678D01*
Y-16086D01*
Y-12701D01*
Y-7623D02*
X-104986Y-9315D01*
X-106678Y-7623D02*
Y-4237D01*
X-104986Y-2544D01*
X-98214D01*
X-96522Y-4237D01*
Y-7623D01*
X-98214Y-9315D01*
Y-21165D02*
X-96522Y-22858D01*
Y-26243D01*
X-98214Y-27936D01*
X-99907D01*
X-101600Y-26243D01*
Y-24550D01*
Y-26243D01*
X-103293Y-27936D01*
X-104986D01*
X-106678Y-26243D01*
Y-22858D01*
X-104986Y-21165D01*
X-269664Y230296D02*
X-267972Y231989D01*
Y235374D01*
X-269664Y237067D01*
Y240453D02*
X-267972Y242146D01*
Y247224D01*
X-278128D01*
Y242146D01*
X-276436Y240453D01*
X-269664D01*
Y230296D02*
X-271357D01*
X-278128Y237067D01*
Y230296D01*
X-283310Y218220D02*
Y254220D01*
X-283464D02*
X-356060D01*
X-359310Y250970D01*
Y221470D01*
X-356060Y218220D01*
X-283464D01*
Y258860D02*
X-356060D01*
X-359310Y262110D01*
Y291610D01*
X-356060Y294860D01*
X-283464D01*
X-283310D02*
Y258860D01*
X-278128Y270089D02*
Y271782D01*
X-267972D01*
X-269664Y273474D01*
Y276860D02*
X-267972Y278553D01*
Y283631D01*
X-278128D01*
Y278553D01*
X-276436Y276860D01*
X-269664D01*
X-278128Y273474D02*
Y270089D01*
X-237490Y322580D02*
Y347980D01*
X-198118Y364916D02*
X-193040D01*
X-194733Y368302D01*
Y369994D01*
X-193040Y371687D01*
X-189654D01*
X-187962Y369994D01*
Y366609D01*
X-189654Y364916D01*
X-198118D02*
Y371687D01*
Y375073D02*
X-191347D01*
X-187962Y378458D01*
X-191347Y381844D01*
X-198118D01*
X-240030Y449580D02*
X-265430D01*
Y398780D01*
X-240030D01*
Y449580D01*
X-244266Y393698D02*
Y383542D01*
Y388620D02*
Y393698D01*
Y388620D02*
X-251037D01*
Y383542D01*
Y393698D01*
X-256116D02*
X-254423Y392006D01*
Y388620D01*
X-256116Y386927D01*
X-261194D01*
Y383542D02*
Y393698D01*
X-256116D01*
X-283310Y335500D02*
Y299500D01*
X-283464D02*
X-356060D01*
X-359310Y302750D01*
Y332250D01*
X-356060Y335500D01*
X-283464D01*
X-278128Y325964D02*
Y320886D01*
X-276436Y319193D01*
X-269664D01*
X-267972Y320886D01*
Y325964D01*
X-278128D01*
Y314114D02*
X-276436Y315807D01*
X-273050D02*
X-271357Y312422D01*
Y310729D01*
X-273050Y309036D01*
X-276436D01*
X-278128Y310729D01*
Y314114D01*
X-273050Y315807D02*
X-267972D01*
Y309036D01*
X-302262Y342479D02*
X-307340Y347557D01*
Y340786D01*
X-312418Y342479D02*
X-302262D01*
Y352636D02*
X-303954Y350943D01*
X-307340D01*
X-309033Y352636D01*
Y357714D01*
X-312418D02*
X-302262D01*
Y352636D01*
X-309033Y354328D02*
X-312418Y350943D01*
X-326880Y399379D02*
X-272999Y453261D01*
X-290959Y471221D01*
X-344841Y417340D01*
X-326880Y399379D01*
X-326463Y448675D02*
Y451069D01*
X-331251Y455857D01*
X-333645D01*
X-336039Y453463D01*
Y451069D01*
X-336039Y446281D02*
X-340827Y441493D01*
X-343221Y446281D02*
X-336039Y439099D01*
X-336039Y446281D01*
X-331251D02*
X-328857D01*
X-326463Y448675D01*
X-324069Y453463D02*
X-321675D01*
X-319281Y455857D01*
Y458251D01*
X-320478Y459448D01*
X-322872D01*
X-325266Y457054D01*
X-327660D01*
X-328857Y458251D01*
Y460645D01*
X-326463Y463039D01*
X-324069D01*
X-322872Y466630D02*
X-318084Y471418D01*
X-310902Y464236D01*
X-315690Y459448D01*
X-316887Y465433D02*
X-314493Y467827D01*
X-308610Y458470D02*
X-294640Y472440D01*
X-233681Y477520D02*
X-106680D01*
Y502920D01*
X-233681D01*
X-233680D02*
Y477520D01*
X-184992Y509694D02*
X-183300Y508002D01*
X-179914D01*
X-178221Y509694D01*
Y511387D01*
X-179914Y513080D01*
X-183300D01*
X-184992Y514773D01*
Y516466D01*
X-183300Y518158D01*
X-179914D01*
X-178221Y516466D01*
X-174836Y513080D02*
X-173143Y514773D01*
X-168064D01*
Y518158D02*
Y508002D01*
X-173143D01*
X-174836Y509694D01*
Y513080D01*
X-164679D02*
X-161293D01*
X-164679D02*
Y516466D01*
X-162986Y518158D01*
X-159600D01*
X-157908Y516466D01*
Y509694D01*
X-159600Y508002D01*
X-162986D01*
X-164679Y509694D01*
X-154305Y506730D02*
X-135255D01*
X-104983Y469898D02*
X-106676Y468206D01*
Y461434D01*
X-104983Y459742D01*
X-101597D01*
X-99905Y461434D01*
X-96519Y459742D02*
X-93134D01*
X-94826D01*
Y469898D01*
X-96519Y468206D01*
X-99905D02*
X-101597Y469898D01*
X-104983D01*
X-69850Y449580D02*
X-44450D01*
Y398780D01*
X-69850D01*
Y449580D01*
X-65614Y393698D02*
X-60536D01*
X-58843Y392006D01*
Y388620D01*
X-60536Y386927D01*
X-65614D01*
Y383542D02*
Y393698D01*
X-55457D02*
Y383542D01*
X-48686D01*
X-82977Y459742D02*
X-81284Y461434D01*
Y463127D01*
X-82977Y464820D01*
X-88055D01*
Y461434D01*
X-86362Y459742D01*
X-82977D01*
X-88055Y464820D02*
X-84670Y468206D01*
X-81284Y469898D01*
X-41275Y506730D02*
X-60325D01*
X-25396Y509694D02*
X-23703Y508002D01*
X-20318D01*
X-18625Y509694D01*
Y511387D01*
X-20318Y513080D01*
X-23703D01*
X-25396Y514773D01*
Y516466D01*
X-23703Y518158D01*
X-20318D01*
X-18625Y516466D01*
X-13546Y518158D02*
X-10161D01*
X-11854D01*
Y508002D01*
X-13546D01*
X-10161D01*
X-6775Y509694D02*
X-5082Y508002D01*
X-4D01*
Y518158D01*
X-5082D01*
X-6775Y516466D01*
Y509694D01*
X-113454Y386922D02*
X-111762Y385229D01*
Y381844D01*
X-113454Y380151D01*
X-115147D01*
X-116840Y381844D01*
Y383537D01*
Y381844D01*
X-118533Y380151D01*
X-120226D01*
X-121918Y381844D01*
Y385229D01*
X-120226Y386922D01*
X-118533Y376766D02*
X-121918Y373380D01*
X-118533Y369995D01*
X-111762D01*
X-113454Y366609D02*
X-111762Y364916D01*
Y361530D01*
X-113454Y359838D01*
X-115147D01*
X-116840Y361530D01*
Y363223D01*
Y361530D01*
X-118533Y359838D01*
X-120226D01*
X-121918Y361530D01*
Y364916D01*
X-120226Y366609D01*
X-118533Y376766D02*
X-111762D01*
X-371110Y348490D02*
X-367860Y345240D01*
Y320740D01*
X-370610Y317990D01*
X-439860D01*
Y348490D01*
X-371110D01*
X-399590Y315180D02*
X-396340Y311930D01*
Y282430D01*
X-399590Y279180D01*
X-472186D01*
X-472340D02*
Y315180D01*
X-472186D02*
X-399590D01*
X-386926Y273046D02*
X-388618Y271353D01*
Y267967D01*
X-386926Y266275D01*
X-388618Y262889D02*
Y259504D01*
Y261196D01*
X-378462D01*
X-380154Y262889D01*
Y266275D02*
X-378462Y267967D01*
Y271353D01*
X-380154Y273046D01*
X-386926D01*
Y254425D02*
X-385233D01*
X-383540Y252732D01*
X-381847Y254425D01*
X-380154D01*
X-378462Y252732D01*
Y249347D01*
X-380154Y247654D01*
X-381847D01*
X-383540Y249347D01*
X-385233Y247654D01*
X-386926D01*
X-388618Y249347D01*
Y252732D01*
X-386926Y254425D01*
X-383540Y252732D02*
Y249347D01*
X-447889Y320042D02*
Y330198D01*
X-452967Y325120D01*
X-446196D01*
X-456353Y321734D02*
Y328506D01*
X-458046Y330198D01*
X-463124D01*
Y320042D01*
X-458046D01*
X-456353Y321734D01*
X-477948Y287866D02*
X-479641Y289558D01*
X-484719D01*
Y279402D01*
X-479641D01*
X-477948Y281094D01*
Y282787D01*
X-479641Y284480D01*
X-484719D01*
X-479641D01*
X-477948Y286173D01*
Y287866D01*
X-488104D02*
X-489797Y289558D01*
X-493183D01*
X-494876Y287866D01*
Y286173D01*
X-493183Y284480D01*
X-489797D01*
X-488104Y282787D01*
Y281094D01*
X-489797Y279402D01*
X-493183D01*
X-494876Y281094D01*
X-498261D02*
Y289558D01*
X-505032D02*
Y281094D01*
X-503340Y279402D01*
X-499954D01*
X-498261Y281094D01*
X-425024Y353062D02*
X-419946D01*
X-418253Y354754D01*
Y361526D01*
X-419946Y363218D01*
X-425024D01*
Y353062D01*
X-413174D02*
X-414867Y354754D01*
X-413174Y353062D02*
X-409789D01*
X-408096Y354754D01*
Y356447D01*
X-409789Y358140D01*
X-411482D01*
X-409789D01*
X-408096Y359833D01*
Y361526D01*
X-409789Y363218D01*
X-413174D01*
X-414867Y361526D01*
D11*
X-271120Y-352010D02*
Y-316010D01*
X-252120D01*
Y-352010D01*
X-271120D01*
X-251420Y-292540D02*
Y-220540D01*
X-297220D01*
Y-292540D01*
X-251420D01*
X-315620Y-253780D02*
X-334620D01*
Y-289780D01*
X-315620D01*
Y-253780D01*
X-315830Y-245110D02*
X-396240D01*
X-384550Y-248310D02*
X-348550D01*
Y-267310D01*
X-384550D01*
Y-248310D01*
X-426960Y-210290D02*
Y-180490D01*
X-413710Y-227300D02*
Y-237300D01*
X-418710Y-232300D02*
X-408710D01*
X-426960Y-252490D02*
Y-272890D01*
X-598960D01*
Y-117890D01*
X-426960D01*
Y-138290D01*
X-426660Y-113640D02*
Y-94640D01*
X-462660D01*
Y-113640D01*
X-426660D01*
X-412090Y-105300D02*
X-373090D01*
Y-123300D01*
X-412090D01*
Y-105300D01*
X-413710Y-153640D02*
Y-163640D01*
X-396240Y-143510D02*
X-325120D01*
X-311260Y-155390D02*
X-293260D01*
Y-116390D01*
X-311260D01*
Y-155390D01*
X-290170Y-153890D02*
X-271170D01*
Y-117890D01*
X-290170D01*
Y-153890D01*
X-288510Y-177190D02*
X-252510D01*
Y-196190D01*
X-288510D01*
Y-177190D01*
X-254370Y-200540D02*
Y-217040D01*
X-218660Y-149200D02*
Y-130200D01*
X-182660D01*
Y-149200D01*
X-218660D01*
X-249580Y-117730D02*
Y-153730D01*
X-268580D01*
Y-117730D01*
X-249580D01*
X-213140Y-69190D02*
Y-50190D01*
X-249140D01*
Y-69190D01*
X-213140D01*
X-264680Y-54890D02*
Y-89890D01*
X-329680D01*
Y-54890D01*
X-264680D01*
X-265930Y-49640D02*
Y-32140D01*
X-310540Y10380D02*
X-329540D01*
Y-25620D01*
X-310540D01*
Y10380D01*
X-330140Y20980D02*
Y39980D01*
X-366140D01*
Y20980D01*
X-330140D01*
X-370620Y62840D02*
X-406620D01*
Y43840D01*
X-370620D01*
Y62840D01*
X-369120Y39480D02*
Y21480D01*
X-408120D01*
Y39480D01*
X-369120D01*
X-417830Y62040D02*
Y52040D01*
X-428230Y36010D02*
Y16290D01*
X-610230D01*
Y171290D01*
X-428230D01*
Y151570D01*
X-422830Y130700D02*
X-412830D01*
X-417830Y135700D02*
Y125700D01*
X-428230Y108010D02*
Y79570D01*
X-401530Y101840D02*
Y131840D01*
X-332530D01*
Y101840D01*
X-401530D01*
X-326610Y153060D02*
Y172060D01*
X-290610D01*
Y153060D01*
X-326610D01*
X-374040Y277910D02*
Y313910D01*
X-393040D01*
Y277910D01*
X-374040D01*
X-434600Y275310D02*
Y176810D01*
X-496500D01*
X-519500D02*
X-523500D01*
Y275310D01*
X-519500D01*
X-496500D02*
X-434600D01*
X-429000Y254060D02*
X-427000D01*
X-429000D01*
X-317280Y339750D02*
Y358750D01*
X-353280D01*
Y339750D01*
X-317280D01*
X-147540Y455320D02*
X-111540D01*
Y474320D01*
X-147540D01*
Y455320D01*
X15900Y437930D02*
Y473930D01*
X34900D01*
Y437930D01*
X15900D01*
X268630Y90390D02*
X287630D01*
Y54390D01*
X268630D01*
Y90390D01*
X354110Y3200D02*
Y22200D01*
X390110D01*
Y3200D01*
X354110D01*
X390110Y24790D02*
Y43790D01*
X354110D01*
Y24790D01*
X390110D01*
Y46380D02*
Y65380D01*
X354110D01*
Y46380D01*
X390110D01*
X256760Y-130200D02*
Y-149200D01*
X220760D01*
Y-130200D01*
X256760D01*
X-66700Y-32800D02*
Y-68800D01*
X-85700D01*
Y-32800D01*
X-66700D01*
X-92100D02*
Y-68800D01*
X-111100D01*
Y-32800D01*
X-92100D01*
X-333950Y-104800D02*
X-369950D01*
Y-123800D01*
X-333950D01*
Y-104800D01*
X-424840Y-39150D02*
Y-75150D01*
X-443840D01*
Y-39150D01*
X-424840D01*
X-446430Y-18830D02*
X-465430D01*
Y-54830D01*
X-446430D01*
Y-18830D01*
X-470830Y2500D02*
X-519130D01*
Y-104100D01*
X-494030D01*
D12*
X262971Y125857D02*
X270383D01*
Y133269D01*
Y262971D02*
Y270383D01*
X262971D01*
X133269D02*
X125857D01*
Y262971D01*
X110373Y258120D02*
X108849D01*
X110373D01*
X125857Y133269D02*
Y125857D01*
X133269D01*
D13*
X-248000Y-406400D02*
X242000Y-406400D01*
Y-152400D01*
X-248000Y-152400D01*
Y-406400D01*
M02*
